<svg id="Layer_1" data-name="Layer 1" xmlns="http://www.w3.org/2000/svg" viewBox="0 0 100 100"><defs><style>.cls-1{fill:#fff;}.cls-2{fill:#eb6040;}.cls-3{fill:#1a424e;}</style></defs><circle class="cls-1" cx="50" cy="50" r="50"/><path class="cls-2" d="M20.44,39.85V55.72H20a2.56,2.56,0,0,1-2.3-2.18V42.07A2.57,2.57,0,0,1,20,39.88Zm3.07,2.42H21V39.85h3A2.62,2.62,0,0,1,26.28,42V53.51A2.62,2.62,0,0,1,24,55.69H21V53.3h2.52Z"/><path class="cls-2" d="M31.17,39.85l6,15.87H34.63l-6-15.87Zm.22,8.85v7H28.64V41.42Zm3-1.83v-7h2.74v14.3Z"/><path class="cls-2" d="M42.33,39.85V55.72H39.59V39.85Z"/><path class="cls-2" d="M59.07,44.29V60.16H56.32V44.29Zm.56,15.87V57.72H63v2.44Z"/><path class="cls-2" d="M69.57,57.08H66.91l-.41,3.08H63.59l2.65-15.87h1.63l.37,2.76-1,7.6h2Zm1.24-12.79,2.6,15.87H70.5L68.43,44.29Z"/><path class="cls-2" d="M77,44.29V60.16H74.16V44.29Zm2.8,9.12H77.47V51h2.28v-4.3H77.47v-2.4h2.75a2.65,2.65,0,0,1,2.3,2.15v3.79A1.69,1.69,0,0,1,80.91,52h0v.15a1.7,1.7,0,0,1,1.64,1.73v4a2.64,2.64,0,0,1-2.3,2.19H77.47V57.72h2.28Z"/><path class="cls-3" d="M86.41,40.5h-33l-.46,1.23-.65,1.62H80a3.57,3.57,0,0,1,3.56,3.57v10.6A3.56,3.56,0,0,1,80,61.08H55.78l.66,1.62.5,1.23H80.31a6.1,6.1,0,0,0,6.1-6.1Z"/><path class="cls-3" d="M50.42,58.29l-.66-1.63H20a3.56,3.56,0,0,1-3.56-3.56h0V42.43A3.55,3.55,0,0,1,20,38.88H42.62L42,37.24l-.47-1.17H19.69a6.1,6.1,0,0,0-6.1,6.1V59.51H50.92Z"/><path class="cls-2" d="M46.64,55.72h-3l2.92-7.11,1.5,3.64Zm2-12.24,1.19-3h2.91l-2.62,6.61Zm-6.55-7.41H45L56.32,63.93h-3Z"/></svg>