<svg xmlns="http://www.w3.org/2000/svg" viewBox="0 0 329.22 297.6"><defs><style>.cls-1{fill:#211700;}</style></defs><g id="Layer_2" data-name="Layer 2"><polygon class="cls-1" points="125.73 0 74.59 0 0 128.04 51.14 128.04 125.73 0"/><polygon class="cls-1" points="222.27 0 171.14 0 96.55 128.04 147.68 128.04 222.27 0"/><polygon class="cls-1" points="303.87 195.03 329.22 150.62 254.99 22.36 229.64 66.77 303.87 195.03"/><polygon class="cls-1" points="256.01 278.88 281.36 234.47 207.13 106.21 181.78 150.62 256.01 278.88"/><polygon class="cls-1" points="48.19 252.57 73.71 296.88 221.9 297.6 196.37 253.29 48.19 252.57"/><polygon class="cls-1" points="0 168.91 25.52 213.22 173.71 213.94 148.19 169.63 0 168.91"/></g></svg>