<?xml version="1.0" encoding="utf-8"?>
<!-- Generator: Adobe Illustrator 26.0.1, SVG Export Plug-In . SVG Version: 6.00 Build 0)  -->
<svg version="1.1" id="Layer_1" xmlns="http://www.w3.org/2000/svg" xmlns:xlink="http://www.w3.org/1999/xlink" x="0px" y="0px"
	 viewBox="0 0 30 30" style="enable-background:new 0 0 30 30;" xml:space="preserve">
<style type="text/css">
	.st0{fill-rule:evenodd;clip-rule:evenodd;}
</style>
<g>
	<path class="st0" d="M0,15C0.1,6.6,6.8-0.1,15,0c0,0,0,0,0,0c8.2-0.1,14.9,6.6,15,15c0,0,0,0,0,0c-0.1,8.4-6.8,15.1-15,15
		c0,0,0,0,0,0c-1.6,0-3.2-0.3-4.7-0.7c0.9-6,4.8-11,10.2-13.4c0.7,0.7,1.6,1.2,2.6,1.1c1.8,0,3.3-1.5,3.3-3.4c0-1.9-1.5-3.4-3.3-3.4
		s-3.3,1.5-3.3,3.4C13.4,15.4,8,20,5.1,26.1c-0.9-0.8-1.6-1.6-2.3-2.6C3,17.9,5.7,12.8,10.1,9.7c1.2,1.4,3.3,1.5,4.7,0.3
		c1.4-1.2,1.5-3.4,0.3-4.8c-1.2-1.4-3.3-1.5-4.7-0.3C9.6,5.5,9.2,6.4,9.2,7.4v0.3C5.4,9,2.1,11.7,0.1,15.4C0,15.4,0,15.2,0,15"/>
</g>
</svg>
