<svg id="Layer_1" data-name="Layer 1" xmlns="http://www.w3.org/2000/svg" viewBox="0 0 100 38.27"><defs><style>.cls-1{fill:#eb6040;}.cls-2{fill:#1a424e;}</style></defs><path class="cls-1" d="M14.41,8.68V30.47h-.62a3.54,3.54,0,0,1-3.16-3V11.72a3.54,3.54,0,0,1,3.16-3ZM18.62,12H15.17V8.68h4.1a3.6,3.6,0,0,1,3.16,3V27.43a3.6,3.6,0,0,1-3.16,3h-4.1V27.14h3.45Z" transform="translate(-5 -3.48)"/><path class="cls-1" d="M29.15,8.68l8.22,21.79H33.89L25.67,8.68Zm.29,12.15v9.64H25.67V10.83Zm4.16-2.51V8.68h3.77V28.32Z" transform="translate(-5 -3.48)"/><path class="cls-1" d="M44.47,8.68V30.47H40.7V8.68Z" transform="translate(-5 -3.48)"/><path class="cls-1" d="M67.45,14.77V36.56H63.68V14.77Zm.77,21.79V33.22h4.57v3.34Z" transform="translate(-5 -3.48)"/><path class="cls-1" d="M81.87,32.34H78.22l-.56,4.22h-4L77.3,14.77h2.24l.51,3.8L78.66,29h2.77Zm1.71-17.57,3.57,21.79h-4L80.31,14.77Z" transform="translate(-5 -3.48)"/><path class="cls-1" d="M92,14.77V36.56H88.18V14.77ZM95.85,27.3H92.72V24h3.13v-5.9H92.72v-3.3H96.5c1.32,0,3.15,1.59,3.15,2.95v5.21a2.33,2.33,0,0,1-2.24,2.45v.21A2.33,2.33,0,0,1,99.65,28v5.48a3.61,3.61,0,0,1-3.15,3H92.72V33.22h3.13Z" transform="translate(-5 -3.48)"/><path class="cls-2" d="M105,9.57H59.63L59,11.26l-.89,2.23H96.19a4.89,4.89,0,0,1,4.89,4.89V32.94a4.89,4.89,0,0,1-4.89,4.89H62.94l.9,2.23.69,1.69H96.62A8.38,8.38,0,0,0,105,33.37Z" transform="translate(-5 -3.48)"/><path class="cls-2" d="M55.57,34l-.9-2.24H13.81a4.89,4.89,0,0,1-4.89-4.89V12.22a4.88,4.88,0,0,1,4.89-4.88H44.86L44,5.1l-.65-1.62H13.38A8.38,8.38,0,0,0,5,11.86V35.67H56.26Z" transform="translate(-5 -3.48)"/><path class="cls-1" d="M50.39,30.47H46.27l4-9.76,2.06,5Zm2.79-16.81,1.63-4.09h4l-3.61,9.08Zm-9-10.18h4L63.68,41.75H59.56Z" transform="translate(-5 -3.48)"/></svg>