<svg id="Слой_1" data-name="Слой 1" xmlns="http://www.w3.org/2000/svg" viewBox="0 0 50 50"><defs><style>.cls-1{fill:#fff;stroke:#1a424e;stroke-miterlimit:10;}.cls-2{fill:#eb6040;}.cls-3{fill:none;}.cls-4{fill:#1a424e;}</style></defs><circle class="cls-1" cx="25" cy="25" r="24.5"/><path class="cls-2" d="M23,14.11V35.89h-.62a3.54,3.54,0,0,1-3.15-3V17.14a3.54,3.54,0,0,1,3.15-3Zm4.22,3.3H23.76v-3.3h4.1a3.6,3.6,0,0,1,3.15,3V32.86a3.6,3.6,0,0,1-3.15,3h-4.1V32.56h3.45Z"/><path class="cls-3" d="M32.49,32.28V17.72a4.89,4.89,0,0,0-4.89-4.89H21.7a4.88,4.88,0,0,0-4.19,4.82V32.28a4.89,4.89,0,0,0,4.89,4.89h5.2A4.89,4.89,0,0,0,32.49,32.28Z"/><path class="cls-4" d="M22,8.91a8.39,8.39,0,0,0-8.38,8.38v23.8H28a8.39,8.39,0,0,0,8.38-8.38V8.91Zm.43,28.26a4.89,4.89,0,0,1-4.89-4.89V17.65a4.88,4.88,0,0,1,4.19-4.82h5.9a4.89,4.89,0,0,1,4.89,4.89V32.28a4.89,4.89,0,0,1-4.89,4.89Z"/></svg>