<?xml version="1.0" encoding="utf-8"?>
<!-- Generator: Adobe Illustrator 26.0.1, SVG Export Plug-In . SVG Version: 6.00 Build 0)  -->
<svg version="1.1" id="Layer_1" xmlns="http://www.w3.org/2000/svg" xmlns:xlink="http://www.w3.org/1999/xlink" x="0px" y="0px"
	 viewBox="0 0 31.4 31.2" style="enable-background:new 0 0 31.4 31.2;" xml:space="preserve">
<style type="text/css">
	.st0{fill:#00A0FF;}
</style>
<g>
	<path class="st0" d="M17.7,2.6c0-1.1-0.9-2-2-2s-2,0.9-2,2V10c0,1.1,0.9,2,2,2s2-0.9,2-2V2.6z"/>
	<path class="st0" d="M31.3,11.8c-0.3-1.1-1.5-1.7-2.6-1.3l-7.1,2.3c-1.1,0.3-1.7,1.5-1.3,2.6c0.3,0.9,1.1,1.4,1.9,1.4
		c0.2,0,0.4,0,0.6-0.1l7.1-2.3C31,14.1,31.6,12.9,31.3,11.8z"/>
	<path class="st0" d="M21.4,21.3c-0.7-0.9-1.9-1.1-2.9-0.5c-0.9,0.7-1.1,1.9-0.5,2.9l4.4,6c0.4,0.6,1,0.8,1.7,0.8
		c0.4,0,0.8-0.1,1.2-0.4c0.9-0.7,1.1-1.9,0.5-2.9L21.4,21.3z"/>
	<path class="st0" d="M12.8,20.8c-0.9-0.7-2.2-0.5-2.9,0.5l-4.4,6C4.8,28.2,5,29.5,6,30.2c0.4,0.3,0.8,0.4,1.2,0.4
		c0.6,0,1.3-0.3,1.7-0.8l4.4-6C14,22.8,13.8,21.5,12.8,20.8z"/>
	<path class="st0" d="M9.1,16.8c0.9,0,1.7-0.5,1.9-1.4c0.3-1.1-0.2-2.2-1.3-2.6l-7-2.3c-1.1-0.3-2.2,0.2-2.6,1.3
		c-0.3,1.1,0.2,2.2,1.3,2.6l7.1,2.3C8.7,16.8,8.9,16.8,9.1,16.8z"/>
</g>
</svg>
