<?xml version="1.0" encoding="utf-8"?>
<!-- Generator: Adobe Illustrator 26.0.1, SVG Export Plug-In . SVG Version: 6.00 Build 0)  -->
<svg version="1.1" id="Layer_1" xmlns="http://www.w3.org/2000/svg" xmlns:xlink="http://www.w3.org/1999/xlink" x="0px" y="0px"
	 viewBox="0 0 30 30" style="enable-background:new 0 0 30 30;" xml:space="preserve">
<path d="M26.3,30c-0.1,0-0.2,0-0.4,0c-4.5-0.5-8.9-2-12.6-4.5c-3.5-2.2-6.5-5.3-8.8-8.8C2.1,12.9,0.5,8.5,0.1,4
	c-0.1-1,0.2-2,0.9-2.7C1.6,0.5,2.5,0.1,3.5,0c0.1,0,0.2,0,0.3,0H8c1.9,0,3.5,1.4,3.7,3.2c0.2,1.3,0.5,2.6,0.9,3.8
	c0.5,1.4,0.2,2.9-0.8,3.9l-1.3,1.3l0.2,0.3c1.7,2.7,4,5,6.7,6.6l0.3,0.2l1.3-1.3c0.7-0.7,1.7-1.1,2.6-1.1c0.4,0,0.9,0.1,1.3,0.2
	c1.2,0.5,2.5,0.8,3.8,0.9c1.9,0.3,3.3,1.9,3.2,3.8v4.2c0,1-0.4,1.9-1.1,2.6C28.3,29.6,27.3,30,26.3,30z M3.7,1.8
	c-0.6,0-1.1,0.3-1.4,0.7C2,2.9,1.8,3.4,1.9,3.9c0.4,4.2,1.9,8.3,4.2,11.9C8.2,19,11,21.9,14.3,24c3.6,2.3,7.6,3.8,11.9,4.2l0.1,0
	c0.6,0,1-0.2,1.4-0.6c0.4-0.4,0.6-0.9,0.6-1.4V22c0-1-0.7-1.8-1.7-2c-1.4-0.2-2.8-0.5-4.2-1c-0.2-0.1-0.4-0.1-0.7-0.1
	c-0.5,0-1,0.2-1.4,0.6l-1.8,1.8c-0.2,0.2-0.4,0.3-0.6,0.3c-0.2,0-0.3,0-0.4-0.1c-3.7-2.1-6.7-5.1-8.8-8.8c-0.2-0.4-0.1-0.8,0.1-1.1
	l1.8-1.8c0.5-0.5,0.7-1.3,0.4-2c-0.5-1.3-0.9-2.7-1-4.2C9.9,2.5,9,1.8,8.1,1.8L3.7,1.8L3.7,1.8z"/>
</svg>
