<svg id="Layer_1" data-name="Layer 1" xmlns="http://www.w3.org/2000/svg" viewBox="0 0 42.7 20.11"><path d="M0,10.85H5.12v1.39H5V20H3.42V12.24H1.7V20H.15V12.24H0Z" transform="translate(0.07 -0.01)"/><path d="M6.38,10.85h2.4a2.7,2.7,0,0,1,1.42.35,2.13,2.13,0,0,1,.87.89,3.18,3.18,0,0,1,.39,1.66,3.26,3.26,0,0,1-.39,1.64,2.23,2.23,0,0,1-.87.88,2.8,2.8,0,0,1-1.42.35H7.93V20H6.38Zm2.4,4.36a1.08,1.08,0,0,0,.53-.14,1.15,1.15,0,0,0,.39-.4,2,2,0,0,0,.22-.92,1.82,1.82,0,0,0-.22-1,1,1,0,0,0-.39-.4.89.89,0,0,0-.53-.13H7.93v3Z" transform="translate(0.07 -0.01)"/><path d="M12.39,13.47A3,3,0,0,1,12.75,12a2.2,2.2,0,0,1,.86-.85,3.1,3.1,0,0,1,2.87,0,2.2,2.2,0,0,1,.86.85,3,3,0,0,1,.36,1.52V17.4a3.14,3.14,0,0,1-.36,1.53,2.24,2.24,0,0,1-.86.84,3,3,0,0,1-2.87,0,2.24,2.24,0,0,1-.86-.84,3.14,3.14,0,0,1-.36-1.53Zm1.73,4.74a1,1,0,0,0,.88.54,1.18,1.18,0,0,0,.55-.14,1.09,1.09,0,0,0,.45-.4,1.76,1.76,0,0,0,.2-.81V13.47a1.5,1.5,0,0,0-.2-.81,1,1,0,0,0-.38-.39,1,1,0,0,0-.62-.13,1,1,0,0,0-.54.13,1,1,0,0,0-.38.39,1.73,1.73,0,0,0-.2.81V17.4A1.59,1.59,0,0,0,14.12,18.21Z" transform="translate(0.07 -0.01)"/><path d="M19,10.85h4.83v1.39h-3.3v2.14h2.54v1.37H20.55v2.89h3.3V20H19Z" transform="translate(0.07 -0.01)"/><path d="M25,10.85h1.54v3.63a22.24,22.24,0,0,0,1.28-1.93,3.9,3.9,0,0,0,.66-1.7h1.61a4,4,0,0,1-.65,1.72,21.39,21.39,0,0,1-1.22,1.82c1.33,2.8,2,4.67,2,5.63H28.66a15.09,15.09,0,0,0-1.35-4.5l-.8.9V20H25Z" transform="translate(0.07 -0.01)"/><path d="M31.22,10.85h5.11v1.39H34.55V20H33V12.24H31.22Z" transform="translate(0.07 -0.01)"/><path d="M37.46,10.85H39v3.67a19.46,19.46,0,0,1-.2,2.75v.37L41,10.85h1.63V20H41V16.35a20.79,20.79,0,0,1,.2-2.74v-.38L39.08,20H37.46Z" transform="translate(0.07 -0.01)"/><path d="M-.07,0H1.5V3.89H3.59V0H5.16V9.37H3.59V5.31H1.5V9.37H-.07Z" transform="translate(0.07 -0.01)"/><path d="M6.31,8.43A32.73,32.73,0,0,1,8.13,0H9.71a33.18,33.18,0,0,1,1.82,8.42v.94H10V8.43a9.38,9.38,0,0,0-.05-1h-2c0,.37,0,.71,0,1v.94H6.31ZM9.73,6c-.17-1.11-.44-2.44-.81-4-.38,1.54-.65,2.87-.82,4Z" transform="translate(0.07 -0.01)"/><path d="M12.68,0h1.38V8h.54V0H16V8h.55V0H17.9V9.37H12.68Z" transform="translate(0.07 -0.01)"/><path d="M19.88,8h1V1.42h-1V0h3.57V1.42h-1V8h1V9.37H19.88Z" transform="translate(0.07 -0.01)"/></svg>