<svg id="Layer_1" data-name="Layer 1" xmlns="http://www.w3.org/2000/svg" viewBox="0 0 42.58 9.37"><path d="M0,.1H5.12V1.49H5V9.27H3.42V1.49H1.7V9.27H.15V1.49H0Z"/><path d="M6.38.1h2.4A2.79,2.79,0,0,1,10.2.45a2.19,2.19,0,0,1,.87.89A3.17,3.17,0,0,1,11.46,3a3.24,3.24,0,0,1-.39,1.64,2.23,2.23,0,0,1-.87.88,2.7,2.7,0,0,1-1.42.35H7.93V9.27H6.38Zm2.4,4.36a1,1,0,0,0,.53-.14,1.07,1.07,0,0,0,.39-.4A1.93,1.93,0,0,0,9.92,3,1.83,1.83,0,0,0,9.7,2a1.07,1.07,0,0,0-.39-.4,1,1,0,0,0-.53-.13H7.93v3Z"/><path d="M12.39,2.72a3,3,0,0,1,.36-1.52,2.26,2.26,0,0,1,.86-.85,3.12,3.12,0,0,1,2.87,0,2.26,2.26,0,0,1,.86.85,3,3,0,0,1,.36,1.52V6.65a3.09,3.09,0,0,1-.36,1.53,2.24,2.24,0,0,1-.86.84A2.75,2.75,0,0,1,15,9.37,2.73,2.73,0,0,1,13.61,9a2.24,2.24,0,0,1-.86-.84,3.09,3.09,0,0,1-.36-1.53Zm1.73,4.74A1,1,0,0,0,15,8a1.07,1.07,0,0,0,.55-.14A1,1,0,0,0,16,7.46a1.73,1.73,0,0,0,.2-.81V2.72a1.57,1.57,0,0,0-.2-.81,1.09,1.09,0,0,0-.38-.39A1.09,1.09,0,0,0,15,1.39a1.05,1.05,0,0,0-.54.13,1,1,0,0,0-.38.39,1.79,1.79,0,0,0-.2.81V6.65A1.52,1.52,0,0,0,14.12,7.46Z"/><path d="M19,.1h4.83V1.49h-3.3V3.63h2.54V5H20.55V7.89h3.3V9.27H19Z"/><path d="M25,.1h1.54V3.73A20,20,0,0,0,27.82,1.8,3.9,3.9,0,0,0,28.48.1h1.61a4,4,0,0,1-.65,1.72,20,20,0,0,1-1.22,1.82q2,4.2,2,5.63H28.66a15.14,15.14,0,0,0-1.35-4.5l-.8.9v3.6H25Z"/><path d="M31.22.1h5.11V1.49H34.55V9.27H33V1.49H31.22Z"/><path d="M37.46.1H39V3.77a19.36,19.36,0,0,1-.2,2.75l0,.37L41,.1h1.63V9.27H41V5.6a20.8,20.8,0,0,1,.2-2.74l0-.38L39.08,9.27H37.46Z"/></svg>