<?xml version="1.0" standalone="no"?>
<!DOCTYPE svg PUBLIC "-//W3C//DTD SVG 1.1//EN" "http://www.w3.org/Graphics/SVG/1.1/DTD/svg11.dtd" >
<svg>
<metadata>
Created by FontForge 20090914 at Wed Dec 28 11:00:46 2022
 By www-data
Copyright (c) 2015-2016 Belleve Invis.
</metadata>
<defs>
<font id="Iosevka-Bold" horiz-adv-x="500" >
  <font-face 
    font-family="Iosevka"
    font-weight="700"
    font-stretch="normal"
    units-per-em="1000"
    panose-1="2 0 8 9 0 0 0 0 0 0"
    ascent="800"
    descent="-200"
    x-height="530"
    cap-height="735"
    bbox="-478 -439.999 570 1199"
    underline-thickness="0"
    underline-position="50"
    unicode-range="U+0020-U+FB02"
  />
<missing-glyph 
d="M45 0v735h410v-735h-410zM156 111h188v513h-188v-513z" />
    <glyph glyph-name=".notdef" 
d="M45 0v735h410v-735h-410zM156 111h188v513h-188v-513z" />
    <glyph glyph-name=".notdef" 
d="M45 0v735h410v-735h-410zM156 111h188v513h-188v-513z" />
    <glyph glyph-name="space" unicode=" " 
 />
    <glyph glyph-name="exclam" unicode="!" 
d="M162 80c0 18.667 4 34.667 12 48c6.66699 12 16 21.333 28 28c13.333 8 29.333 12 48 12s34.667 -4 48 -12c12 -6.66699 21.333 -16 28 -28c8 -13.333 12 -29.333 12 -48s-4 -34.667 -12 -48c-6.66699 -12 -16 -21.333 -28 -28c-13.333 -8 -29.333 -12 -48 -12
s-34.667 4 -48 12c-12 6.66699 -21.333 16 -28 28c-8 13.333 -12 29.333 -12 48zM188 240v495h124v-495h-124z" />
    <glyph glyph-name="quotedbl" unicode="&#x22;" 
d="M282 772h136c0 -108 -3 -215.333 -9 -322h-118c-6 106.667 -9 214 -9 322zM82 772h136c0 -108 -3 -215.333 -9 -322h-118c-6 106.667 -9 214 -9 322z" />
    <glyph glyph-name="numbersign" unicode="#" 
d="M45 105v111h72v231h-72v111h72v193h102v-193h62v193h102v-193h72v-111h-72v-231h72v-111h-72v-194h-102v194h-62v-194h-102v194h-72zM219 216h62v231h-62v-231z" />
    <glyph glyph-name="dollar" unicode="$" 
d="M40 155l121 23v-3c0 -12 3 -23.333 9 -34s14.667 -19.334 26 -26.001c14 -8 30.667 -12 50 -12c18.667 0 34.667 3.66699 48 11c11.333 6.66699 20.333 15.667 27 27c7.33301 12.667 11 26.667 11 42c0 18 -5 36 -15 54c-14.667 26 -49.667 55 -105 87
c-70 41.333 -116 81.666 -138 120.999c-19.333 33.333 -29 68.166 -29 104.499s8.66699 69.833 26 100.5c16 27.333 37.667 49 65 65c16 9.33301 33.333 16.333 52 21v102h124v-100c58 -11.333 100 -40 126 -86c13.333 -22.667 20.666 -46.667 21.999 -72l-121 -23v3
c0 12 -3 23.333 -9 34s-14.667 19.334 -26 26.001c-14 8 -30.667 12 -50 12c-18.667 0 -34.667 -3.66699 -48 -11c-11.333 -6.66699 -20.333 -15.667 -27 -27c-7.33301 -12.667 -11 -26.667 -11 -42c0 -18 5 -36 15 -54c14.667 -26 49.667 -55 105 -87
c70 -41.333 116 -81.666 138 -120.999c19.333 -33.333 29 -68.166 29 -104.499s-8.66699 -69.833 -26 -100.5c-16 -27.333 -37.667 -49 -65 -65c-16 -9.33301 -33.333 -16.333 -52 -21v-101h-124v99c-58 11.333 -100 40 -126 86c-13.333 22.667 -20.666 46.667 -21.999 72z
" />
    <glyph glyph-name="percent" unicode="%" 
d="M45 0h135l275 735h-135zM45 514v221h135v-221h-135zM320 0v220h135v-220h-135z" />
    <glyph glyph-name="ampersand" unicode="&#x26;" 
d="M37 201c0 36.667 9.66699 72.3301 29 106.997c12 21.333 32.667 45 62 71l-13 20c-33.333 57.333 -50 113 -50 167c0 38 8.33301 71.333 25 100c14 24 32.333 42.333 55 55c24.667 14.667 54.334 22 89.001 22s64.667 -7.33301 90 -22
c23.333 -13.333 41.666 -31.666 54.999 -54.999c16.667 -28.667 25 -61 25 -97s-9.66699 -71 -29 -105c-16.667 -28.667 -48 -60.667 -94 -96c18 -24 38.667 -49.667 62 -77v77h120v-158c0 -24 -2.33301 -46 -7 -66c26.667 -48.667 40 -96.667 40 -144h-120
c0 8.66699 -0.333008 17.334 -1 26.001l-10 -6c-32 -18.667 -70.333 -28 -115 -28s-83 9.33301 -115 28c-29.333 16.667 -52.333 39.334 -69 68.001c-19.333 34 -29 71.667 -29 113zM156 199.996c0 -21.333 5.00098 -40.333 15.001 -57c16.667 -28.667 43 -43 79 -43
c18 0 33.5 3.66699 46.5 11s23.5 18 31.5 32c-18 25.333 -44.667 56.333 -80 93l-53 58c-8.66699 -9.33301 -15.334 -18 -20.001 -26c-12.667 -22 -19 -44.667 -19 -68zM185.001 566.996c0 -31.333 12.332 -68.332 36.999 -110.999c20.667 19.333 35.334 36.333 44.001 51
c12 20.667 18 41.667 18 63c0 23.333 -6 41 -18 53c-8 8 -18.333 12 -31 12c-12 0 -22.333 -4 -31 -12c-12.667 -12.667 -19 -31.334 -19 -56.001z" />
    <glyph glyph-name="quotesingle" unicode="'" 
d="M182 772h136c0 -108 -3 -215.333 -9 -322h-118c-6 106.667 -9 214 -9 322z" />
    <glyph glyph-name="parenleft" unicode="(" 
d="M106.5 331.5c-0.333008 137.667 30.833 260.501 93.5 368.501c30.667 53.333 68 101.333 112 144l86 -79c-34 -34.667 -63.333 -73.334 -88 -116.001c-53.333 -92.667 -80 -198.667 -80 -318s26.667 -225.333 80 -318c24.667 -42 54 -80.333 88 -115l-86 -79
c-44 42.667 -81.333 90.667 -112 144c-62 108 -93.167 230.833 -93.5 368.5z" />
    <glyph glyph-name="parenright" unicode=")" 
d="M102 -102c34 34.667 63.334 73 88.001 115c53.333 92.667 80 198.667 80 318s-26.667 225.333 -80 318c-24.667 42 -54 80.667 -88 116l86 79c44 -42.667 81.333 -90.667 112 -144c62 -108 93.167 -230.833 93.5 -368.5s-30.834 -260.5 -93.501 -368.5
c-30.667 -53.333 -68 -101.333 -112 -144z" />
    <glyph glyph-name="asterisk" unicode="*" 
d="M31 593l38 106l128 -49l-9 141h124l-9 -141l128 49l38 -106l-138 -36l92 -113l-99 -65l-74 114l-74 -114l-99 65l92 113z" />
    <glyph glyph-name="plus" unicode="+" 
d="M45 281v101h149v175h112v-175h149v-101h-149v-175h-112v175h-149z" />
    <glyph glyph-name="comma" unicode="," 
d="M147 -147c22 25.333 40.334 51 55.001 77c12 21.333 21.667 42.333 29 63c-13.333 2 -25 6 -35 12c-13.333 7.33301 -23.666 17.666 -30.999 30.999c-8.66699 14.667 -13 32.5 -13 53.5s4.33301 39.167 13 54.5c7.33301 13.333 17.666 23.666 30.999 30.999
c14.667 8.66699 32.5 13 53.5 13s39.167 -4.33301 54.5 -13c13.333 -7.33301 23.666 -17.666 30.999 -30.999c8.66699 -15.333 13 -33.333 13 -54c0 -66.667 -19.333 -133.667 -58 -201c-18 -31.333 -40.333 -62.666 -67 -93.999z" />
    <glyph glyph-name="hyphen" unicode="-" 
d="M45 276v111h410v-111h-410z" />
    <glyph glyph-name="period" unicode="." 
d="M152 89.5c0 21 4.33301 39.167 13 54.5c7.33301 13.333 17.666 23.666 30.999 30.999c14.667 8.66699 32.5 13 53.5 13s39.167 -4.33301 54.5 -13c13.333 -7.33301 23.666 -17.666 30.999 -30.999c8.66699 -14.667 13 -32.5 13 -53.5s-4.33301 -39.167 -13 -54.5
c-7.33301 -13.333 -17.666 -23.666 -30.999 -30.999c-15.333 -8.66699 -33.333 -13 -54 -13s-38.667 4.33301 -54 13c-13.333 7.33301 -23.666 17.666 -30.999 30.999c-8.66699 14.667 -13 32.5 -13 53.5z" />
    <glyph glyph-name="slash" unicode="/" 
d="M45 -181l281 1025h129l-281 -1025h-129z" />
    <glyph glyph-name="zero" unicode="0" 
d="M37 220v295c0 51.333 10.333 95 31 131c17.333 30 40.666 53.333 69.999 70c31.333 18 68.666 27 111.999 27s80.666 -9 111.999 -27c29.333 -16.667 52.666 -40 69.999 -70c20.667 -36 31 -79.667 31 -131v-295c0 -51.333 -10.333 -95 -31 -131
c-17.333 -30 -40.666 -53.333 -69.999 -70c-31.333 -18 -68.666 -27 -111.999 -27s-80.666 9 -111.999 27c-29.333 16.667 -52.666 40 -69.999 70c-20.667 36 -31 79.667 -31 131zM160 325l175.001 232c-2.66699 12 -6.66699 23 -12 33c-8 14 -18.667 24.667 -32 32
c-11.333 6.66699 -25 10 -41 10s-29.667 -3.33301 -41 -10c-12.667 -7.33301 -23.334 -18 -32.001 -32c-11.333 -20 -17 -45 -17 -75v-190zM165.001 178c2.66699 -12 6.66602 -23 11.999 -33c8 -14 18.667 -24.667 32 -32c12 -6.66699 25.833 -10 41.5 -10
s29.167 3.33301 40.5 10c12.667 7.33301 23.334 18 32.001 32c11.333 20 17 45 17 75v190z" />
    <glyph glyph-name="one" unicode="1" 
d="M68 619l150 116h124v-735h-124v589l-75 -58z" />
    <glyph glyph-name="two" unicode="2" 
d="M40 580c4 24 11.9961 46.3301 23.9961 66.9971c16.667 28.667 39.334 51.334 68.001 68.001c32 18.667 70.333 28 115 28s83 -9.33301 115 -28c28.667 -16.667 51.334 -39.334 68.001 -68.001c19.333 -33.333 29 -70.333 29 -111c0 -39.333 -11 -78 -33 -116
c-18.667 -32 -55 -72 -109 -120c-54.667 -48 -91.667 -89 -111 -123c-10.667 -19.333 -19.334 -41.333 -26.001 -66h275v-111h-410v1c0 95.333 15 169 45 221c22.667 38.667 64.334 83.334 125.001 134.001c50 42 83 76.333 99 103c14.667 26 22 52 22 78
c0 20.667 -4.66699 38.667 -14 54c-16 27.333 -41 41 -75 41c-17.333 0 -32.166 -3.66699 -44.499 -11s-22.166 -17.666 -29.499 -30.999c-6.66699 -11.333 -11 -23.666 -13 -36.999z" />
    <glyph glyph-name="three" unicode="3" 
d="M40 155l119.001 29.9971c2.66699 -14.667 7.33398 -28 14.001 -40c8 -13.333 18 -24 30 -32c12 -6.66699 26 -10 42 -10s30 3.33301 42 10c12 7.33301 22 17.666 30 30.999c10 17.333 15 37.333 15 60c0 22 -5 41.667 -15 59c-9.33301 16.667 -22.333 29.667 -39 39
c-20 12 -49.667 17.667 -89 17v111c40 0 70.333 6 91 18c16 9.33301 28.667 22 38 38s14 33.667 14 53c0 20 -4.66699 37.667 -14 53c-15.333 26.667 -39.666 40 -72.999 40c-16.667 0 -31 -3.5 -43 -10.5s-21.667 -17.167 -29 -30.5
c-6.66699 -11.333 -11 -23.666 -13 -36.999l-120 26c4 24.667 12 47.334 24 68.001c16.667 28.667 39.334 51.334 68.001 68.001c31.333 18 69.166 27 113.499 27s82.166 -9 113.499 -27c28.667 -16.667 51 -39.334 67 -68.001c19.333 -33.333 29 -69.333 29 -108
c0 -34 -8 -65 -24 -93s-38.667 -50.333 -68 -67c-3.33301 -2 -7 -4 -11 -6c2.66699 -1.33301 5.66699 -2.66602 9 -3.99902c29.333 -17.333 52.333 -40.333 69 -69c17.333 -29.333 25.666 -62 24.999 -98c0 -41.333 -10 -79.666 -30 -114.999
c-16.667 -29.333 -39.667 -52.333 -69 -69c-31.333 -18 -68.5 -27 -111.5 -27s-80.167 9 -111.5 27c-28.667 16.667 -51.334 39.667 -68.001 69c-12 20.667 -20.333 43 -25 67z" />
    <glyph glyph-name="four" unicode="4" 
d="M37 183v111l195 441h151v-441h72v-111h-72v-183h-123v183h-223zM157 294h103v231z" />
    <glyph glyph-name="five" unicode="5" 
d="M40 155l116.001 39c3.33301 -16.667 8.66602 -32 15.999 -46c8.66699 -15.333 19.667 -27 33 -35c12 -6.66699 26 -10 42 -10c15.333 0 28.666 3.33301 39.999 10c12.667 7.33301 23.667 18.666 33 33.999c13.333 22.667 20 52.334 20 89.001s-6.66699 66.667 -20 90
c-8.66699 14.667 -19.334 25.334 -32.001 32.001c-10.667 6 -23 9 -37 9c-14.667 0 -27.667 -3.33301 -39 -10c-12.667 -7.33301 -23.667 -18.333 -33 -33c-6 -10 -10.333 -21 -13 -33l-111 49v395h379v-111h-255v-156c22 7.33301 46 10.666 72 9.99902
c40.667 0 76.334 -8.66699 107.001 -26c29.333 -16.667 53 -40.667 71 -72c22.667 -39.333 34 -87.666 34 -144.999c0 -56.667 -11.333 -104.334 -34 -143.001c-18 -31.333 -42 -55.666 -72 -72.999c-31.333 -18 -68 -27 -110 -27s-78.667 9 -110 27
c-30 17.333 -54 41.666 -72 72.999c-11.333 19.333 -19.666 40.333 -24.999 63z" />
    <glyph glyph-name="six" unicode="6" 
d="M37 220l-0.00195312 1.99902c0 136.667 24.667 247.667 74 333c36 62.667 84.333 111.334 145 146.001c24.667 14 50.334 25.333 77.001 34l37 -106c-14.667 -5.33301 -28.667 -12 -42 -20c-44.667 -26 -80.334 -62 -107.001 -108c-10 -18 -19 -37.333 -27 -58
c17.333 4 36 6 56 6c43.333 0 80.666 -9 111.999 -27c29.333 -16.667 52.666 -40 69.999 -70c20.667 -36 31 -79.667 31 -131v-1c0 -51.333 -10.333 -95 -31 -131c-17.333 -30 -40.666 -53.333 -69.999 -70c-31.333 -18 -68.666 -27 -111.999 -27s-80.666 9 -111.999 27
c-29.333 16.667 -52.666 40 -69.999 70c-20.667 36 -31 79.667 -31 131zM159.998 219.999c0 -30 5.66699 -55 17 -75c8 -14 18.667 -24.667 32 -32c12 -6.66699 25.833 -10 41.5 -10s29.167 3.33301 40.5 10c12.667 7.33301 23.334 18 32.001 32c11.333 20 17 45 17 75v1
c0 30 -5.66699 55 -17 75c-8 14 -18.667 24.667 -32 32c-12 6.66699 -25.833 10 -41.5 10s-29.167 -3.33301 -40.5 -10c-12.667 -7.33301 -23.334 -18 -32.001 -32c-11.333 -19.333 -17 -44.333 -17 -75v-1z" />
    <glyph glyph-name="seven" unicode="7" 
d="M45 624v111h410v-111l-229 -624h-132l229 624h-278z" />
    <glyph glyph-name="eight" unicode="8" 
d="M37 195c0 36 9.33398 70.332 28.001 102.999c16.667 29.333 43 56 79 80c-27.333 20.667 -48 43.334 -62 68.001c-18.667 32 -28 66 -28 102c0 39.333 9 74.666 27 105.999c15.333 26.667 36.666 48 63.999 64c29.333 16.667 64.333 25 105 25s75.667 -8.33301 105 -25
c26.667 -15.333 48 -36.666 64 -63.999c18 -31.333 27 -66.666 27 -105.999c0 -36 -9.33301 -70 -28 -102c-14 -24.667 -34.667 -47.334 -62 -68.001c36 -24 62.333 -50.667 79 -80c18.667 -32.667 28 -67 28 -103c0 -39.333 -9.33301 -75.333 -28 -108
c-16.667 -28 -39 -50.333 -67 -67c-32.667 -18.667 -72 -28 -118 -28s-85.333 9.33301 -118 28c-28.667 16.667 -51 39 -67 67c-18.667 32 -28 68 -28 108zM160.001 192.999c0 -18.667 4.33301 -34.999 13 -48.999c7.33301 -12.667 17 -22.334 29 -29.001
c13.333 -8 29.333 -12 48 -12s34.667 4 48 12c12 7.33301 21.667 17 29 29c8.66699 14.667 13 31 13 49c0 19.333 -5.33301 38 -16 56c-13.333 23.333 -38 45.333 -74 66c-36 -20.667 -60.667 -42.667 -74 -66c-10.667 -18 -16 -36.667 -16 -56zM177.001 550
c0 -19.333 5.33301 -38 16 -56c11.333 -20 30.333 -38.667 57 -56c26.667 17.333 45.667 36 57 56c10.667 18 16 36.667 16 56c0 18.667 -4 34.667 -12 48c-6 10.667 -14.167 19 -24.5 25s-22.5 9 -36.5 9s-26 -3 -36 -9s-18.333 -14.333 -25 -25c-8 -14 -12 -30 -12 -48z
" />
    <glyph glyph-name="nine" unicode="9" 
d="M37 477v38c0 51.333 10.333 95 31 131c17.333 30 40.666 53.333 69.999 70c31.333 18 68.333 27 111 27c41.333 0 77 -8.66699 107 -26s54 -41.666 72 -72.999c23.333 -40 35 -89.333 35 -148v-239c0 -65.333 -12.667 -119.666 -38 -162.999
c-19.333 -32.667 -44 -58 -74 -76c-30 -17.333 -65.167 -26 -105.5 -26s-75.5 8.66699 -105.5 26c-30.667 17.333 -55.667 42.666 -75 75.999c-10.667 18.667 -19 39 -25 61l112 47c4 -20 10.333 -37.333 19 -52c9.33301 -16.667 21 -29 35 -37
c11.333 -6.66699 24.333 -10 39 -10c14 0 26.667 3 38 9c13.333 7.33301 24.333 19.333 33 36c16 27.333 24 63.666 24 108.999v28c-8 -8 -17 -14.667 -27 -20c-18 -10.667 -40.667 -16 -68 -16c-40 0 -75.667 9 -107 27c-29.333 16.667 -52.666 40 -69.999 70
c-20.667 36 -31 79.667 -31 131zM160 477c0 -30.667 6.00195 -56 18.002 -76c8 -14 18 -24.333 30 -31c11.333 -6.66699 24.666 -10 39.999 -10c16 0 30.333 3.66699 43 11s23.334 18 32.001 32c11.333 20 17 44.667 17 74v19c0 38.667 -7 69.667 -21 93
c-8.66699 14.667 -19.334 26 -32.001 34c-10.667 6 -23.334 9 -38.001 9c-15.333 0 -29 -3.33301 -41 -10c-12.667 -7.33301 -23 -18 -31 -32c-11.333 -20 -17 -45 -17 -75v-38z" />
    <glyph glyph-name="colon" unicode=":" 
d="M152 439.5c0 21 4.33301 39.167 13 54.5c7.33301 13.333 17.666 23.666 30.999 30.999c14.667 8.66699 32.5 13 53.5 13s39.167 -4.33301 54.5 -13c13.333 -7.33301 23.666 -17.666 30.999 -30.999c8.66699 -14.667 13 -32.5 13 -53.5s-4.33301 -39.167 -13 -54.5
c-7.33301 -13.333 -17.666 -23.666 -30.999 -30.999c-15.333 -8.66699 -33.333 -13 -54 -13s-38.667 4.33301 -54 13c-13.333 7.33301 -23.666 17.666 -30.999 30.999c-8.66699 14.667 -13 32.5 -13 53.5zM152 89.5c0 21 4.33301 39.167 13 54.5
c7.33301 13.333 17.666 23.666 30.999 30.999c14.667 8.66699 32.5 13 53.5 13s39.167 -4.33301 54.5 -13c13.333 -7.33301 23.666 -17.666 30.999 -30.999c8.66699 -14.667 13 -32.5 13 -53.5s-4.33301 -39.167 -13 -54.5
c-7.33301 -13.333 -17.666 -23.666 -30.999 -30.999c-15.333 -8.66699 -33.333 -13 -54 -13s-38.667 4.33301 -54 13c-13.333 7.33301 -23.666 17.666 -30.999 30.999c-8.66699 14.667 -13 32.5 -13 53.5z" />
    <glyph glyph-name="semicolon" unicode=";" 
d="M147 -147c22 25.333 40.334 51 55.001 77c12 21.333 21.667 42.333 29 63c-13.333 2 -25 6 -35 12c-13.333 7.33301 -23.666 17.666 -30.999 30.999c-8.66699 14.667 -13 32.5 -13 53.5s4.33301 39.167 13 54.5c7.33301 13.333 17.666 23.666 30.999 30.999
c14.667 8.66699 32.5 13 53.5 13s39.167 -4.33301 54.5 -13c13.333 -7.33301 23.666 -17.666 30.999 -30.999c8.66699 -15.333 13 -33.333 13 -54c0 -66.667 -19.333 -133.667 -58 -201c-18 -31.333 -40.333 -62.666 -67 -93.999zM152.001 439.5
c0 21 4.33301 39.167 13 54.5c7.33301 13.333 17.666 23.666 30.999 30.999c14.667 8.66699 32.5 13 53.5 13s39.167 -4.33301 54.5 -13c13.333 -7.33301 23.666 -17.666 30.999 -30.999c8.66699 -14.667 13 -32.5 13 -53.5s-4.33301 -39.167 -13 -54.5
c-7.33301 -13.333 -17.666 -23.666 -30.999 -30.999c-15.333 -8.66699 -33.333 -13 -54 -13s-38.667 4.33301 -54 13c-13.333 7.33301 -23.666 17.666 -30.999 30.999c-8.66699 14.667 -13 32.5 -13 53.5z" />
    <glyph glyph-name="less" unicode="&#x3c;" 
d="M45 272v119l380 239l60 -85l-344 -214l344 -213l-60 -86z" />
    <glyph glyph-name="equal" unicode="=" 
d="M45 168v101h410v-101h-410zM45 394v101h410v-101h-410z" />
    <glyph glyph-name="greater" unicode="&#x3e;" 
d="M15 118l344 213l-344 214l60 85l380 -239v-119l-380 -240z" />
    <glyph glyph-name="question" unicode="?" 
d="M40 580c1.33301 25.333 8.66602 49.332 21.999 71.999c15.333 26.667 36 47.334 62 62.001c33.333 19.333 74 29 122 29c46.667 0 86.334 -9.33301 119.001 -28c27.333 -16 49 -37.333 65 -64c17.333 -29.333 25.666 -61.666 24.999 -96.999c0 -36 -9.66699 -71 -29 -105
c-9.33301 -16 -26 -37.667 -50 -65c-22.667 -26 -37.667 -45.333 -45 -58c-13.333 -22.667 -19.666 -51.334 -18.999 -86.001h-124c0 52 9.33301 94 28 126c8.66699 15.333 24.667 36.333 48 63s39.333 47.334 48 62.001c13.333 22.667 20 44.667 20 66
c0 28.667 -11.667 49.667 -35 63c-14 8 -30.667 12 -50 12c-20 0 -37 -4 -51 -12c-11.333 -6.66699 -20 -15.334 -26 -26.001c-6 -10 -9 -21 -9 -33v-3zM162 79.999c0 18.667 4 34.667 12 48c6.66699 12 16 21.333 28 28c13.333 8 29.333 12 48 12s34.667 -4 48 -12
c12 -6.66699 21.333 -16 28 -28c8 -13.333 12 -29.333 12 -48s-4 -34.667 -12 -48c-6.66699 -12 -16 -21.333 -28 -28c-13.333 -8 -29.333 -12 -48 -12s-34.667 4 -48 12c-12 6.66699 -21.333 16 -28 28c-8 13.333 -12 29.333 -12 48z" />
    <glyph glyph-name="at" unicode="@" 
d="M45 29l-0.000976562 604.999c0 48.667 10 90 30 124c16.667 28.667 39 51.334 67 68.001c30 17.333 66 26 108 26s78 -8.66699 108 -26c28 -16 50.333 -38.667 67 -68c20 -34 30 -75.333 30 -124v-465c0 -38 -7.33301 -69.667 -22 -95
c-10.667 -18.667 -25 -33.334 -43 -44.001c-16.667 -10 -36.667 -14.667 -60 -14c-25.333 0 -47.333 5.33301 -66 16s-33.667 26 -45 46c-14 24.667 -21.333 55 -22 91v273c0 36 7 66.333 21 91c24 42 61.667 63 113 63h21v38c0 23.333 -4.66699 43.333 -14 60
c-8 14 -19 25.333 -33 34c-15.333 8.66699 -33.666 13 -54.999 13s-39.666 -4.33301 -54.999 -13c-14 -8 -25 -19.333 -33 -34c-9.33301 -16.667 -14 -36.667 -14 -60v-605c0 -23.333 4.66699 -43.666 14 -60.999c8 -14 19 -25 33 -33
c15.333 -8.66699 33.666 -13 54.999 -13h150v-111h-150c-42 0 -78.333 8.66699 -109 26c-28 16 -50 38.333 -66 67c-20 34 -30 75.667 -30 125zM299.999 168.999c0 -26 5 -44 15 -54c4.66699 -4.66699 9.66699 -7 15 -7c4 0 7 1.33301 9 4c8.66699 8.66699 13 27.667 13 57
v334h-21c-6 0 -11.333 -2.33301 -16 -7c-10 -10 -15 -28 -15 -54v-273z" />
    <glyph glyph-name="A" unicode="A" 
d="M45 0v74c0 133.333 47.667 353.666 143 660.999h124c95.333 -307.333 143 -527.666 143 -660.999v-74h-123v74c0 24 -1.33301 50.667 -4 80h-156c-2.66699 -29.333 -4 -56 -4 -80v-74h-123zM186 265h127.998c-13.333 87.333 -34.666 191.666 -63.999 312.999
c-29.333 -121.333 -50.666 -225.666 -63.999 -312.999z" />
    <glyph glyph-name="B" unicode="B" 
d="M45 0l0.000976562 735h204c39.333 0 73.333 -8.33301 102 -25c26 -14.667 46.667 -35.667 62 -63c18.667 -32 28 -70 28 -114c0 -36.667 -7.66699 -68 -23 -94c-12.667 -22 -30 -40 -52 -54c32 -16 56.333 -39 73 -69c16 -27.333 24 -60.333 24 -99
c0 -46 -9.66699 -86 -29 -120c-16.667 -29.333 -39.667 -52.333 -69 -69c-32.667 -18.667 -71.334 -28 -116.001 -28h-204zM168.001 111h81c34 0 59.333 14 76 42c10 17.333 15 39 15 65s-5.33301 48 -16 66c-16.667 28 -41.667 42.333 -75 43h-81v-216zM168.001 438
l81 0.000976562c11.333 0 21.666 2.33301 30.999 7c9.33301 5.33301 17 13.666 23 24.999c9.33301 16 14 36.333 14 61c0 24 -4.66699 44.333 -14 61c-6 10.667 -13.667 18.667 -23 24s-19.666 8 -30.999 8h-81v-186z" />
    <glyph glyph-name="C" unicode="C" 
d="M37 210l0.00195312 314.998c0 47.333 9.66699 88 29 122c16.667 28.667 39.667 51.334 69 68.001c32 18.667 70.667 28 116 28s84 -9.33301 116 -28c28.667 -16.667 51.667 -39.667 69 -69c12 -20.667 20 -42.667 24 -66l-119 -28c-2 13.333 -6.33301 25.666 -13 36.999
c-8 13.333 -18.333 24 -31 32c-12.667 7.33301 -28 11 -46 11c-17.333 0 -32.333 -3.66699 -45 -11s-22.667 -17.666 -30 -30.999c-10 -17.333 -15.333 -39 -16 -65v-315c0 -26 5.33301 -47.667 16 -65c8 -13.333 18.167 -23.666 30.5 -30.999s27.166 -11 44.499 -11
s32.666 3.66699 45.999 11c12.667 7.33301 23 18 31 32c6.66699 11.333 11 23.666 13 36.999l119 -28c-4.66699 -24 -12.667 -46 -24 -66c-16.667 -29.333 -39.667 -52.333 -69 -69c-32 -18.667 -70.667 -28 -116 -28s-84 9.33301 -116 28
c-28.667 16.667 -51.667 39.334 -69 68.001c-19.333 34 -29 74.667 -29 122z" />
    <glyph glyph-name="D" unicode="D" 
d="M45 0v735h179c45.333 0 85 -10 119 -30c32.667 -18.667 59.334 -46 80.001 -82c26.667 -46 40 -103 40 -171v-168c0 -68 -13.333 -125.333 -40 -172c-20.667 -36 -47.334 -63.333 -80.001 -82c-34 -20 -73.667 -30 -119 -30h-179zM168 111l56 0.000976562
c18 0 34.333 4 49 12c16 9.33301 29.333 23.666 40 42.999c17.333 30.667 26.333 70 27 118v168c0 48 -9 87 -27 117c-10.667 18.667 -24 33 -40 43c-14.667 8 -31 12 -49 12h-56v-513z" />
    <glyph glyph-name="E" unicode="E" 
d="M68 0v735h387v-111h-264v-172h203v-111h-203v-230h264v-111h-387z" />
    <glyph glyph-name="F" unicode="F" 
d="M68 0v735h387v-111h-264v-172h203v-111h-203v-341h-123z" />
    <glyph glyph-name="G" unicode="G" 
d="M37 210l0.000976562 314.998c0 47.333 9.66699 88 29 122c16.667 28.667 39.667 51.334 69 68.001c32 18.667 70.667 28 116 28s84 -9.33301 116 -28c28.667 -16.667 51.667 -39.667 69 -69c12 -20.667 20 -42.667 24 -66l-119 -28c-2 13.333 -6.33301 25.666 -13 36.999
c-8 13.333 -18.333 24 -31 32c-12.667 7.33301 -28 11 -46 11c-17.333 0 -32.333 -3.66699 -45 -11s-22.667 -17.666 -30 -30.999c-10 -17.333 -15.333 -39 -16 -65v-315c0 -26 5.33301 -47.667 16 -65c8 -13.333 18.167 -23.666 30.5 -30.999s26.5 -11 42.5 -11
c14.667 0 27.667 3 39 9c11.333 6.66699 20.666 16.667 27.999 30c10.667 18 16 40.667 16 68v89h-82v111h205v-200c0 -48.667 -10 -90 -30 -124c-16.667 -28.667 -39 -51.334 -67 -68.001c-30 -17.333 -66.333 -26 -109 -26c-44.667 0 -82.667 9.33301 -114 28
c-29.333 16.667 -52.333 39.334 -69 68.001c-19.333 34 -29 74.667 -29 122z" />
    <glyph glyph-name="H" unicode="H" 
d="M45 0v735h123v-305h164v305h123v-735h-123v319h-164v-319h-123z" />
    <glyph glyph-name="I" unicode="I" 
d="M110 0v111h78v513h-78v111h280v-111h-78v-513h78v-111h-280z" />
    <glyph glyph-name="J" unicode="J" 
d="M29 155l119.001 29.999c2 -17.333 6.66699 -32.666 14 -45.999c7.33301 -12.667 16.333 -22 27 -28c9.33301 -5.33301 20.333 -8 33 -8c12 0 23 2.66699 33 8c10.667 6 19.334 15 26.001 27c10.667 18.667 16 42.667 16 72v414h-113v111h236v-525
c0 -50 -10 -92.333 -30 -127c-16 -28 -37.667 -50 -65 -66c-28.667 -16.667 -62.834 -25 -102.501 -25s-73.834 8.33301 -102.501 25c-27.333 16 -49.333 38 -66 66c-12.667 22 -21 46 -25 72z" />
    <glyph glyph-name="K" unicode="K" 
d="M45 0v735.001h123v-291c41.333 54 76.333 105.667 105 155c35.333 60 53 105.333 53 136h129c0 -32 -17.333 -78 -52 -138c-27.333 -46.667 -60 -95.334 -98 -146.001c105.333 -224 158 -374.333 158 -451h-123c0 64 -36 184.333 -108 361l-64 -72v-289h-123z" />
    <glyph glyph-name="L" unicode="L" 
d="M68 0v735h123v-624h272v-111h-395z" />
    <glyph glyph-name="M" unicode="M" 
d="M45 0l0.000976562 735h104l101 -379l101 379h104v-735h-123v147c0 92 8.33301 190 25 294c6 35.333 11 69.666 15 102.999l-86 -324h-72l-86 324c4 -33.333 9 -67.666 15 -102.999c17.333 -104 25.666 -202 24.999 -294v-147h-123z" />
    <glyph glyph-name="N" unicode="N" 
d="M45 0v735h130l177 -544l-4 30c-11.333 78 -16.666 151.333 -15.999 220v294h123v-735h-130l-177 544l4 -30c11.333 -78 16.666 -151.333 15.999 -220v-294h-123z" />
    <glyph glyph-name="O" unicode="O" 
d="M37 210v315c0 47.333 9.66699 88 29 122c16.667 28.667 39.667 51.334 69 68.001c32 18.667 70.333 28 115 28s83 -9.33301 115 -28c29.333 -16.667 52.333 -39.334 69 -68.001c19.333 -34 29 -74.667 29 -122v-315c0 -47.333 -9.66699 -88 -29 -122
c-16.667 -28.667 -39.667 -51.334 -69 -68.001c-32 -18.667 -70.333 -28 -115 -28s-83 9.33301 -115 28c-29.333 16.667 -52.333 39.334 -69 68.001c-19.333 34 -29 74.667 -29 122zM160 210c0 -26 5.33301 -47.667 16 -65c8 -13.333 18.167 -23.666 30.5 -30.999
s26.833 -11 43.5 -11s31.334 3.66699 44.001 11s22.667 17.666 30 30.999c10 17.333 15.333 39 16 65v315c0 26 -5.33301 47.667 -16 65c-8 13.333 -18.167 23.666 -30.5 30.999s-26.833 11 -43.5 11s-31.334 -3.66699 -44.001 -11s-22.667 -17.666 -30 -30.999
c-10 -17.333 -15.333 -39 -16 -65v-315z" />
    <glyph glyph-name="P" unicode="P" 
d="M56 0v735.002h192c44 0 82 -9.33301 114 -28c29.333 -16.667 52.666 -40.334 69.999 -71.001c20.667 -36 31 -79.667 31 -131s-10.333 -95 -31 -131c-17.333 -30.667 -40.666 -54.334 -69.999 -71.001c-32 -18.667 -70 -28 -114 -28h-68v-275h-124zM180 386.002h68.001
c16 0 30.333 3.66699 43 11s23 18 31 32c11.333 20 17.166 45.333 17.499 76s-5.5 56 -17.5 76c-8 14 -18.333 24.667 -31 32s-27 11 -43 11h-68v-238z" />
    <glyph glyph-name="Q" unicode="Q" 
d="M37 210v315c0 47.333 9.66699 88 29 122c16.667 28.667 39.667 51.334 69 68.001c32 18.667 70.333 28 115 28s83 -9.33301 115 -28c29.333 -16.667 52.333 -39.334 69 -68.001c19.333 -34 29 -74.667 29 -122v-315c0 -47.333 -9.66699 -88 -29 -122
c-16.667 -28.667 -39.667 -51.334 -69 -68.001c-6 -3.33301 -12 -6.33301 -18 -9l37 -158h-123l-36 140c-34 2.66699 -64 11.667 -90 27c-29.333 16.667 -52.333 39.334 -69 68.001c-19.333 34 -29 74.667 -29 122zM160 210c0 -26 5.33301 -47.667 16 -65
c8 -13.333 18.167 -23.666 30.5 -30.999s26.833 -11 43.5 -11s31.334 3.66699 44.001 11s22.667 17.666 30 30.999c10 17.333 15.333 39 16 65v315c0 26 -5.33301 47.667 -16 65c-8 13.333 -18.167 23.666 -30.5 30.999s-26.833 11 -43.5 11s-31.334 -3.66699 -44.001 -11
s-22.667 -17.666 -30 -30.999c-10 -17.333 -15.333 -39 -16 -65v-315z" />
    <glyph glyph-name="R" unicode="R" 
d="M45 0l0.00195312 735.002h203c44 0 82 -9.33301 114 -28c29.333 -16.667 52.666 -40.334 69.999 -71.001c20.667 -36 31 -79.667 31 -131s-10.333 -95 -31 -131c-17.333 -30.667 -40.666 -54.334 -69.999 -71.001c-4.66699 -2.66699 -9.33398 -5 -14.001 -7
c13.333 -20 25.666 -40 36.999 -60c52 -90 78 -168.667 78 -236h-123c0 52 -20 112.667 -60 182c-17.333 30 -38 61 -62 93h-50v-275h-123zM168.002 386.002h80.001c16 0 30.333 3.66699 43 11s23 18 31 32c11.333 20 17.166 45.333 17.499 76s-5.5 56 -17.5 76
c-8 14 -18.333 24.667 -31 32s-27 11 -43 11h-80v-238z" />
    <glyph glyph-name="S" unicode="S" 
d="M40 155l121 23v-3c0 -12 3 -23.333 9 -34s14.667 -19.334 26 -26.001c14 -8 30.667 -12 50 -12c18.667 0 34.667 3.66699 48 11c11.333 6.66699 20.333 15.667 27 27c7.33301 12.667 11 26.667 11 42c0 18 -5 36 -15 54c-14.667 26 -49.667 55 -105 87
c-70 41.333 -116 81.666 -138 120.999c-19.333 33.333 -29 68.166 -29 104.499s8.66699 69.833 26 100.5c16 27.333 37.667 49 65 65c32.667 18.667 72 28 118 28c48 0 88.667 -9.66699 122 -29c26 -15.333 46.667 -36 62 -62c13.333 -22.667 20.666 -46.667 21.999 -72
l-121 -23v3c0 12 -3 23.333 -9 34s-14.667 19.334 -26 26.001c-14 8 -30.667 12 -50 12c-18.667 0 -34.667 -3.66699 -48 -11c-11.333 -6.66699 -20.333 -15.667 -27 -27c-7.33301 -12.667 -11 -26.667 -11 -42c0 -18 5 -36 15 -54c14.667 -26 49.667 -55 105 -87
c70 -41.333 116 -81.666 138 -120.999c19.333 -33.333 29 -68.166 29 -104.499s-8.66699 -69.833 -26 -100.5c-16 -27.333 -37.667 -49 -65 -65c-32.667 -18.667 -72 -28 -118 -28c-48 0 -88.667 9.66699 -122 29c-26 15.333 -46.667 36 -62 62
c-13.333 22.667 -20.666 46.667 -21.999 72z" />
    <glyph glyph-name="T" unicode="T" 
d="M45 624v111h410v-111h-143v-624h-124v624h-143z" />
    <glyph glyph-name="U" unicode="U" 
d="M45 210l0.00292969 525.001h123v-525c0 -27.333 5.33301 -50 16 -68c7.33301 -12.667 16.666 -22.667 27.999 -30c10.667 -6 23.167 -9 37.5 -9s27.166 3 38.499 9c11.333 6.66699 20.666 16.667 27.999 30c10.667 18 16 40.667 16 68v525h123v-525
c0 -48.667 -10 -90 -30 -124c-16.667 -28.667 -39 -51.334 -67 -68.001c-30 -17.333 -66 -26 -108 -26s-78 8.66699 -108 26c-28 16 -50.333 38.667 -67 68c-20 34 -30 75.333 -30 124z" />
    <glyph glyph-name="V" unicode="V" 
d="M45 662v73h123v-73c0 -108 27.333 -276.333 82 -505c54.667 228.667 82 397 82 505v73h123v-73c0 -133.333 -47.667 -354 -143 -662h-124c-95.333 308 -143 528.667 -143 662z" />
    <glyph glyph-name="W" unicode="W" 
d="M45 551v184.001h123v-184c0 -78 2 -191.333 6 -340l46 230h60l46 -230c4 149.333 6 262.666 6 339.999v184h123v-184c0 -111.333 -29.333 -295 -88 -551h-59l-58 290l-58 -290h-59c-58.667 256 -88 439.667 -88 551z" />
    <glyph glyph-name="X" unicode="X" 
d="M45 0v37c0 71.333 22 143.333 66 216l69 115l-69 114c-44 73.333 -66 145.333 -66 216v37h123v-37c0 -52.667 16.333 -105.667 49 -159l33 -55l33 55c32.667 54 49 107 49 159v37h123v-37c0 -71.333 -22 -143.333 -66 -216l-69 -114l69 -115
c44 -73.333 66 -145.333 66 -216v-37h-123v37c0 52.667 -16.333 105.667 -49 159l-33 55l-33 -55c-32.667 -54 -49 -107 -49 -159v-37h-123z" />
    <glyph glyph-name="Y" unicode="Y" 
d="M45 691v44h123v-44c0 -66 17 -133 51 -201l31 -61l31 61c34 67.333 51 134.333 51 201v44h123v-44c0 -82 -21.333 -165.333 -64 -250l-79 -159v-282h-124v282l-79 159c-42.667 84.667 -64 168 -64 250z" />
    <glyph glyph-name="Z" unicode="Z" 
d="M45 0v111l268 513h-268v111h410v-111l-268 -513h268v-111h-410z" />
    <glyph glyph-name="bracketleft" unicode="[" 
d="M106 -181v1025h308v-111h-184v-803h184v-111h-308z" />
    <glyph glyph-name="backslash" unicode="\" 
d="M45 844l281 -1025h129l-281 1025h-129z" />
    <glyph glyph-name="bracketright" unicode="]" 
d="M86 -70h184v803h-184v111h308v-1025h-308v111z" />
    <glyph glyph-name="asciicircum" unicode="^" 
d="M7 589l178 204h130l178 -204l-101 -73l-142 190l-142 -190z" />
    <glyph glyph-name="underscore" unicode="_" 
d="M45 0v111h410v-111h-410z" />
    <glyph glyph-name="grave" unicode="`" 
d="M66 722l95 87l212 -226l-79 -71z" />
    <glyph glyph-name="a" unicode="a" 
d="M37 158c0 32.667 6.66895 60.3311 20.002 82.998c14.667 24.667 35.667 45 63 61c38.667 22.667 88.667 34.334 150 35.001h62v20c0 12.667 -3 24 -9 34s-14 18 -24 24c-14 8 -31.333 12 -52 12s-38 -4 -52 -12c-11.333 -6.66699 -20.333 -15.667 -27 -27
c-4 -6.66699 -6.66699 -13.667 -8 -21l-118 33c3.33301 16 9.66602 31.333 18.999 46c15.333 26.667 36.333 47.667 63 63c32.667 19.333 73.667 29 123 29s90.666 -9.66699 123.999 -29c26.667 -15.333 47.334 -35.666 62.001 -60.999s22 -55.666 22 -90.999v-357h-123v63
c-14 -20.667 -31.667 -37.334 -53 -50.001c-24.667 -14 -53 -21 -85 -21c-32.667 0 -60.334 6.66699 -83.001 20c-21.333 12.667 -38.333 30 -51 52c-15.333 26.667 -23 58 -23 94zM160.002 158.997c0 -14 4.66602 -25.667 13.999 -35c14 -14 35 -21 63 -21
c20 0 37.333 4.33301 52 13c12.667 7.33301 22.667 17.333 30 30c8.66699 14.667 13 32 13 52v28h-62c-32.667 0 -58.667 -5.66699 -78 -17c-11.333 -6.66699 -19.666 -14.667 -24.999 -24c-4.66699 -7.33301 -7 -16 -7 -26z" />
    <glyph glyph-name="b" unicode="b" 
d="M45 0v735h123v-270c14.667 24.667 33 43 55 55c20 12 43.667 18 71 18c28.667 0 54 -6.33301 76 -19c24 -14 43.667 -34.333 59 -61c22.667 -38.667 34 -88 34 -148v-90c0 -60 -11.333 -109.333 -34 -148c-15.333 -26.667 -35 -47 -59 -61
c-22 -12.667 -47.333 -19 -76 -19c-27.333 0 -51 6 -71 18c-22 12.667 -40.333 31 -55 55v-65h-123zM168 220c0 -32 6 -58 18 -78c8 -13.333 17.667 -23.333 29 -30c10 -6 22 -9 36 -9c15.333 0 28.666 3.33301 39.999 10c12.667 7.33301 23.334 18 32.001 32
c11.333 20 17 45 17 75v90c0 30 -5.66699 55 -17 75c-8 14 -18.667 24.667 -32 32c-12 6.66699 -25.333 10 -40 10c-14 0 -26 -3 -36 -9c-11.333 -6.66699 -21 -16.667 -29 -30c-12 -20 -18 -46 -18 -78v-90z" />
    <glyph glyph-name="c" unicode="c" 
d="M37 220l0.00195312 90c0 50.667 10.333 94 31 130c17.333 30 40.666 53.333 69.999 70c32 18.667 70 28 114 28s81.667 -9.33301 113 -28c29.333 -16.667 52.666 -40 69.999 -70c11.333 -20 19.666 -41.667 24.999 -65l-118 -32c-2.66699 14.667 -7.33398 28 -14.001 40
c-8 14.667 -18.667 25.667 -32 33c-12.667 7.33301 -27.334 11 -44.001 11c-16 0 -30.333 -3.66699 -43 -11s-23.334 -18 -32.001 -32c-11.333 -20 -17 -44.667 -17 -74v-90c0 -30 5.66699 -54.667 17 -74c8 -14 18.667 -24.667 32 -32c12 -7.33301 26.333 -11 43 -11
s31.334 3.66699 44.001 11c13.333 7.33301 24 18.333 32 33c6.66699 12 11.334 25.333 14.001 40l118 -32c-4.66699 -23.333 -13 -45 -25 -65c-17.333 -30 -40.666 -53.333 -69.999 -70c-32 -18.667 -69.833 -28 -113.5 -28s-81.5 9.33301 -113.5 28
c-29.333 16.667 -52.666 40 -69.999 70c-20.667 36 -31 79.333 -31 130z" />
    <glyph glyph-name="d" unicode="d" 
d="M37 220v90c0 60 11.333 109.333 34 148c15.333 26.667 35 47 59 61c22 12.667 47.333 19 76 19c27.333 0 51 -6 71 -18c22 -12.667 40.333 -31 55 -55v270h123v-735h-123v65c-14.667 -24.667 -33 -43 -55 -55c-20 -12 -43.667 -18 -71 -18c-28.667 0 -54 6.33301 -76 19
c-24 14 -43.667 34.333 -59 61c-22.667 38.667 -34 88 -34 148zM160 220c0 -30 5.66699 -55 17 -75c8 -14 18.667 -24.667 32 -32c12 -6.66699 25.333 -10 40 -10c14 0 26 3 36 9c11.333 6.66699 21 16.667 29 30c12 20 18 46 18 78v90c0 32 -6 58 -18 78
c-8 13.333 -17.667 23.333 -29 30c-10 6 -22 9 -36 9c-15.333 0 -28.666 -3.33301 -39.999 -10c-12.667 -7.33301 -23.334 -18 -32.001 -32c-11.333 -20 -17 -45 -17 -75v-90z" />
    <glyph glyph-name="e" unicode="e" 
d="M37 220l0.00488281 90.001c0 51.333 10.333 95 31 131c17.333 30 40.666 53.333 69.999 70c31.333 18 68.666 27 111.999 27s80.666 -9 111.999 -27c29.333 -16.667 52.666 -40 69.999 -70c20.667 -36 31 -79.667 31 -131v-100h-302
c1.33301 -24 6.66602 -44.667 15.999 -62c8.66699 -14.667 19.667 -25.667 33 -33c13.333 -8 29 -12 47 -12c18.667 0 35.334 4 50.001 12c14 8 25 19.333 33 34c4 7.33301 7.33301 15 10 23l114 -42c-4.66699 -13.333 -10.334 -26 -17.001 -38
c-17.333 -30.667 -41 -54.334 -71 -71.001c-33.333 -19.333 -73 -29 -119 -29s-85.333 9.66699 -118 29c-30 17.333 -53.667 41 -71 71c-20.667 35.333 -31 78 -31 128zM161.005 320.001h177.999c-1.33301 25.333 -6.66602 47 -15.999 65c-8 14 -18.667 24.667 -32 32
c-12 6.66699 -25.833 10 -41.5 10s-29.167 -3.33301 -40.5 -10c-12.667 -7.33301 -23.334 -18 -32.001 -32c-9.33301 -18 -14.666 -39.667 -15.999 -65z" />
    <glyph glyph-name="f" unicode="f" 
d="M45 399l0.000976562 111.001h113v57c0 39.333 8 72.666 24 99.999c13.333 23.333 31.333 41.666 54 54.999c24.667 14 54 21 88 21s63.333 -7 88 -21c22.667 -13.333 40.667 -31.666 54 -54.999c8.66699 -14.667 15 -30.667 19 -48l-116 -38
c-2.66699 17.333 -8.66699 30.666 -18 39.999c-7.33301 7.33301 -16.333 11 -27 11c-6.66699 0 -12.667 -1.33301 -18 -4c-2.66699 -1.33301 -5.33398 -3.33301 -8.00098 -6c-11.333 -11.333 -17 -29.666 -17 -54.999v-57h153v-111h-153v-399h-123v399h-113z" />
    <glyph glyph-name="g" unicode="g" 
d="M30 -35c0 30 6.33496 55.668 19.002 77.001c6.66699 11.333 14.667 21.333 24 30c-1.33301 2 -2.66602 4.33301 -3.99902 7c-10.667 18 -16 37.667 -16 59c0 22.667 6 44.334 18 65.001c4.66699 7.33301 9.66699 14.333 15 21c-10 10 -18.667 21 -26 33
c-15.333 26.667 -23 58.5 -23 95.5s7.66699 68.833 23 95.5c14.667 26 35.667 46.667 63 62c32.667 18.667 72.667 28 120 28c25.333 0 48.666 -2.66699 69.999 -8h161v-111l-35 1c7.33301 -20 11 -42.333 11 -67c0 -36.667 -8 -68.667 -24 -96
c-14.667 -26 -35.334 -46.333 -62.001 -61c-32.667 -18.667 -73 -28.334 -121 -29.001c-27.333 0 -52.333 3.33301 -75 10c-3.33301 -5.33301 -5 -11 -5 -17c0 -8.66699 3 -16.334 9 -23.001c8.66699 -8.66699 24 -13 46 -13h59c47.333 0 87.333 -9.33301 120 -28
c24 -14 42.333 -32 55 -54s19 -48 19 -78c0 -31.333 -7 -59.333 -21 -84c-14.667 -24.667 -35.667 -45 -63 -61c-36.667 -21.333 -82.334 -32 -137.001 -32c-54 0 -99.333 10.667 -136 32c-27.333 16 -48.333 36.333 -63 61c-14 24.667 -21 53 -21 85zM154.002 -34.999
c0 -10.667 2.33203 -20.333 6.99902 -29c5.33301 -9.33301 13.333 -17 24 -23c16.667 -10 38.334 -15 65.001 -15s48.667 5 66 15c10.667 6 18.667 13.667 24 23c4.66699 8 7.33398 17 8.00098 27c0 12.667 -4 23 -12 31c-12.667 12.667 -32.334 19 -59.001 19h-57
c-24 0 -42.333 -6.33301 -55 -19c-8 -8 -11.667 -17.667 -11 -29zM160.501 352.502c-0.333008 -29 11.167 -49.834 34.5 -62.501c13.333 -7.33301 29.5 -11.166 48.5 -11.499s35.167 3.5 48.5 11.5c22.667 13.333 34 34.333 34 63s-11.333 49.667 -34 63
c-10.667 6 -23.667 9.66699 -39 11h-10c-19.333 0 -35.333 -3.66699 -48 -11c-22.667 -13.333 -34.167 -34.5 -34.5 -63.5z" />
    <glyph glyph-name="h" unicode="h" 
d="M45 0v734.999h123v-270c14.667 24.667 33 43 55 55c20 12 43.5 18 70.5 18s50.5 -6 70.5 -18c22.667 -13.333 41.667 -32.666 57 -57.999c22.667 -39.333 34 -90 34 -152v-310h-123v310c0 32 -6 58 -18 78c-8 13.333 -17.667 23.333 -29 30c-10 6 -21.667 9 -35 9
s-25 -3 -35 -9c-11.333 -6.66699 -21 -16.667 -29 -30c-12 -20 -18 -46 -18 -78v-310h-123z" />
    <glyph glyph-name="i" unicode="i" 
d="M75 0v111h120v308h-106v111h230v-419h106v-111h-350zM170 685c0 17.333 3.66699 32 11 44c6 10.667 14.333 19 25 25c12 7.33301 26.667 11 44 11s32 -3.66699 44 -11c10.667 -6 19 -14.333 25 -25c7.33301 -12 11 -26.667 11 -44s-3.66699 -32 -11 -44
c-6 -10.667 -14.333 -19 -25 -25c-12 -7.33301 -26.667 -11 -44 -11s-32 3.66699 -44 11c-10.667 6 -19 14.333 -25 25c-7.33301 12 -11 26.667 -11 44z" />
    <glyph glyph-name="j" unicode="j" 
d="M-9 -70l116 40c2.66699 -13.333 7 -25.333 13 -36c7.33301 -12 16 -21.333 26 -28c9.33301 -5.33301 20.333 -8 33 -8c12 0 22.333 2.66699 31 8c10 6 18.333 14.667 25 26c10.667 18.667 16 43 16 73v414h-113v111h237v-525c0 -50 -10.333 -92.667 -31 -128
c-16 -28 -37.667 -49.667 -65 -65c-28.667 -16.667 -62.334 -25 -101.001 -25s-72 8.33301 -100 25c-27.333 15.333 -49 37 -65 65c-9.33301 16 -16.666 33.667 -21.999 53zM213 685c0 17.333 3.66699 32 11 44c6 10.667 14.333 19 25 25c12 7.33301 26.667 11 44 11
s32 -3.66699 44 -11c10.667 -6 19 -14.333 25 -25c7.33301 -12 11 -26.667 11 -44s-3.66699 -32 -11 -44c-6 -10.667 -14.333 -19 -25 -25c-12 -7.33301 -26.667 -11 -44 -11s-32 3.66699 -44 11c-10.667 6 -19 14.333 -25 25c-7.33301 12 -11 26.667 -11 44z" />
    <glyph glyph-name="k" unicode="k" 
d="M45 0v735.001h123v-402c70 60.667 118 113 144 157c9.33301 16 14 29.333 14 40h129c0 -13.333 -6 -30.333 -18 -51c-26 -44.667 -69.333 -95.334 -130 -152.001l67 -109c59.333 -103.333 89 -176 89 -218h-123c0 45.333 -36.667 131.333 -110 258l-62 -50v-208h-123z
" />
    <glyph glyph-name="l" unicode="l" 
d="M75 0v111h120v513h-106v111h230v-624h106v-111h-350z" />
    <glyph glyph-name="m" unicode="m" 
d="M37 0l0.00292969 529.999h108v-33c8.66699 14.667 19 25.667 31 33c9.33301 5.33301 20.333 8 33 8s24 -3 34 -9c12.667 -7.33301 24 -19 34 -35c4.66699 -8.66699 9 -18 13 -28c4 10.667 8.33301 20.334 13 29.001c9.33301 16 20 27.667 32 35
c9.33301 5.33301 20.333 8 33 8s24.334 -3 35.001 -9c12.667 -7.33301 23.667 -19 33 -35c18 -31.333 27 -74.333 27 -129v-365h-108v365c0 37.333 -5.33301 61.333 -16 72c-2.66699 2.66699 -5.83398 4 -9.50098 4s-6.83398 -1.33301 -9.50098 -4
c-10.667 -10.667 -16 -34.667 -16 -72v-365h-108v365c0 37.333 -5.33301 61.333 -16 72c-2.66699 2.66699 -5.83398 4 -9.50098 4s-6.83398 -1.33301 -9.50098 -4c-10.667 -10.667 -16 -34.667 -16 -72v-365h-108z" />
    <glyph glyph-name="n" unicode="n" 
d="M45 0v529.999h123v-65c14.667 24.667 33 43 55 55c20 12 43.5 18 70.5 18s50.5 -6 70.5 -18c22.667 -13.333 41.667 -32.666 57 -57.999c22.667 -39.333 34 -90 34 -152v-310h-123v310c0 32 -6 58 -18 78c-8 13.333 -17.667 23.333 -29 30c-10 6 -21.667 9 -35 9
s-25 -3 -35 -9c-11.333 -6.66699 -21 -16.667 -29 -30c-12 -20 -18 -46 -18 -78v-310h-123z" />
    <glyph glyph-name="o" unicode="o" 
d="M37 220v90c0 51.333 10.333 95 31 131c17.333 30 40.666 53.333 69.999 70c31.333 18 68.666 27 111.999 27s80.666 -9 111.999 -27c29.333 -16.667 52.666 -40 69.999 -70c20.667 -36 31 -79.667 31 -131v-90c0 -51.333 -10.333 -95 -31 -131
c-17.333 -30 -40.666 -53.333 -69.999 -70c-31.333 -18 -68.666 -27 -111.999 -27s-80.666 9 -111.999 27c-29.333 16.667 -52.666 40 -69.999 70c-20.667 36 -31 79.667 -31 131zM160 220c0 -30 5.66699 -55 17 -75c8 -14 18.667 -24.667 32 -32
c12 -6.66699 25.833 -10 41.5 -10s29.167 3.33301 40.5 10c12.667 7.33301 23.334 18 32.001 32c11.333 20 17 45 17 75v90c0 30 -5.66699 55 -17 75c-8 14 -18.667 24.667 -32 32c-11.333 6.66699 -25 10 -41 10s-29.667 -3.33301 -41 -10
c-12.667 -7.33301 -23.334 -18 -32.001 -32c-11.333 -20 -17 -45 -17 -75v-90z" />
    <glyph glyph-name="p" unicode="p" 
d="M45 -205v735h123v-65c14.667 24.667 33 43 55 55c20 12 43.667 18 71 18c28.667 0 54 -6.33301 76 -19c24 -14 43.667 -34.333 59 -61c22.667 -38.667 34 -88 34 -148v-90c0 -60 -11.333 -109.333 -34 -148c-15.333 -26.667 -35 -47 -59 -61
c-22 -12.667 -47.333 -19 -76 -19c-27.333 0 -51 6 -71 18c-22 12.667 -40.333 31 -55 55v-270h-123zM168 220c0 -32 6 -58 18 -78c8 -13.333 17.667 -23.333 29 -30c10 -6 22 -9 36 -9c15.333 0 28.666 3.33301 39.999 10c12.667 7.33301 23.334 18 32.001 32
c11.333 20 17 45 17 75v90c0 30 -5.66699 55 -17 75c-8 14 -18.667 24.667 -32 32c-12 6.66699 -25.333 10 -40 10c-14 0 -26 -3 -36 -9c-11.333 -6.66699 -21 -16.667 -29 -30c-12 -20 -18 -46 -18 -78v-90z" />
    <glyph glyph-name="q" unicode="q" 
d="M37 220v90c0 60 11.333 109.333 34 148c15.333 26.667 35 47 59 61c22 12.667 47.333 19 76 19c27.333 0 51 -6 71 -18c22 -12.667 40.333 -31 55 -55v65h123v-735h-123v270c-14.667 -24.667 -33 -43 -55 -55c-20 -12 -43.667 -18 -71 -18c-28.667 0 -54 6.33301 -76 19
c-24 14 -43.667 34.333 -59 61c-22.667 38.667 -34 88 -34 148zM160 220c0 -30 5.66699 -55 17 -75c8 -14 18.667 -24.667 32 -32c12 -6.66699 25.333 -10 40 -10c14 0 26 3 36 9c11.333 6.66699 21 16.667 29 30c12 20 18 46 18 78v90c0 32 -6 58 -18 78
c-8 13.333 -17.667 23.333 -29 30c-10 6 -22 9 -36 9c-15.333 0 -28.666 -3.33301 -39.999 -10c-12.667 -7.33301 -23.334 -18 -32.001 -32c-11.333 -20 -17 -45 -17 -75v-90z" />
    <glyph glyph-name="r" unicode="r" 
d="M95 0v530h123v-92c4 8.66699 8.33301 17.334 13 26.001c15.333 26.667 34 46 56 58c18 10.667 38.333 16 61 16c24 0 46.333 -6 67 -18c21.333 -12 38.333 -29 51 -51c6 -10.667 10.667 -22 14 -34l-115 -55c-3.33301 11.333 -9 21 -17 29c-12 12 -26.667 18 -44 18
c-12.667 0 -23.667 -2.66699 -33 -8c-12 -6.66699 -22 -17.334 -30 -32.001c-15.333 -26 -23 -61.333 -23 -106v-281h-123z" />
    <glyph glyph-name="s" unicode="s" 
d="M42 110l113 44c4 -9.33301 9.66699 -17.666 17 -24.999c17.333 -17.333 42.333 -26 75 -26c35.333 0 60.333 7.33301 75 22c6.66699 6.66699 10.334 15 11.001 25c0 7.33301 -2 14.666 -6 21.999c-5.33301 8.66699 -13.333 16 -24 22
c-14.667 8.66699 -40.667 14.667 -78 18c-44.667 4 -78.834 12.833 -102.501 26.5s-42.5 32.834 -56.5 57.501c-14.667 25.333 -22 53.333 -22 84c0 27.333 6 51.666 18 72.999c12.667 22 31.667 40 57 54c35.333 20.667 80 31 134 31c51.333 0 93.666 -9.66699 126.999 -29
c28.667 -16.667 51 -39 67 -67c4 -7.33301 7.66699 -14.666 11 -21.999l-113 -44c-4 9.33301 -9.66699 17.666 -17 24.999c-17.333 17.333 -42.333 26 -75 26c-35.333 0 -60.333 -7.33301 -75 -22c-6.66699 -6.66699 -10.334 -15 -11.001 -25
c0 -7.33301 2 -14.666 6 -21.999c5.33301 -8.66699 13.333 -16 24 -22c14.667 -8.66699 40.667 -14.667 78 -18c44.667 -4 78.834 -12.833 102.501 -26.5s42.5 -32.834 56.5 -57.501c14.667 -25.333 22 -53.333 22 -84c0 -27.333 -6 -51.666 -18 -72.999
c-12.667 -22 -31.667 -40 -57 -54c-35.333 -20.667 -80 -31 -134 -31c-51.333 0 -93.666 9.66699 -126.999 29c-28.667 16.667 -51 39 -67 67c-4 7.33301 -7.66699 14.666 -11 21.999z" />
    <glyph glyph-name="t" unicode="t" 
d="M49 419l-0.00390625 110.999h89v205h124v-205h137v-111h-137v-204c0 -35.333 5.66699 -63.333 17 -84c6 -10.667 13.333 -18 22 -22c6.66699 -4 14 -6 22 -6c8.66699 0 16.334 2 23.001 6c8.66699 4.66699 16 12.667 22 24c8.66699 15.333 14.334 34.333 17.001 57
l117 -35c-4.66699 -28 -13.667 -53.667 -27 -77c-16 -28 -37 -49.333 -63 -64c-25.333 -14.667 -55.166 -22 -89.499 -22s-64.166 7.33301 -89.499 22c-26 14.667 -47 36 -63 64c-21.333 36.667 -32 82.334 -32 137.001v204h-89z" />
    <glyph glyph-name="u" unicode="u" 
d="M45 220v310.001h123v-310c0 -32 6 -58 18 -78c8 -13.333 17.667 -23.333 29 -30c10 -6 21.667 -9 35 -9s25 3 35 9c11.333 6.66699 21 16.667 29 30c12 20 18 46 18 78v310h123v-530h-123v65c-14.667 -24.667 -33 -43 -55 -55c-20 -12 -43.5 -18 -70.5 -18
s-50.5 6 -70.5 18c-22.667 13.333 -41.667 32.666 -57 57.999c-22.667 39.333 -34 90 -34 152z" />
    <glyph glyph-name="v" unicode="v" 
d="M45 477v53h123v-53c0 -76.667 27.333 -196 82 -358c54.667 162.667 82 282 82 358v53h123v-53c0 -96 -47.667 -255 -143 -477h-124c-95.333 222 -143 381 -143 477z" />
    <glyph glyph-name="w" unicode="w" 
d="M45 398v132.001h123v-132c0 -56 1.66699 -138 5 -246l47 166h60l47 -166c3.33301 108 5 190 5 246v132h123v-132c0 -80.667 -29.333 -213.334 -88 -398.001h-59l-58 209l-58 -209h-59c-58.667 185.333 -88 318 -88 398z" />
    <glyph glyph-name="x" unicode="x" 
d="M45 0v5c0 26.667 18 71 54 133c6.66699 11.333 11 19 13 23l67 104l-67 104c-2.66699 4 -7 11.667 -13 23c-36 62 -54 106.333 -54 133v5h123v-5c0 -14.667 16 -46.667 48 -96l34 -53l34 53c32 49.333 48 81.333 48 96v5h123v-5c0 -26.667 -18 -71 -54 -133
c-6.66699 -11.333 -11 -19 -13 -23l-67 -104l67 -104c2.66699 -4 7 -11.667 13 -23c36 -62 54 -106.333 54 -133v-5h-123v5c0 14.667 -16 46.667 -48 96l-34 53l-34 -53c-32 -49.333 -48 -81.333 -48 -96v-5h-123z" />
    <glyph glyph-name="y" unicode="y" 
d="M45 493v37.001h123v-37c0 -38 9.33301 -86 28 -144l52 -164l56 164c18.667 54 28 102 28 144v37h123v-37c0 -53.333 -11.333 -113.333 -34 -180l-153 -446c-4 -12.667 -6 -34.334 -6 -65.001v-7h-124v7c0 42 4.33301 75.667 13 101l38 111l-110 299
c-22.667 62 -34 122 -34 180z" />
    <glyph glyph-name="z" unicode="z" 
d="M45 0v111l262 308h-262v111h410v-111l-262 -308h262v-111h-410z" />
    <glyph glyph-name="braceleft" unicode="{" 
d="M86 276v110.999c20.667 0 38.667 4.33301 54 13c14 8 25.333 19 34 33c10 17.333 14.667 38 14 62v185c0 27.333 6.33301 51.666 19 72.999c13.333 22.667 33 41.667 59 57c38.667 22.667 88 34 148 34v-111c-43.333 0 -73.666 -8.66699 -90.999 -26
c-8 -8 -11.667 -17 -11 -27v-185c0 -46 -9.66699 -85.667 -29 -119c-10 -17.333 -22 -32.333 -36 -45c14 -12.667 26 -27.667 36 -45c19.333 -33.333 29 -73 29 -119v-184c0 -10.667 3.66699 -20 11 -28c17.333 -17.333 47.666 -25.666 90.999 -24.999v-111
c-60 0 -109.333 11 -148 33c-26 15.333 -45.667 34.333 -59 57c-12.667 21.333 -19 46 -19 74v184c0 24 -4.66699 44.667 -14 62c-8 14 -19.333 25 -34 33c-15.333 8.66699 -33.333 13.334 -54 14.001z" />
    <glyph glyph-name="bar" unicode="|" 
d="M188 -181v1025h124v-1025h-124z" />
    <glyph glyph-name="braceright" unicode="}" 
d="M86 -70c43.333 0 73.666 8.33203 90.999 24.999c8 8 11.667 17.333 11 28v184c0 46 9.66699 85.667 29 119c10 17.333 22 32.333 36 45c-14 12.667 -26 27.667 -36 45c-19.333 33.333 -29 73 -29 119v185c0 10.667 -3.66699 19.667 -11 27
c-17.333 17.333 -47.666 26 -90.999 26v111c60 0 109.333 -11.333 148 -34c26 -15.333 45.667 -34.333 59 -57c12.667 -21.333 19 -45.666 19 -72.999v-185c0 -24 4.66699 -44.667 14 -62c8 -14 19.333 -25 34 -33c15.333 -8.66699 33.333 -13 54 -13v-111
c-20.667 0 -38.667 -4.66699 -54 -14c-14 -8 -25.333 -19 -34 -33c-10 -17.333 -14.667 -38 -14 -62v-184c0 -27.333 -6.33301 -52 -19 -74c-13.333 -22.667 -33 -41.667 -59 -57c-38.667 -22.667 -88 -33.667 -148 -33v111z" />
    <glyph glyph-name="asciitilde" unicode="~" 
d="M-1 595c15.333 35.333 29.999 65 43.999 89c16 28 32 50 48 66c24.667 24.667 51.334 37 80.001 37c17.333 0 34 -4.33301 50 -13c20 -11.333 44 -37.666 72 -78.999c16 -23.333 28 -39 36 -47c11.333 9.33301 24.333 26.666 39 51.999
c12.667 22.667 26.334 50.667 41.001 84l92 -37c-15.333 -35.333 -30 -65 -44 -89c-25.333 -44 -51 -73.667 -77 -89c-16 -9.33301 -33 -14 -51 -14c-17.333 0 -34 4.66699 -50 14c-20 11.333 -44 37.333 -72 78c-16 23.333 -28 39 -36 47
c-11.333 -9.33301 -24.333 -26.666 -39 -51.999c-12.667 -22.667 -26.334 -50.334 -41.001 -83.001z" />
    <glyph glyph-name="uni00A0" unicode="&#xa0;" 
 />
    <glyph glyph-name="exclamdown" unicode="&#xa1;" 
d="M162 450c0 18.667 4 34.667 12 48c6.66699 12 16 21.333 28 28c13.333 8 29.333 12 48 12s34.667 -4 48 -12c12 -6.66699 21.333 -16 28 -28c8 -13.333 12 -29.333 12 -48s-4 -34.667 -12 -48c-6.66699 -12 -16 -21.333 -28 -28c-13.333 -8 -29.333 -12 -48 -12
s-34.667 4 -48 12c-12 6.66699 -21.333 16 -28 28c-8 13.333 -12 29.333 -12 48zM188 -205v495h124v-495h-124z" />
    <glyph glyph-name="cent" unicode="&#xa2;" 
d="M37 220l0.00195312 90c0 50.667 10.333 94 31 130c17.333 30 40.666 53.333 69.999 70c15.333 8.66699 32 15.667 50 21v101h124v-101c19.333 -4.66699 37 -11.667 53 -21c29.333 -16.667 52.666 -40 69.999 -70c11.333 -20 19.666 -41.667 24.999 -65l-118 -32
c-2.66699 14.667 -7.33398 28 -14.001 40c-8 14.667 -18.667 25.667 -32 33c-12.667 7.33301 -27.334 11 -44.001 11c-16 0 -30.333 -3.66699 -43 -11s-23.334 -18 -32.001 -32c-11.333 -20 -17 -44.667 -17 -74v-90c0 -30 5.66699 -54.667 17 -74
c8 -14 18.667 -24.667 32 -32c12 -7.33301 26.333 -11 43 -11s31.334 3.66699 44.001 11c13.333 7.33301 24 18.333 32 33c6.66699 12 11.334 25.333 14.001 40l118 -32c-4.66699 -23.333 -13 -45 -25 -65c-17.333 -30 -40.666 -53.333 -69.999 -70
c-16 -9.33301 -33.667 -16.333 -53 -21v-101h-124v101c-18 4.66699 -34.667 11.667 -50 21c-29.333 16.667 -52.666 40 -69.999 70c-20.667 36 -31 79.333 -31 130z" />
    <glyph glyph-name="sterling" unicode="&#xa3;" 
d="M45 0l-0.000976562 111.001c23.333 14 42.333 33.333 57 58c16.667 29.333 25 72.333 25 129v48h-61v87h61v92c0 57.333 10.667 104.666 32 141.999c14.667 25.333 33.334 44.666 56.001 57.999c20.667 12 44.667 18 72 18s51.333 -6 72 -18
c22.667 -12.667 41.334 -32 56.001 -58c11.333 -19.333 19.666 -40.666 24.999 -63.999l-111 -48c-4 34 -12 57 -24 69c-5.33301 5.33301 -11.333 8 -18 8c-5.33301 0 -10 -2 -14 -6c-15.333 -15.333 -23 -49 -23 -101v-92h82v-87h-82v-48c0 -82.667 -12 -145 -36 -187h241
v-111h-410z" />
    <glyph glyph-name="currency" unicode="&#xa4;" 
d="M9 159l71 71c-15.333 28 -22.833 61.667 -22.5 101s7.83301 73 22.5 101l-71 72l72 65l68 -68c28 15.333 61.5 23 100.5 23s72.833 -7.66699 101.5 -23l68 68l72 -65l-71 -72c15.333 -28 22.833 -61.5 22.5 -100.5s-7.83301 -72.833 -22.5 -101.5l71 -71l-72 -65l-68 67
c-28 -15.333 -61.5 -22.833 -100.5 -22.5s-72.833 7.83301 -101.5 22.5l-68 -67zM160 331.5c0 -23 4.66699 -42.5 14 -58.5c16 -28 41.333 -42 76 -42s60 14 76 42c9.33301 16 14 35.5 14 58.5s-4.66699 42.5 -14 58.5c-16 27.333 -41.333 41 -76 41s-60 -13.667 -76 -41
c-9.33301 -16 -14 -35.5 -14 -58.5z" />
    <glyph glyph-name="yen" unicode="&#xa5;" 
d="M45 141v86h143v55l-2 6h-141v86h97l-33 67c-42.667 84.667 -64 168 -64 250v44h123v-44c0 -66 17 -133 51 -201l31 -61l31 61c34 67.333 51 134.333 51 201v44h123v-44c0 -82 -21.333 -165.333 -64 -250l-33 -67h97v-86h-141l-2 -6v-55h143v-86h-143v-141h-124v141h-143z
" />
    <glyph glyph-name="brokenbar" unicode="&#xa6;" 
d="M188 -181v457h124v-457h-124zM188 387v457h124v-457h-124z" />
    <glyph glyph-name="section" unicode="&#xa7;" 
d="M40 -26l119 28.002c0 -12 3.33301 -23.333 10 -34c6.66699 -11.333 15.334 -20 26.001 -26c14 -8 30.667 -12 50 -12c18 0 33.667 3.66699 47 11c12 6.66699 21.333 16 28 28c8 14 12 29.667 12 47c0 16.667 -4.33301 33 -13 49c-10.667 18 -27.667 33.667 -51 47
c-12 6.66699 -31.333 15.667 -58 27c-28.667 11.333 -50.334 21.333 -65.001 30c-34 20 -59.667 44.667 -77 74c-15.333 26.667 -23 56 -23 88c0 35.333 9.33301 69 28 101c12 20.667 26.333 38.667 43 54c-18 14.667 -32.667 32 -44 52c-18 31.333 -27 66 -27 104
c0 39.333 9.33301 75 28 107c16 28 38.333 50.333 67 67c32 18.667 70.333 28 115 28c47.333 0 87.666 -9.66699 120.999 -29c26.667 -15.333 47.667 -36.333 63 -63c11.333 -20 18.333 -41 21 -63l-119 -28c0 12 -3.33301 23.333 -10 34
c-6.66699 11.333 -15.334 20 -26.001 26c-14 8 -30.667 12 -50 12c-18 0 -33.667 -4 -47 -12c-12 -6.66699 -21.333 -16 -28 -28c-8 -14 -12 -29.667 -12 -47c0 -16.667 4.33301 -32.667 13 -48c10.667 -18 27.667 -34 51 -48c12 -6.66699 31.333 -15.334 58 -26.001
c28.667 -11.333 50.334 -21.333 65.001 -30c34 -20 59.667 -44.667 77 -74c15.333 -26.667 23 -56 23 -88c0 -35.333 -9.33301 -69.333 -28 -102c-12 -20.667 -26.333 -38.667 -43 -54c18 -14.667 32.667 -31.667 44 -51c18 -31.333 27 -66 27 -104
c0 -39.333 -9.33301 -75.333 -28 -108c-16 -28 -38.333 -50.333 -67 -67c-32 -18.667 -70.333 -27.667 -115 -27c-47.333 0 -87.666 9.33301 -120.999 28c-26.667 15.333 -47.667 36.666 -63 63.999c-11.333 20 -18.333 41 -21 63zM168 331.002
c0 -14.667 4 -28.665 12 -41.998c8.66699 -14.667 21.667 -27.334 39 -38.001c9.33301 -5.33301 23 -11.333 41 -18c5.33301 2 10.666 4.66699 15.999 8c18 10.667 32 24.667 42 42c9.33301 16 14 32.333 14 49c0 14.667 -4 28.667 -12 42
c-8.66699 14.667 -21.667 27 -39 37c-9.33301 5.33301 -23 11.333 -41 18c-5.33301 -2 -10.666 -4.66699 -15.999 -8c-18 -10.667 -32 -24.334 -42 -41.001c-9.33301 -16 -14 -32.333 -14 -49z" />
    <glyph glyph-name="dieresis" unicode="&#xa8;" 
d="M74 684.5c0 16.333 3.33398 30.5 10.001 42.5c6 10 14 18 24 24c11.333 6.66699 25.166 10 41.499 10s30.5 -3.33301 42.5 -10c10 -6 18 -14 24 -24c6.66699 -11.333 10 -25.166 10 -41.499s-3.33301 -30.5 -10 -42.5c-6 -10 -14 -18 -24 -24
c-12 -6.66699 -26 -10 -42 -10s-30 3.33301 -42 10c-10 6 -18 14 -24 24c-6.66699 11.333 -10 25.166 -10 41.499zM274.001 684.5c0 16.333 3.33398 30.5 10.001 42.5c6 10 14 18 24 24c11.333 6.66699 25.166 10 41.499 10s30.5 -3.33301 42.5 -10c10 -6 18 -14 24 -24
c6.66699 -11.333 10 -25.166 10 -41.499s-3.33301 -30.5 -10 -42.5c-6 -10 -14 -18 -24 -24c-12 -6.66699 -26 -10 -42 -10s-30 3.33301 -42 10c-10 6 -18 14 -24 24c-6.66699 11.333 -10 25.166 -10 41.499z" />
    <glyph glyph-name="copyright" unicode="&#xa9;" 
d="M13 155v351.999c0 47.333 10 88.333 30 123c18 30.667 42.667 55.334 74 74.001c36.667 20.667 81 31 133 31s96.333 -10.333 133 -31c32 -18 56.667 -42.667 74 -74c20 -34.667 30 -75.667 30 -123v-352c0 -47.333 -10 -88.333 -30 -123
c-18 -30.667 -42.667 -55 -74 -73c-36.667 -21.333 -81 -32 -133 -32s-96.333 10.667 -133 32c-32 18 -56.667 42.333 -74 73c-20 34.667 -30 75.667 -30 123zM85 154.999c0 -34.667 7 -64.334 21 -89.001c12.667 -22 30.334 -39.333 53.001 -52
c25.333 -14.667 55.666 -22 90.999 -22s65.666 7.33301 90.999 22c22 12.667 39.667 30 53 52c14.667 24.667 21.667 54.334 21 89.001v352c0 34.667 -7 64.667 -21 90c-12.667 22 -30.334 39.333 -53.001 52c-25.333 14.667 -55.666 22 -90.999 22
s-65.666 -7.33301 -90.999 -22c-22 -12.667 -39.667 -30 -53 -52c-14.667 -24.667 -21.667 -54.667 -21 -90v-352zM120 244.999l-0.00195312 172.998c0 24 5.33301 44.667 16 62c9.33301 16.667 22.666 30 39.999 40c20.667 12 45.667 18 75 18c30 0 55 -6 75 -18
c16.667 -9.33301 30 -22.666 40 -39.999c6 -10 10 -20.667 12 -32l-78 -21c-1.33301 9.33301 -5.33301 17.333 -12 24c-8.66699 8.66699 -21 13.334 -37 14.001c-15.333 0 -27.666 -4.66699 -36.999 -14c-8.66699 -8.66699 -12.667 -19.667 -12 -33v-173
c0 -14 4 -25.333 12 -34c8.66699 -8.66699 21 -13 37 -13s28.333 4.33301 37 13c6.66699 6.66699 10.667 14.667 12 24l78 -21c-2 -11.333 -6 -22 -12 -32c-9.33301 -16.667 -22.666 -30 -39.999 -40c-20.667 -12 -45.667 -17.667 -75 -17c-29.333 0 -54.333 5.66699 -75 17
c-17.333 10 -30.666 23.333 -39.999 40c-10 18 -15.333 39 -16 63z" />
    <glyph glyph-name="ordfeminine" unicode="&#xaa;" 
d="M85 478c0 22 4.66602 40.999 13.999 56.999c10.667 18 26.334 33 47.001 45c31.333 18 71.333 27 120 27h41v10c0 6.66699 -2.33301 12 -7 16c-10 10 -27.333 15 -52 15c-22.667 0 -39.667 -5.66699 -51 -17c-6.66699 -6.66699 -11.334 -14.667 -14.001 -24l-94 37
c2.66699 8 6.33398 15.667 11.001 23c12.667 21.333 29.667 38.333 51 51c26 14.667 58.333 22.334 97 23.001c41.333 0 75.666 -8 102.999 -24c19.333 -11.333 34 -26 44 -44c9.33301 -16 14 -34.667 14 -56v-253h-102v40c-9.33301 -12 -20.666 -22 -33.999 -30
c-18 -10.667 -39.333 -16 -64 -16c-27.333 0 -50.333 5.66699 -69 17c-16.667 9.33301 -29.667 22.333 -39 39c-10.667 18 -16 39.333 -16 64zM105.999 219.999v78h288v-78h-288zM187.999 478.999c0 -5.33301 1.66895 -9.99902 5.00195 -13.999
c9.33301 -9.33301 26.666 -14 51.999 -14c14.667 0 27 2.66699 37 8c8 4.66699 14.167 10.667 18.5 18s6.5 16 6.5 26v12h-41c-34.667 0 -58.334 -6.33301 -71.001 -19c-4.66699 -4.66699 -7 -10.334 -7 -17.001z" />
    <glyph glyph-name="guillemotleft" unicode="&#xab;" 
d="M15 285v92c53.333 30 99.666 79 138.999 147c15.333 26.667 28.333 54 39 82l94 -37c-7.33301 -14.667 -15 -29 -23 -43c-48 -83.333 -104.333 -148.333 -169 -195c64 -46 120.333 -110.667 169 -194c8 -14 15.667 -28.333 23 -43l-94 -38
c-11.333 28 -24.333 55.333 -39 82c-39.333 68 -85.666 117 -138.999 147zM219 285v92c53.333 30 99.666 79 138.999 147c15.333 26.667 28.333 54 39 82l94 -37c-7.33301 -14.667 -15 -29 -23 -43c-48 -83.333 -104.333 -148.333 -169 -195
c64 -46 120.333 -110.667 169 -194c8 -14 15.667 -28.333 23 -43l-94 -38c-11.333 28 -24.333 55.333 -39 82c-39.333 68 -85.666 117 -138.999 147z" />
    <glyph glyph-name="logicalnot" unicode="&#xac;" 
d="M45 281v101h410v-276h-112v175h-298z" />
    <glyph glyph-name="uni00AD" unicode="&#xad;" 
d="M45 276v111h410v-111h-410z" />
    <glyph glyph-name="registered" unicode="&#xae;" 
d="M13 155v351.999c0 47.333 10 88.333 30 123c18 30.667 42.667 55.334 74 74.001c36.667 20.667 81 31 133 31s96.333 -10.333 133 -31c32 -18 56.667 -42.667 74 -74c20 -34.667 30 -75.667 30 -123v-352c0 -47.333 -10 -88.333 -30 -123
c-18 -30.667 -42.667 -55 -74 -73c-36.667 -21.333 -81 -32 -133 -32s-96.333 10.667 -133 32c-32 18 -56.667 42.333 -74 73c-20 34.667 -30 75.667 -30 123zM85 154.999c0 -34.667 7 -64.334 21 -89.001c12.667 -22 30.334 -39.333 53.001 -52
c25.333 -14.667 55.666 -22 90.999 -22s65.666 7.33301 90.999 22c22 12.667 39.667 30 53 52c14.667 24.667 21.667 54.334 21 89.001v352c0 34.667 -7 64.667 -21 90c-12.667 22 -30.334 39.333 -53.001 52c-25.333 14.667 -55.666 22 -90.999 22
s-65.666 -7.33301 -90.999 -22c-22 -12.667 -39.667 -30 -53 -52c-14.667 -24.667 -21.667 -54.667 -21 -90v-352zM125 128.999l-0.000976562 404.002h131c25.333 0 47 -5.33301 65 -16c16.667 -10 30.334 -23.667 41.001 -41c12 -20.667 18 -45.834 18 -75.501
s-6 -54.834 -18 -75.501c-11.333 -19.333 -26.333 -33.666 -45 -42.999c10 -14 18.667 -27.667 26 -41c24 -42 36.333 -79.333 37 -112h-82c0 23.333 -8.33301 49.666 -25 78.999c-10.667 19.333 -25 39.333 -43 60h-24v-139h-81zM205.999 341.001l49.999 0.000976562
c10.667 0 19.334 3.66699 26.001 11c10.667 10.667 16 27 16 49s-5.33301 38.333 -16 49c-7.33301 7.33301 -16 10.666 -26 9.99902h-50v-119z" />
    <glyph glyph-name="macron" unicode="&#xaf;" 
d="M100 637v96h300v-96h-300z" />
    <glyph glyph-name="degree" unicode="&#xb0;" 
d="M97 641c0 32.667 6.66699 60.668 20 84.001c12 20.667 28.333 36.667 49 48c23.333 13.333 51.333 20.166 84 20.499s60.667 -6.5 84 -20.5c20.667 -12 37 -28 49 -48c13.333 -23.333 20 -51.333 20 -84s-6.66699 -60.667 -20 -84c-12 -20.667 -28.333 -37 -49 -49
c-23.333 -13.333 -51.333 -20 -84 -20s-60.667 6.66699 -84 20c-20.667 12 -37 28.333 -49 49c-13.333 23.333 -20 51.333 -20 84zM199 640.501c0 -15.667 4.66699 -28 14 -37s21.666 -13.5 36.999 -13.5s27.666 4.5 36.999 13.5s14 21.333 14 37s-4.66699 28.167 -14 37.5
s-21.666 14 -36.999 14s-27.666 -4.66699 -36.999 -14s-14 -21.833 -14 -37.5z" />
    <glyph glyph-name="plusminus" unicode="&#xb1;" 
d="M45 0v101h410v-101h-410zM45 281v101h149v175h112v-175h149v-101h-149v-175h-112v175h-149z" />
    <glyph glyph-name="uni00B2" unicode="&#xb2;" 
d="M87 704c2.66699 14.667 8.00195 28.665 16.002 41.998c12 21.333 28.333 38 49 50c26 14.667 57.667 22 95 22c36.667 0 68 -7.33301 94 -22c22 -12.667 39 -29.667 51 -51c13.333 -23.333 20 -49 20 -77c0 -26.667 -7 -52.334 -21 -77.001
c-14.667 -25.333 -43.667 -54.666 -87 -87.999s-72 -62.666 -86 -87.999c-4 -7.33301 -7.66699 -15.666 -11 -24.999h202v-92h-318v1c0 65.333 10.333 115.666 31 150.999c17.333 29.333 49.666 62.333 96.999 99c40.667 30.667 66.667 56 78 76
c8.66699 14.667 13 29.334 13 44.001c0 16 -5.33301 29.333 -16 40c-11.333 11.333 -27 17 -47 17s-35.667 -5.66699 -47 -17c-8.66699 -8.66699 -13.334 -19 -14.001 -31z" />
    <glyph glyph-name="uni00B3" unicode="&#xb3;" 
d="M87 406l98.9971 25.999c0.666992 -12 5.33398 -22.333 14.001 -31c10.667 -10.667 26 -16 46 -16c18.667 0 33.667 5.33301 45 16c10.667 10.667 16 24.334 16 41.001c0 12 -3.16699 23.5 -9.5 34.5s-15.166 19.833 -26.499 26.5c-13.333 7.33301 -32.333 11 -57 11v93
c26 0 45.667 3.66699 59 11c10.667 6 19 14.667 25 26c6 10 9 20 9 30c0 14 -4.66699 25.667 -14 35c-10.667 10.667 -26 16.334 -46 17.001c-20 0 -35.667 -5.66699 -47 -17c-8.66699 -8.66699 -13.334 -18.667 -14.001 -30l-99 25c2.66699 14.667 8 29 16 43
c12 20.667 28.333 37 49 49c26 14.667 57.667 22 95 22c36.667 0 67.667 -7.33301 93 -22c21.333 -12 38 -28.333 50 -49c12.667 -22 19 -46 19 -72c0 -23.333 -5.66699 -45 -17 -65s-27.666 -36 -48.999 -48c-1.33301 -0.666992 -2.33301 -1.33398 -3 -2.00098
c22 -12.667 39 -29.667 51 -51c12 -20.667 18 -43.334 18 -68.001c0 -27.333 -6.66699 -52.666 -20 -75.999c-12 -21.333 -29 -38.333 -51 -51c-25.333 -14.667 -56 -22 -92 -22c-37.333 0 -68.666 7.66699 -93.999 23c-20.667 12 -37 28.333 -49 49
c-8 13.333 -13.333 27.333 -16 42z" />
    <glyph glyph-name="acute" unicode="&#xb4;" 
d="M127 583l212 226l95 -87l-228 -210z" />
    <glyph glyph-name="uni00B5" unicode="&#xb5;" 
d="M45 -205v735h123v-310c0 -32 6 -58 18 -78c8 -13.333 17.667 -23.333 29 -30c10 -6 21.667 -9 35 -9s25 3 35 9c11.333 6.66699 21 16.667 29 30c12 20 18 46 18 78v310h123v-530h-123v65c-14.667 -24.667 -33 -43 -55 -55c-20 -12 -43.667 -18 -71 -18
c-16 0 -30.667 2 -44 6c4.66699 -34.667 6.66699 -68 6 -100v-103h-123z" />
    <glyph glyph-name="paragraph" unicode="&#xb6;" 
d="M40 528.5c0 47 9.33301 86.833 28 119.5c32.667 56.667 84.334 85.667 155.001 87h99v-735h-99v323c-70.667 1.33301 -122.334 30 -155.001 86c-18.667 32.667 -28 72.5 -28 119.5zM140 529c0 -30 5.66699 -55.001 17 -75.001c8 -14 18 -24.333 30 -31
c10.667 -6 22.667 -9.33301 36 -10v232c-13.333 -0.666992 -25.333 -4 -36 -10c-12 -7.33301 -22 -17.666 -30 -30.999c-11.333 -20 -17 -45 -17 -75zM360 -0.000976562v735h100v-735h-100z" />
    <glyph glyph-name="periodcentered" unicode="&#xb7;" 
d="M152 330.5c0 21 4.33301 39.167 13 54.5c7.33301 13.333 17.666 23.666 30.999 30.999c14.667 8.66699 32.5 13 53.5 13s39.167 -4.33301 54.5 -13c13.333 -7.33301 23.666 -17.666 30.999 -30.999c8.66699 -14.667 13 -32.5 13 -53.5s-4.33301 -39.167 -13 -54.5
c-7.33301 -13.333 -17.666 -23.666 -30.999 -30.999c-15.333 -8.66699 -33.333 -13 -54 -13s-38.667 4.33301 -54 13c-13.333 7.33301 -23.666 17.666 -30.999 30.999c-8.66699 14.667 -13 32.5 -13 53.5z" />
    <glyph glyph-name="cedilla" unicode="&#xb8;" 
d="M150 -134h100.001c12.667 0 19 5.66699 19 17s-6.33301 17 -19 17h-44v100h88v-27c23.333 -7.33301 40.666 -21 51.999 -41c8 -14 12 -30.5 12 -49.5s-4 -35.5 -12 -49.5c-8 -13.333 -19 -24 -33 -32c-17.333 -10 -38.333 -15 -63 -15h-100v80z" />
    <glyph glyph-name="uni00B9" unicode="&#xb9;" 
d="M122 731l98 81h102v-514h-102v389l-32 -27z" />
    <glyph glyph-name="ordmasculine" unicode="&#xba;" 
d="M85 518v63c0 33.333 7 62 21 86c12.667 21.333 30 38.666 52 51.999c25.333 14.667 56 22 92 22s66.667 -7.33301 92 -22c22 -12.667 39.333 -30 52 -52c14 -24 21 -52.667 21 -86v-63c0 -33.333 -7 -62 -21 -86c-12.667 -21.333 -30 -38.666 -52 -51.999
c-25.333 -14.667 -56 -22 -92 -22s-66.667 7.33301 -92 22c-22 12.667 -39.333 30 -52 52c-14 24 -21 52.667 -21 86zM106 220v78h288v-78h-288zM188 518c0 -15.333 3 -28.333 9 -39c10.667 -19.333 28.334 -28.833 53.001 -28.5s42.334 9.83301 53.001 28.5
c6 10.667 9 23.667 9 39v63c0 15.333 -3 28.333 -9 39c-10.667 18.667 -28.334 28 -53.001 28s-42.334 -9.33301 -53.001 -28c-6 -10.667 -9 -23.667 -9 -39v-63z" />
    <glyph glyph-name="guillemotright" unicode="&#xbb;" 
d="M213 94c7.33301 14.667 15 29 23 43c48 83.333 104.333 148 169 194c-64 46 -120.333 111 -169 195c-8 14 -15.667 28.333 -23 43l94 37c11.333 -28 24.333 -55.333 39 -82c39.333 -68 85.666 -117 138.999 -147v-92c-53.333 -30 -99.666 -79 -138.999 -147
c-15.333 -26.667 -28.333 -54 -39 -82zM9 94c7.33301 14.667 15 29 23 43c48 83.333 104.333 148 169 194c-64 46 -120.333 111 -169 195c-8 14 -15.667 28.333 -23 43l94 37c11.333 -28 24.333 -55.333 39 -82c39.333 -68 85.666 -117 138.999 -147v-92
c-53.333 -30 -99.666 -79 -138.999 -147c-15.333 -26.667 -28.333 -54 -39 -82z" />
    <glyph glyph-name="onequarter" unicode="&#xbc;" 
d="M45 291v81h410v-81h-410zM120 -91v74l110 242h101v-242h44v-74h-44v-88h-82v88h-129zM201 -17h48v105zM150 777l75 64h83v-404h-83v303l-22 -19z" />
    <glyph glyph-name="onehalf" unicode="&#xbd;" 
d="M45 291v81h410v-81h-410zM122 140c2 11.333 6.00098 22.3301 12.001 32.9971c9.33301 16.667 22.333 29.667 39 39c20.667 12 45.667 18 75 18c28.667 0 53 -6 73 -18c17.333 -10 30.666 -23.333 39.999 -40c10.667 -18.667 16 -38.667 16 -60
s-5.33301 -41.666 -16 -60.999c-11.333 -19.333 -33.666 -42.166 -66.999 -68.499s-56 -49.5 -68 -69.5c-3.33301 -5.33301 -6 -11.333 -8 -18h157v-74h-250v1c0 51.333 8 91 24 119c13.333 22.667 38.333 48.334 75 77.001c31.333 24 51.666 43.667 60.999 59
c6.66699 12 10 23.667 10 35c0 12.667 -4 23 -12 31c-5.33301 5.33301 -11.666 9 -18.999 11c-4.66699 1.33301 -10 2 -16 2c-15.333 0 -27.333 -4.33301 -36 -13c-6.66699 -6.66699 -10.334 -14.667 -11.001 -24zM150.001 776.997l75 64h83v-404h-83v303l-22 -19z" />
    <glyph glyph-name="threequarters" unicode="&#xbe;" 
d="M45 291v81h410v-81h-410zM122 522l79 21c0.666992 -9.33301 4.33398 -17.333 11.001 -24c8 -8 19.667 -12 35 -12c14 0 25.333 4 34 12c8 8 12 18.333 12 31c0 14.667 -5.33301 27.667 -16 39c-12 12 -30.667 17.667 -56 17v74c26 0 45 6 57 18c10 10 15 21.667 15 35
c0 10.667 -3.66699 19.334 -11 26.001c-8 8 -19.667 12.333 -35 13c-15.333 0 -27 -4.33301 -35 -13c-6.66699 -6.66699 -10.334 -14.334 -11.001 -23.001l-79 20c2 12 6 23 12 33c9.33301 16.667 22.333 29.667 39 39c20 11.333 44.667 17.333 74 18
c28.667 0 53.334 -6 74.001 -18c16.667 -9.33301 29.667 -22.333 39 -39c10 -17.333 15 -36 15 -56c0 -18.667 -4.33301 -35.667 -13 -51c-9.33301 -16 -22.333 -28.667 -39 -38c-0.666992 -0.666992 -1.33398 -1 -2.00098 -1c17.333 -10 30.666 -23.333 39.999 -40
s14 -34.667 14 -54c0 -21.333 -5.33301 -41 -16 -59c-9.33301 -16.667 -22.666 -30 -39.999 -40c-20 -11.333 -44 -17 -72 -17c-29.333 0 -54 5.66699 -74 17c-16 9.33301 -29 22.333 -39 39c-6 10.667 -10 21.667 -12 33zM120 -91v74l110 242h101v-242h44v-74h-44v-88h-82
v88h-129zM201 -17h48v105z" />
    <glyph glyph-name="questiondown" unicode="&#xbf;" 
d="M45 -24c0 36 9.66699 71.001 29 105.001c9.33301 16 26 37.667 50 65c22.667 26 37.667 45.333 45 58c13.333 22.667 19.666 51.334 18.999 86.001h124c0 -52 -9.33301 -94 -28 -126c-8.66699 -15.333 -24.667 -36.333 -48 -63s-39.333 -47.334 -48 -62.001
c-13.333 -22.667 -20 -44.667 -20 -66c0 -28.667 11.667 -49.667 35 -63c14 -8 30.667 -12 50 -12c20 0 37 4 51 12c11.333 6.66699 20 15.334 26 26.001c6 10 9 21 9 33v3l121 -22c-1.33301 -25.333 -8.66602 -49.333 -21.999 -72c-15.333 -26.667 -36 -47.334 -62 -62.001
c-33.333 -19.333 -74 -29 -122 -29c-46.667 0 -86.334 9.33301 -119.001 28c-27.333 16 -49 37.333 -65 64c-17.333 29.333 -25.666 61.666 -24.999 96.999zM162 450.001c0 18.667 4 34.667 12 48c6.66699 12 16 21.333 28 28c13.333 8 29.333 12 48 12s34.667 -4 48 -12
c12 -6.66699 21.333 -16 28 -28c8 -13.333 12 -29.333 12 -48s-4 -34.667 -12 -48c-6.66699 -12 -16 -21.333 -28 -28c-13.333 -8 -29.333 -12 -48 -12s-34.667 4 -48 12c-12 6.66699 -21.333 16 -28 28c-8 13.333 -12 29.333 -12 48z" />
    <glyph glyph-name="Agrave" unicode="&#xc0;" 
d="M45 0v74c0 133.333 47.667 353.666 143 660.999h124c95.333 -307.333 143 -527.666 143 -660.999v-74h-123v74c0 24 -1.33301 50.667 -4 80h-156c-2.66699 -29.333 -4 -56 -4 -80v-74h-123zM186 265h127.998c-13.333 87.333 -34.666 191.666 -63.999 312.999
c-29.333 -121.333 -50.666 -225.666 -63.999 -312.999zM107.998 912l84 73l145 -166l-69 -60z" />
    <glyph glyph-name="Aacute" unicode="&#xc1;" 
d="M45 0v74c0 133.333 47.667 353.666 143 660.999h124c95.333 -307.333 143 -527.666 143 -660.999v-74h-123v74c0 24 -1.33301 50.667 -4 80h-156c-2.66699 -29.333 -4 -56 -4 -80v-74h-123zM186 265h127.998c-13.333 87.333 -34.666 191.666 -63.999 312.999
c-29.333 -121.333 -50.666 -225.666 -63.999 -312.999zM162.998 819l145 166l84 -73l-160 -153z" />
    <glyph glyph-name="Acircumflex" unicode="&#xc2;" 
d="M45 0v74c0 133.333 47.667 353.666 143 660.999h124c95.333 -307.333 143 -527.666 143 -660.999v-74h-123v74c0 24 -1.33301 50.667 -4 80h-156c-2.66699 -29.333 -4 -56 -4 -80v-74h-123zM186 265h127.998c-13.333 87.333 -34.666 191.666 -63.999 312.999
c-29.333 -121.333 -50.666 -225.666 -63.999 -312.999zM52.998 833l138 146h118l138 -146l-89 -68l-108 139l-108 -139z" />
    <glyph glyph-name="Atilde" unicode="&#xc3;" 
d="M45 0v74c0 133.333 47.667 353.666 143 660.999h124c95.333 -307.333 143 -527.666 143 -660.999v-74h-123v74c0 24 -1.33301 50.667 -4 80h-156c-2.66699 -29.333 -4 -56 -4 -80v-74h-123zM186 265h127.998c-13.333 87.333 -34.666 191.666 -63.999 312.999
c-29.333 -121.333 -50.666 -225.666 -63.999 -312.999zM55.998 829c9.33301 20.667 18.666 38.668 27.999 54.001c21.333 36.667 43 61.334 65 74.001c14 8 28.667 12 44 12s30 -4 44 -12c14.667 -8.66699 32.334 -26.334 53.001 -53.001l17 -22
c14 15.333 30.333 43.666 49 84.999l88 -36c-9.33301 -20.667 -18.666 -38.667 -27.999 -54c-21.333 -36.667 -43 -61.334 -65 -74.001c-14 -8 -28.667 -12.333 -44 -13c-15.333 0 -30 4 -44 12c-14.667 8.66699 -32.334 26.667 -53.001 54l-17 22
c-14 -15.333 -30.333 -43.666 -49 -84.999z" />
    <glyph glyph-name="Adieresis" unicode="&#xc4;" 
d="M45 0v74c0 133.333 47.667 353.666 143 660.999h124c95.333 -307.333 143 -527.666 143 -660.999v-74h-123v74c0 24 -1.33301 50.667 -4 80h-156c-2.66699 -29.333 -4 -56 -4 -80v-74h-123zM186 265h127.998c-13.333 87.333 -34.666 191.666 -63.999 312.999
c-29.333 -121.333 -50.666 -225.666 -63.999 -312.999zM73.998 889.5c0 16.333 3.33398 30.5 10.001 42.5c6 10 14 18 24 24c11.333 6.66699 25.166 10 41.499 10s30.5 -3.33301 42.5 -10c10 -6 18 -14 24 -24c6.66699 -11.333 10 -25.166 10 -41.499
s-3.33301 -30.5 -10 -42.5c-6 -10 -14 -18 -24 -24c-12 -6.66699 -26 -10 -42 -10s-30 3.33301 -42 10c-10 6 -18 14 -24 24c-6.66699 11.333 -10 25.166 -10 41.499zM273.999 889.5c0 16.333 3.33398 30.5 10.001 42.5c6 10 14 18 24 24
c11.333 6.66699 25.166 10 41.499 10s30.5 -3.33301 42.5 -10c10 -6 18 -14 24 -24c6.66699 -11.333 10 -25.166 10 -41.499s-3.33301 -30.5 -10 -42.5c-6 -10 -14 -18 -24 -24c-12 -6.66699 -26 -10 -42 -10s-30 3.33301 -42 10c-10 6 -18 14 -24 24
c-6.66699 11.333 -10 25.166 -10 41.499z" />
    <glyph glyph-name="Aring" unicode="&#xc5;" 
d="M45 0v74c0 133.333 47.667 353.666 143 660.999h124c95.333 -307.333 143 -527.666 143 -660.999v-74h-123v74c0 24 -1.33301 50.667 -4 80h-156c-2.66699 -29.333 -4 -56 -4 -80v-74h-123zM186 265h127.998c-13.333 87.333 -34.666 191.666 -63.999 312.999
c-29.333 -121.333 -50.666 -225.666 -63.999 -312.999zM137.998 857.5c0 24.333 5 44.8311 15 61.498c8.66699 15.333 20.667 27.333 36 36c16.667 10 37 14.833 61 14.5s44.333 -5.16602 61 -14.499c15.333 -8.66699 27.333 -20.667 36 -36c10 -16.667 15 -37 15 -61
s-5 -44.667 -15 -62c-8.66699 -15.333 -20.667 -27 -36 -35c-16.667 -10 -37 -15 -61 -15s-44.333 5 -61 15c-15.333 8.66699 -27.333 20.334 -36 35.001c-10 16.667 -15 37.167 -15 61.5zM212.998 857.998c0 -11.333 3.33301 -20.5 10 -27.5s15.667 -10.5 27 -10.5
s20.333 3.5 27 10.5s10 16.167 10 27.5s-3.33301 20.333 -10 27s-15.667 10 -27 10s-20.333 -3.33301 -27 -10s-10 -15.667 -10 -27z" />
    <glyph glyph-name="AE" unicode="&#xc6;" 
d="M45 0l-0.000976562 74c0 134 41.667 354.333 125 661h285v-111h-121v-172h97v-111h-97v-230h121v-111h-229v168h-69c-3.33301 -34.667 -4.66602 -66 -3.99902 -94v-74h-108zM167.999 265h58v323c-26 -125.333 -45.333 -233 -58 -323z" />
    <glyph glyph-name="Ccedilla" unicode="&#xc7;" 
d="M37 210l0.00195312 314.998c0 47.333 9.66699 88 29 122c16.667 28.667 39.667 51.334 69 68.001c32 18.667 70.667 28 116 28s84 -9.33301 116 -28c28.667 -16.667 51.667 -39.667 69 -69c12 -20.667 20 -42.667 24 -66l-119 -28c-2 13.333 -6.33301 25.666 -13 36.999
c-8 13.333 -18.333 24 -31 32c-12.667 7.33301 -28 11 -46 11c-17.333 0 -32.333 -3.66699 -45 -11s-22.667 -17.666 -30 -30.999c-10 -17.333 -15.333 -39 -16 -65v-315c0 -26 5.33301 -47.667 16 -65c8 -13.333 18.167 -23.666 30.5 -30.999s27.166 -11 44.499 -11
s32.666 3.66699 45.999 11c12.667 7.33301 23 18 31 32c6.66699 11.333 11 23.666 13 36.999l119 -28c-4.66699 -24 -12.667 -46 -24 -66c-16.667 -29.333 -39.667 -52.333 -69 -69c-32 -18.667 -70.667 -28 -116 -28s-84 9.33301 -116 28
c-28.667 16.667 -51.667 39.334 -69 68.001c-19.333 34 -29 74.667 -29 122zM150.002 -134.002h100.001c12.667 0 19 5.66699 19 17s-6.33301 17 -19 17h-44v100h88v-27c23.333 -7.33301 40.666 -21 51.999 -41c8 -14 12 -30.5 12 -49.5s-4 -35.5 -12 -49.5
c-8 -13.333 -19 -24 -33 -32c-17.333 -10 -38.333 -15 -63 -15h-100v80z" />
    <glyph glyph-name="Egrave" unicode="&#xc8;" 
d="M68 0v735h387v-111h-264v-172h203v-111h-203v-230h264v-111h-387zM108 912l84 73l145 -166l-69 -60z" />
    <glyph glyph-name="Eacute" unicode="&#xc9;" 
d="M68 0v735h387v-111h-264v-172h203v-111h-203v-230h264v-111h-387zM163 819l145 166l84 -73l-160 -153z" />
    <glyph glyph-name="Ecircumflex" unicode="&#xca;" 
d="M68 0v735h387v-111h-264v-172h203v-111h-203v-230h264v-111h-387zM53 833l138 146h118l138 -146l-89 -68l-108 139l-108 -139z" />
    <glyph glyph-name="Edieresis" unicode="&#xcb;" 
d="M68 0v735h387v-111h-264v-172h203v-111h-203v-230h264v-111h-387zM74 889.5c0 16.333 3.33398 30.5 10.001 42.5c6 10 14 18 24 24c11.333 6.66699 25.166 10 41.499 10s30.5 -3.33301 42.5 -10c10 -6 18 -14 24 -24c6.66699 -11.333 10 -25.166 10 -41.499
s-3.33301 -30.5 -10 -42.5c-6 -10 -14 -18 -24 -24c-12 -6.66699 -26 -10 -42 -10s-30 3.33301 -42 10c-10 6 -18 14 -24 24c-6.66699 11.333 -10 25.166 -10 41.499zM274.001 889.5c0 16.333 3.33398 30.5 10.001 42.5c6 10 14 18 24 24
c11.333 6.66699 25.166 10 41.499 10s30.5 -3.33301 42.5 -10c10 -6 18 -14 24 -24c6.66699 -11.333 10 -25.166 10 -41.499s-3.33301 -30.5 -10 -42.5c-6 -10 -14 -18 -24 -24c-12 -6.66699 -26 -10 -42 -10s-30 3.33301 -42 10c-10 6 -18 14 -24 24
c-6.66699 11.333 -10 25.166 -10 41.499z" />
    <glyph glyph-name="Igrave" unicode="&#xcc;" 
d="M110 0v111h78v513h-78v111h280v-111h-78v-513h78v-111h-280zM108 912l84 73l145 -166l-69 -60z" />
    <glyph glyph-name="Iacute" unicode="&#xcd;" 
d="M110 0v111h78v513h-78v111h280v-111h-78v-513h78v-111h-280zM163 819l145 166l84 -73l-160 -153z" />
    <glyph glyph-name="Icircumflex" unicode="&#xce;" 
d="M110 0v111h78v513h-78v111h280v-111h-78v-513h78v-111h-280zM53 833l138 146h118l138 -146l-89 -68l-108 139l-108 -139z" />
    <glyph glyph-name="Idieresis" unicode="&#xcf;" 
d="M110 0v111h78v513h-78v111h280v-111h-78v-513h78v-111h-280zM74 889.5c0 16.333 3.33398 30.5 10.001 42.5c6 10 14 18 24 24c11.333 6.66699 25.166 10 41.499 10s30.5 -3.33301 42.5 -10c10 -6 18 -14 24 -24c6.66699 -11.333 10 -25.166 10 -41.499
s-3.33301 -30.5 -10 -42.5c-6 -10 -14 -18 -24 -24c-12 -6.66699 -26 -10 -42 -10s-30 3.33301 -42 10c-10 6 -18 14 -24 24c-6.66699 11.333 -10 25.166 -10 41.499zM274.001 889.5c0 16.333 3.33398 30.5 10.001 42.5c6 10 14 18 24 24
c11.333 6.66699 25.166 10 41.499 10s30.5 -3.33301 42.5 -10c10 -6 18 -14 24 -24c6.66699 -11.333 10 -25.166 10 -41.499s-3.33301 -30.5 -10 -42.5c-6 -10 -14 -18 -24 -24c-12 -6.66699 -26 -10 -42 -10s-30 3.33301 -42 10c-10 6 -18 14 -24 24
c-6.66699 11.333 -10 25.166 -10 41.499z" />
    <glyph glyph-name="Eth" unicode="&#xd0;" 
d="M14 339v86h31v310h179c45.333 0 85 -10 119 -30c32.667 -18.667 59.334 -46 80.001 -82c26.667 -46 40 -103 40 -171v-168c0 -68 -13.333 -125.333 -40 -172c-20.667 -36 -47.334 -63.333 -80.001 -82c-34 -20 -73.667 -30 -119 -30h-179v339h-31zM168 111
l56 0.000976562c18 0 34.333 4 49 12c16 9.33301 29.333 23.666 40 42.999c17.333 30.667 26.333 70 27 118v168c0 48 -9 87 -27 117c-10.667 18.667 -24 33 -40 43c-14.667 8 -31 12 -49 12h-56v-199h91v-86h-91v-228z" />
    <glyph glyph-name="Ntilde" unicode="&#xd1;" 
d="M45 0v735h130l177 -544l-4 30c-11.333 78 -16.666 151.333 -15.999 220v294h123v-735h-130l-177 544l4 -30c11.333 -78 16.666 -151.333 15.999 -220v-294h-123zM56 829c9.33301 20.667 18.666 38.668 27.999 54.001c21.333 36.667 43 61.334 65 74.001
c14 8 28.667 12 44 12s30 -4 44 -12c14.667 -8.66699 32.334 -26.334 53.001 -53.001l17 -22c14 15.333 30.333 43.666 49 84.999l88 -36c-9.33301 -20.667 -18.666 -38.667 -27.999 -54c-21.333 -36.667 -43 -61.334 -65 -74.001c-14 -8 -28.667 -12.333 -44 -13
c-15.333 0 -30 4 -44 12c-14.667 8.66699 -32.334 26.667 -53.001 54l-17 22c-14 -15.333 -30.333 -43.666 -49 -84.999z" />
    <glyph glyph-name="Ograve" unicode="&#xd2;" 
d="M37 210v315c0 47.333 9.66699 88 29 122c16.667 28.667 39.667 51.334 69 68.001c32 18.667 70.333 28 115 28s83 -9.33301 115 -28c29.333 -16.667 52.333 -39.334 69 -68.001c19.333 -34 29 -74.667 29 -122v-315c0 -47.333 -9.66699 -88 -29 -122
c-16.667 -28.667 -39.667 -51.334 -69 -68.001c-32 -18.667 -70.333 -28 -115 -28s-83 9.33301 -115 28c-29.333 16.667 -52.333 39.334 -69 68.001c-19.333 34 -29 74.667 -29 122zM160 210c0 -26 5.33301 -47.667 16 -65c8 -13.333 18.167 -23.666 30.5 -30.999
s26.833 -11 43.5 -11s31.334 3.66699 44.001 11s22.667 17.666 30 30.999c10 17.333 15.333 39 16 65v315c0 26 -5.33301 47.667 -16 65c-8 13.333 -18.167 23.666 -30.5 30.999s-26.833 11 -43.5 11s-31.334 -3.66699 -44.001 -11s-22.667 -17.666 -30 -30.999
c-10 -17.333 -15.333 -39 -16 -65v-315zM108 912l84 73l145 -166l-69 -60z" />
    <glyph glyph-name="Oacute" unicode="&#xd3;" 
d="M37 210v315c0 47.333 9.66699 88 29 122c16.667 28.667 39.667 51.334 69 68.001c32 18.667 70.333 28 115 28s83 -9.33301 115 -28c29.333 -16.667 52.333 -39.334 69 -68.001c19.333 -34 29 -74.667 29 -122v-315c0 -47.333 -9.66699 -88 -29 -122
c-16.667 -28.667 -39.667 -51.334 -69 -68.001c-32 -18.667 -70.333 -28 -115 -28s-83 9.33301 -115 28c-29.333 16.667 -52.333 39.334 -69 68.001c-19.333 34 -29 74.667 -29 122zM160 210c0 -26 5.33301 -47.667 16 -65c8 -13.333 18.167 -23.666 30.5 -30.999
s26.833 -11 43.5 -11s31.334 3.66699 44.001 11s22.667 17.666 30 30.999c10 17.333 15.333 39 16 65v315c0 26 -5.33301 47.667 -16 65c-8 13.333 -18.167 23.666 -30.5 30.999s-26.833 11 -43.5 11s-31.334 -3.66699 -44.001 -11s-22.667 -17.666 -30 -30.999
c-10 -17.333 -15.333 -39 -16 -65v-315zM163 819l145 166l84 -73l-160 -153z" />
    <glyph glyph-name="Ocircumflex" unicode="&#xd4;" 
d="M37 210v315c0 47.333 9.66699 88 29 122c16.667 28.667 39.667 51.334 69 68.001c32 18.667 70.333 28 115 28s83 -9.33301 115 -28c29.333 -16.667 52.333 -39.334 69 -68.001c19.333 -34 29 -74.667 29 -122v-315c0 -47.333 -9.66699 -88 -29 -122
c-16.667 -28.667 -39.667 -51.334 -69 -68.001c-32 -18.667 -70.333 -28 -115 -28s-83 9.33301 -115 28c-29.333 16.667 -52.333 39.334 -69 68.001c-19.333 34 -29 74.667 -29 122zM160 210c0 -26 5.33301 -47.667 16 -65c8 -13.333 18.167 -23.666 30.5 -30.999
s26.833 -11 43.5 -11s31.334 3.66699 44.001 11s22.667 17.666 30 30.999c10 17.333 15.333 39 16 65v315c0 26 -5.33301 47.667 -16 65c-8 13.333 -18.167 23.666 -30.5 30.999s-26.833 11 -43.5 11s-31.334 -3.66699 -44.001 -11s-22.667 -17.666 -30 -30.999
c-10 -17.333 -15.333 -39 -16 -65v-315zM53 833l138 146h118l138 -146l-89 -68l-108 139l-108 -139z" />
    <glyph glyph-name="Otilde" unicode="&#xd5;" 
d="M37 210v315c0 47.333 9.66699 88 29 122c16.667 28.667 39.667 51.334 69 68.001c32 18.667 70.333 28 115 28s83 -9.33301 115 -28c29.333 -16.667 52.333 -39.334 69 -68.001c19.333 -34 29 -74.667 29 -122v-315c0 -47.333 -9.66699 -88 -29 -122
c-16.667 -28.667 -39.667 -51.334 -69 -68.001c-32 -18.667 -70.333 -28 -115 -28s-83 9.33301 -115 28c-29.333 16.667 -52.333 39.334 -69 68.001c-19.333 34 -29 74.667 -29 122zM160 210c0 -26 5.33301 -47.667 16 -65c8 -13.333 18.167 -23.666 30.5 -30.999
s26.833 -11 43.5 -11s31.334 3.66699 44.001 11s22.667 17.666 30 30.999c10 17.333 15.333 39 16 65v315c0 26 -5.33301 47.667 -16 65c-8 13.333 -18.167 23.666 -30.5 30.999s-26.833 11 -43.5 11s-31.334 -3.66699 -44.001 -11s-22.667 -17.666 -30 -30.999
c-10 -17.333 -15.333 -39 -16 -65v-315zM56 829c9.33301 20.667 18.666 38.668 27.999 54.001c21.333 36.667 43 61.334 65 74.001c14 8 28.667 12 44 12s30 -4 44 -12c14.667 -8.66699 32.334 -26.334 53.001 -53.001l17 -22c14 15.333 30.333 43.666 49 84.999l88 -36
c-9.33301 -20.667 -18.666 -38.667 -27.999 -54c-21.333 -36.667 -43 -61.334 -65 -74.001c-14 -8 -28.667 -12.333 -44 -13c-15.333 0 -30 4 -44 12c-14.667 8.66699 -32.334 26.667 -53.001 54l-17 22c-14 -15.333 -30.333 -43.666 -49 -84.999z" />
    <glyph glyph-name="Odieresis" unicode="&#xd6;" 
d="M37 210v315c0 47.333 9.66699 88 29 122c16.667 28.667 39.667 51.334 69 68.001c32 18.667 70.333 28 115 28s83 -9.33301 115 -28c29.333 -16.667 52.333 -39.334 69 -68.001c19.333 -34 29 -74.667 29 -122v-315c0 -47.333 -9.66699 -88 -29 -122
c-16.667 -28.667 -39.667 -51.334 -69 -68.001c-32 -18.667 -70.333 -28 -115 -28s-83 9.33301 -115 28c-29.333 16.667 -52.333 39.334 -69 68.001c-19.333 34 -29 74.667 -29 122zM160 210c0 -26 5.33301 -47.667 16 -65c8 -13.333 18.167 -23.666 30.5 -30.999
s26.833 -11 43.5 -11s31.334 3.66699 44.001 11s22.667 17.666 30 30.999c10 17.333 15.333 39 16 65v315c0 26 -5.33301 47.667 -16 65c-8 13.333 -18.167 23.666 -30.5 30.999s-26.833 11 -43.5 11s-31.334 -3.66699 -44.001 -11s-22.667 -17.666 -30 -30.999
c-10 -17.333 -15.333 -39 -16 -65v-315zM74 889.5c0 16.333 3.33398 30.5 10.001 42.5c6 10 14 18 24 24c11.333 6.66699 25.166 10 41.499 10s30.5 -3.33301 42.5 -10c10 -6 18 -14 24 -24c6.66699 -11.333 10 -25.166 10 -41.499s-3.33301 -30.5 -10 -42.5
c-6 -10 -14 -18 -24 -24c-12 -6.66699 -26 -10 -42 -10s-30 3.33301 -42 10c-10 6 -18 14 -24 24c-6.66699 11.333 -10 25.166 -10 41.499zM274.001 889.5c0 16.333 3.33398 30.5 10.001 42.5c6 10 14 18 24 24c11.333 6.66699 25.166 10 41.499 10s30.5 -3.33301 42.5 -10
c10 -6 18 -14 24 -24c6.66699 -11.333 10 -25.166 10 -41.499s-3.33301 -30.5 -10 -42.5c-6 -10 -14 -18 -24 -24c-12 -6.66699 -26 -10 -42 -10s-30 3.33301 -42 10c-10 6 -18 14 -24 24c-6.66699 11.333 -10 25.166 -10 41.499z" />
    <glyph glyph-name="multiply" unicode="&#xd7;" 
d="M5 162l170 169l-170 170l80 71l165 -165l165 165l80 -71l-170 -170l170 -169l-80 -71l-165 165l-165 -165z" />
    <glyph glyph-name="Oslash" unicode="&#xd8;" 
d="M36 -20l39 94c-3.33301 4.66699 -6.33301 9.33398 -9 14.001c-19.333 34 -29 74.667 -29 122v315c0 47.333 9.66699 88 29 122c16.667 28.667 39.667 51.334 69 68.001c32 18.667 70.333 28 115 28c37.333 0 70.333 -6.33301 99 -19l27 64l88 -33l-39 -94
c3.33301 -4.66699 6.33301 -9.33398 9 -14.001c19.333 -34 29 -74.667 29 -122v-315c0 -47.333 -9.66699 -88 -29 -122c-16.667 -28.667 -39.667 -51.334 -69 -68.001c-32 -18.667 -70.333 -28 -115 -28c-37.333 0 -70.333 6.33301 -99 19l-27 -64zM160 276l143.002 338.999
c-2.66699 2 -5.66699 4 -9 6c-12.667 7.33301 -27.334 11 -44.001 11s-31.334 -3.66699 -44.001 -11s-22.667 -17.666 -30 -30.999c-10 -17.333 -15.333 -39 -16 -65v-249zM197.002 119.999c2.66699 -2 5.66504 -3.99902 8.99805 -5.99902
c12.667 -7.33301 27.334 -11 44.001 -11s31.334 3.66699 44.001 11s22.667 17.666 30 30.999c10 17.333 15.333 39 16 65v249z" />
    <glyph glyph-name="Ugrave" unicode="&#xd9;" 
d="M45 210l0.00292969 525.001h123v-525c0 -27.333 5.33301 -50 16 -68c7.33301 -12.667 16.666 -22.667 27.999 -30c10.667 -6 23.167 -9 37.5 -9s27.166 3 38.499 9c11.333 6.66699 20.666 16.667 27.999 30c10.667 18 16 40.667 16 68v525h123v-525
c0 -48.667 -10 -90 -30 -124c-16.667 -28.667 -39 -51.334 -67 -68.001c-30 -17.333 -66 -26 -108 -26s-78 8.66699 -108 26c-28 16 -50.333 38.667 -67 68c-20 34 -30 75.333 -30 124zM108.003 912.001l84 73l145 -166l-69 -60z" />
    <glyph glyph-name="Uacute" unicode="&#xda;" 
d="M45 210l0.00292969 525.001h123v-525c0 -27.333 5.33301 -50 16 -68c7.33301 -12.667 16.666 -22.667 27.999 -30c10.667 -6 23.167 -9 37.5 -9s27.166 3 38.499 9c11.333 6.66699 20.666 16.667 27.999 30c10.667 18 16 40.667 16 68v525h123v-525
c0 -48.667 -10 -90 -30 -124c-16.667 -28.667 -39 -51.334 -67 -68.001c-30 -17.333 -66 -26 -108 -26s-78 8.66699 -108 26c-28 16 -50.333 38.667 -67 68c-20 34 -30 75.333 -30 124zM163.003 819.001l145 166l84 -73l-160 -153z" />
    <glyph glyph-name="Ucircumflex" unicode="&#xdb;" 
d="M45 210l0.00292969 525.001h123v-525c0 -27.333 5.33301 -50 16 -68c7.33301 -12.667 16.666 -22.667 27.999 -30c10.667 -6 23.167 -9 37.5 -9s27.166 3 38.499 9c11.333 6.66699 20.666 16.667 27.999 30c10.667 18 16 40.667 16 68v525h123v-525
c0 -48.667 -10 -90 -30 -124c-16.667 -28.667 -39 -51.334 -67 -68.001c-30 -17.333 -66 -26 -108 -26s-78 8.66699 -108 26c-28 16 -50.333 38.667 -67 68c-20 34 -30 75.333 -30 124zM53.0029 833.001l138 146h118l138 -146l-89 -68l-108 139l-108 -139z" />
    <glyph glyph-name="Udieresis" unicode="&#xdc;" 
d="M45 210l0.00292969 525.001h123v-525c0 -27.333 5.33301 -50 16 -68c7.33301 -12.667 16.666 -22.667 27.999 -30c10.667 -6 23.167 -9 37.5 -9s27.166 3 38.499 9c11.333 6.66699 20.666 16.667 27.999 30c10.667 18 16 40.667 16 68v525h123v-525
c0 -48.667 -10 -90 -30 -124c-16.667 -28.667 -39 -51.334 -67 -68.001c-30 -17.333 -66 -26 -108 -26s-78 8.66699 -108 26c-28 16 -50.333 38.667 -67 68c-20 34 -30 75.333 -30 124zM74.0029 889.501c0 16.333 3.33398 30.5 10.001 42.5c6 10 14 18 24 24
c11.333 6.66699 25.166 10 41.499 10s30.5 -3.33301 42.5 -10c10 -6 18 -14 24 -24c6.66699 -11.333 10 -25.166 10 -41.499s-3.33301 -30.5 -10 -42.5c-6 -10 -14 -18 -24 -24c-12 -6.66699 -26 -10 -42 -10s-30 3.33301 -42 10c-10 6 -18 14 -24 24
c-6.66699 11.333 -10 25.166 -10 41.499zM274.004 889.501c0 16.333 3.33398 30.5 10.001 42.5c6 10 14 18 24 24c11.333 6.66699 25.166 10 41.499 10s30.5 -3.33301 42.5 -10c10 -6 18 -14 24 -24c6.66699 -11.333 10 -25.166 10 -41.499s-3.33301 -30.5 -10 -42.5
c-6 -10 -14 -18 -24 -24c-12 -6.66699 -26 -10 -42 -10s-30 3.33301 -42 10c-10 6 -18 14 -24 24c-6.66699 11.333 -10 25.166 -10 41.499z" />
    <glyph glyph-name="Yacute" unicode="&#xdd;" 
d="M45 691v44h123v-44c0 -66 17 -133 51 -201l31 -61l31 61c34 67.333 51 134.333 51 201v44h123v-44c0 -82 -21.333 -165.333 -64 -250l-79 -159v-282h-124v282l-79 159c-42.667 84.667 -64 168 -64 250zM163 819l145 166l84 -73l-160 -153z" />
    <glyph glyph-name="Thorn" unicode="&#xde;" 
d="M56 0v734.999h124v-140h47c52 0 96.333 -10.333 133 -31c31.333 -18 56 -42.667 74 -74c19.333 -34 29 -74.833 29 -122.5s-9.66699 -88.5 -29 -122.5c-18 -31.333 -42.667 -56 -74 -74c-36.667 -21.333 -81 -31.666 -133 -30.999h-47v-140h-124zM180 250.999
l47.001 0.000976562c23.333 0 43.666 4.66699 60.999 14c15.333 8.66699 27.333 21 36 37c10.667 18 16 39.833 16 65.5s-5.33301 47.5 -16 65.5c-9.33301 15.333 -21.333 27.666 -36 36.999c-16.667 10 -37 14.667 -61 14h-47v-233z" />
    <glyph glyph-name="germandbls" unicode="&#xdf;" 
d="M45 0v529.998c0 49.333 10 91.333 30 126c16 27.333 37 48.666 63 63.999c27.333 15.333 59.333 23 96 23s68.667 -7.66699 96 -23c26 -15.333 47 -36.666 63 -63.999c13.333 -22.667 22 -48 26 -76l-119 -28c-4 36.667 -17 61 -39 73c-8 4.66699 -17 7 -27 7
s-19 -2.33301 -27 -7c-9.33301 -5.33301 -17 -13.333 -23 -24c-10.667 -18 -16 -41.667 -16 -71v-16h296l-103 -228c10.667 -3.33301 20.334 -7.66602 29.001 -12.999c24 -14 43 -32.667 57 -56c13.333 -23.333 20 -48.666 20 -75.999
c0 -49.333 -14.333 -98.666 -43 -147.999c-38.667 -66.667 -96.334 -122.334 -173.001 -167.001c-20.667 -12 -41.667 -22.333 -63 -31l-47 102c17.333 6.66699 34 15 50 25c54.667 31.333 95.667 70.666 123 117.999c20 34.667 30 68.334 30 101.001c0 10.667 -4 20 -12 28
c-13.333 13.333 -38.333 20 -75 20h-75l97 215h-111v-404h-123z" />
    <glyph glyph-name="agrave" unicode="&#xe0;" 
d="M37 158c0 32.667 6.66895 60.3311 20.002 82.998c14.667 24.667 35.667 45 63 61c38.667 22.667 88.667 34.334 150 35.001h62v20c0 12.667 -3 24 -9 34s-14 18 -24 24c-14 8 -31.333 12 -52 12s-38 -4 -52 -12c-11.333 -6.66699 -20.333 -15.667 -27 -27
c-4 -6.66699 -6.66699 -13.667 -8 -21l-118 33c3.33301 16 9.66602 31.333 18.999 46c15.333 26.667 36.333 47.667 63 63c32.667 19.333 73.667 29 123 29s90.666 -9.66699 123.999 -29c26.667 -15.333 47.334 -35.666 62.001 -60.999s22 -55.666 22 -90.999v-357h-123v63
c-14 -20.667 -31.667 -37.334 -53 -50.001c-24.667 -14 -53 -21 -85 -21c-32.667 0 -60.334 6.66699 -83.001 20c-21.333 12.667 -38.333 30 -51 52c-15.333 26.667 -23 58 -23 94zM160.002 158.997c0 -14 4.66602 -25.667 13.999 -35c14 -14 35 -21 63 -21
c20 0 37.333 4.33301 52 13c12.667 7.33301 22.667 17.333 30 30c8.66699 14.667 13 32 13 52v28h-62c-32.667 0 -58.667 -5.66699 -78 -17c-11.333 -6.66699 -19.666 -14.667 -24.999 -24c-4.66699 -7.33301 -7 -16 -7 -26zM108.001 706.997l84 73l145 -166l-69 -60z" />
    <glyph glyph-name="aacute" unicode="&#xe1;" 
d="M37 158c0 32.667 6.66895 60.3311 20.002 82.998c14.667 24.667 35.667 45 63 61c38.667 22.667 88.667 34.334 150 35.001h62v20c0 12.667 -3 24 -9 34s-14 18 -24 24c-14 8 -31.333 12 -52 12s-38 -4 -52 -12c-11.333 -6.66699 -20.333 -15.667 -27 -27
c-4 -6.66699 -6.66699 -13.667 -8 -21l-118 33c3.33301 16 9.66602 31.333 18.999 46c15.333 26.667 36.333 47.667 63 63c32.667 19.333 73.667 29 123 29s90.666 -9.66699 123.999 -29c26.667 -15.333 47.334 -35.666 62.001 -60.999s22 -55.666 22 -90.999v-357h-123v63
c-14 -20.667 -31.667 -37.334 -53 -50.001c-24.667 -14 -53 -21 -85 -21c-32.667 0 -60.334 6.66699 -83.001 20c-21.333 12.667 -38.333 30 -51 52c-15.333 26.667 -23 58 -23 94zM160.002 158.997c0 -14 4.66602 -25.667 13.999 -35c14 -14 35 -21 63 -21
c20 0 37.333 4.33301 52 13c12.667 7.33301 22.667 17.333 30 30c8.66699 14.667 13 32 13 52v28h-62c-32.667 0 -58.667 -5.66699 -78 -17c-11.333 -6.66699 -19.666 -14.667 -24.999 -24c-4.66699 -7.33301 -7 -16 -7 -26zM163.001 613.997l145 166l84 -73l-160 -153z" />
    <glyph glyph-name="acircumflex" unicode="&#xe2;" 
d="M37 158c0 32.667 6.66895 60.3311 20.002 82.998c14.667 24.667 35.667 45 63 61c38.667 22.667 88.667 34.334 150 35.001h62v20c0 12.667 -3 24 -9 34s-14 18 -24 24c-14 8 -31.333 12 -52 12s-38 -4 -52 -12c-11.333 -6.66699 -20.333 -15.667 -27 -27
c-4 -6.66699 -6.66699 -13.667 -8 -21l-118 33c3.33301 16 9.66602 31.333 18.999 46c15.333 26.667 36.333 47.667 63 63c32.667 19.333 73.667 29 123 29s90.666 -9.66699 123.999 -29c26.667 -15.333 47.334 -35.666 62.001 -60.999s22 -55.666 22 -90.999v-357h-123v63
c-14 -20.667 -31.667 -37.334 -53 -50.001c-24.667 -14 -53 -21 -85 -21c-32.667 0 -60.334 6.66699 -83.001 20c-21.333 12.667 -38.333 30 -51 52c-15.333 26.667 -23 58 -23 94zM160.002 158.997c0 -14 4.66602 -25.667 13.999 -35c14 -14 35 -21 63 -21
c20 0 37.333 4.33301 52 13c12.667 7.33301 22.667 17.333 30 30c8.66699 14.667 13 32 13 52v28h-62c-32.667 0 -58.667 -5.66699 -78 -17c-11.333 -6.66699 -19.666 -14.667 -24.999 -24c-4.66699 -7.33301 -7 -16 -7 -26zM53.001 627.997l138 146h118l138 -146l-89 -68
l-108 139l-108 -139z" />
    <glyph glyph-name="atilde" unicode="&#xe3;" 
d="M37 158c0 32.667 6.66895 60.3311 20.002 82.998c14.667 24.667 35.667 45 63 61c38.667 22.667 88.667 34.334 150 35.001h62v20c0 12.667 -3 24 -9 34s-14 18 -24 24c-14 8 -31.333 12 -52 12s-38 -4 -52 -12c-11.333 -6.66699 -20.333 -15.667 -27 -27
c-4 -6.66699 -6.66699 -13.667 -8 -21l-118 33c3.33301 16 9.66602 31.333 18.999 46c15.333 26.667 36.333 47.667 63 63c32.667 19.333 73.667 29 123 29s90.666 -9.66699 123.999 -29c26.667 -15.333 47.334 -35.666 62.001 -60.999s22 -55.666 22 -90.999v-357h-123v63
c-14 -20.667 -31.667 -37.334 -53 -50.001c-24.667 -14 -53 -21 -85 -21c-32.667 0 -60.334 6.66699 -83.001 20c-21.333 12.667 -38.333 30 -51 52c-15.333 26.667 -23 58 -23 94zM160.002 158.997c0 -14 4.66602 -25.667 13.999 -35c14 -14 35 -21 63 -21
c20 0 37.333 4.33301 52 13c12.667 7.33301 22.667 17.333 30 30c8.66699 14.667 13 32 13 52v28h-62c-32.667 0 -58.667 -5.66699 -78 -17c-11.333 -6.66699 -19.666 -14.667 -24.999 -24c-4.66699 -7.33301 -7 -16 -7 -26zM56.001 623.997
c9.33301 20.667 18.666 38.668 27.999 54.001c21.333 36.667 43 61.334 65 74.001c14 8 28.667 12 44 12s30 -4 44 -12c14.667 -8.66699 32.334 -26.334 53.001 -53.001l17 -22c14 15.333 30.333 43.666 49 84.999l88 -36c-9.33301 -20.667 -18.666 -38.667 -27.999 -54
c-21.333 -36.667 -43 -61.334 -65 -74.001c-14 -8 -28.667 -12.333 -44 -13c-15.333 0 -30 4 -44 12c-14.667 8.66699 -32.334 26.667 -53.001 54l-17 22c-14 -15.333 -30.333 -43.666 -49 -84.999z" />
    <glyph glyph-name="adieresis" unicode="&#xe4;" 
d="M37 158c0 32.667 6.66895 60.3311 20.002 82.998c14.667 24.667 35.667 45 63 61c38.667 22.667 88.667 34.334 150 35.001h62v20c0 12.667 -3 24 -9 34s-14 18 -24 24c-14 8 -31.333 12 -52 12s-38 -4 -52 -12c-11.333 -6.66699 -20.333 -15.667 -27 -27
c-4 -6.66699 -6.66699 -13.667 -8 -21l-118 33c3.33301 16 9.66602 31.333 18.999 46c15.333 26.667 36.333 47.667 63 63c32.667 19.333 73.667 29 123 29s90.666 -9.66699 123.999 -29c26.667 -15.333 47.334 -35.666 62.001 -60.999s22 -55.666 22 -90.999v-357h-123v63
c-14 -20.667 -31.667 -37.334 -53 -50.001c-24.667 -14 -53 -21 -85 -21c-32.667 0 -60.334 6.66699 -83.001 20c-21.333 12.667 -38.333 30 -51 52c-15.333 26.667 -23 58 -23 94zM160.002 158.997c0 -14 4.66602 -25.667 13.999 -35c14 -14 35 -21 63 -21
c20 0 37.333 4.33301 52 13c12.667 7.33301 22.667 17.333 30 30c8.66699 14.667 13 32 13 52v28h-62c-32.667 0 -58.667 -5.66699 -78 -17c-11.333 -6.66699 -19.666 -14.667 -24.999 -24c-4.66699 -7.33301 -7 -16 -7 -26zM74.001 684.497
c0 16.333 3.33398 30.5 10.001 42.5c6 10 14 18 24 24c11.333 6.66699 25.166 10 41.499 10s30.5 -3.33301 42.5 -10c10 -6 18 -14 24 -24c6.66699 -11.333 10 -25.166 10 -41.499s-3.33301 -30.5 -10 -42.5c-6 -10 -14 -18 -24 -24c-12 -6.66699 -26 -10 -42 -10
s-30 3.33301 -42 10c-10 6 -18 14 -24 24c-6.66699 11.333 -10 25.166 -10 41.499zM274.002 684.497c0 16.333 3.33398 30.5 10.001 42.5c6 10 14 18 24 24c11.333 6.66699 25.166 10 41.499 10s30.5 -3.33301 42.5 -10c10 -6 18 -14 24 -24
c6.66699 -11.333 10 -25.166 10 -41.499s-3.33301 -30.5 -10 -42.5c-6 -10 -14 -18 -24 -24c-12 -6.66699 -26 -10 -42 -10s-30 3.33301 -42 10c-10 6 -18 14 -24 24c-6.66699 11.333 -10 25.166 -10 41.499z" />
    <glyph glyph-name="aring" unicode="&#xe5;" 
d="M37 158c0 32.667 6.66895 60.3311 20.002 82.998c14.667 24.667 35.667 45 63 61c38.667 22.667 88.667 34.334 150 35.001h62v20c0 12.667 -3 24 -9 34s-14 18 -24 24c-14 8 -31.333 12 -52 12s-38 -4 -52 -12c-11.333 -6.66699 -20.333 -15.667 -27 -27
c-4 -6.66699 -6.66699 -13.667 -8 -21l-118 33c3.33301 16 9.66602 31.333 18.999 46c15.333 26.667 36.333 47.667 63 63c32.667 19.333 73.667 29 123 29s90.666 -9.66699 123.999 -29c26.667 -15.333 47.334 -35.666 62.001 -60.999s22 -55.666 22 -90.999v-357h-123v63
c-14 -20.667 -31.667 -37.334 -53 -50.001c-24.667 -14 -53 -21 -85 -21c-32.667 0 -60.334 6.66699 -83.001 20c-21.333 12.667 -38.333 30 -51 52c-15.333 26.667 -23 58 -23 94zM160.002 158.997c0 -14 4.66602 -25.667 13.999 -35c14 -14 35 -21 63 -21
c20 0 37.333 4.33301 52 13c12.667 7.33301 22.667 17.333 30 30c8.66699 14.667 13 32 13 52v28h-62c-32.667 0 -58.667 -5.66699 -78 -17c-11.333 -6.66699 -19.666 -14.667 -24.999 -24c-4.66699 -7.33301 -7 -16 -7 -26zM138.001 652.497c0 24.333 5 44.8311 15 61.498
c8.66699 15.333 20.667 27.333 36 36c16.667 10 37 14.833 61 14.5s44.333 -5.16602 61 -14.499c15.333 -8.66699 27.333 -20.667 36 -36c10 -16.667 15 -37 15 -61s-5 -44.667 -15 -62c-8.66699 -15.333 -20.667 -27 -36 -35c-16.667 -10 -37 -15 -61 -15s-44.333 5 -61 15
c-15.333 8.66699 -27.333 20.334 -36 35.001c-10 16.667 -15 37.167 -15 61.5zM213.001 652.995c0 -11.333 3.33301 -20.5 10 -27.5s15.667 -10.5 27 -10.5s20.333 3.5 27 10.5s10 16.167 10 27.5s-3.33301 20.333 -10 27s-15.667 10 -27 10s-20.333 -3.33301 -27 -10
s-10 -15.667 -10 -27z" />
    <glyph glyph-name="ae" unicode="&#xe6;" 
d="M29 151c0 38 8.00098 70.6689 24.001 98.002c14.667 25.333 35 45.666 61 60.999c24 13.333 51.333 21.666 82 24.999v63c0 16.667 -3.66699 28.667 -11 36c-4.66699 4.66699 -10.334 7 -17.001 7c-6 0 -11.333 -2.33301 -16 -7c-8 -8 -12 -21 -12 -39v-1l-108 6v4
c0 26.667 6.33301 50.667 19 72c10.667 18.667 25.334 33.334 44.001 44.001c20.667 12 45.167 18 73.5 18s52.5 -6 72.5 -18c3.33301 -2 6.33301 -4 9 -6c2.66699 2 5.66699 4 9 6c20.667 12 45.5 18 74.5 18s53.833 -6 74.5 -18
c18.667 -10.667 33.334 -25.334 44.001 -44.001c12.667 -21.333 19 -47.333 19 -78v-188h-167v-78c0 -15.333 4 -27 12 -35c5.33301 -5.33301 12 -8 20 -8s14.667 2.66699 20 8c8.66699 8.66699 12.667 21 12 37v2l108 -6v-4c0 -26 -6.33301 -49.667 -19 -71
c-10.667 -18.667 -25.334 -33.667 -44.001 -45c-21.333 -12 -47 -18 -77 -18s-55.667 6 -77 18c-3.33301 2 -6.33301 4 -9 6c-3.33301 -2 -6.33301 -4 -9 -6c-20.667 -12 -45.334 -18 -74.001 -18c-26.667 0 -49.667 5.66699 -69 17s-35 27 -47 47
c-14.667 26 -22 57.667 -22 95zM137.001 150.002c0 -26.667 4.99902 -45 14.999 -55c4 -4 9 -6 15 -6c6.66699 0 12.334 2.33301 17.001 7c8 8 12 20 12 36v104c-6.66699 -2 -13 -4.66699 -19 -8c-12 -6.66699 -21.667 -16.334 -29 -29.001
c-8 -13.333 -11.667 -29.666 -11 -48.999zM304 306.002h59v92c0 16 -3.66699 28 -11 36c-4.66699 4.66699 -10.667 7 -18 7s-13.333 -2.33301 -18 -7c-8 -8 -12 -20 -12 -36v-92z" />
    <glyph glyph-name="ccedilla" unicode="&#xe7;" 
d="M37 220l0.00195312 90c0 50.667 10.333 94 31 130c17.333 30 40.666 53.333 69.999 70c32 18.667 70 28 114 28s81.667 -9.33301 113 -28c29.333 -16.667 52.666 -40 69.999 -70c11.333 -20 19.666 -41.667 24.999 -65l-118 -32c-2.66699 14.667 -7.33398 28 -14.001 40
c-8 14.667 -18.667 25.667 -32 33c-12.667 7.33301 -27.334 11 -44.001 11c-16 0 -30.333 -3.66699 -43 -11s-23.334 -18 -32.001 -32c-11.333 -20 -17 -44.667 -17 -74v-90c0 -30 5.66699 -54.667 17 -74c8 -14 18.667 -24.667 32 -32c12 -7.33301 26.333 -11 43 -11
s31.334 3.66699 44.001 11c13.333 7.33301 24 18.333 32 33c6.66699 12 11.334 25.333 14.001 40l118 -32c-4.66699 -23.333 -13 -45 -25 -65c-17.333 -30 -40.666 -53.333 -69.999 -70c-32 -18.667 -69.833 -28 -113.5 -28s-81.5 9.33301 -113.5 28
c-29.333 16.667 -52.666 40 -69.999 70c-20.667 36 -31 79.333 -31 130zM150.002 -134h100.001c12.667 0 19 5.66699 19 17s-6.33301 17 -19 17h-44v100h88v-27c23.333 -7.33301 40.666 -21 51.999 -41c8 -14 12 -30.5 12 -49.5s-4 -35.5 -12 -49.5
c-8 -13.333 -19 -24 -33 -32c-17.333 -10 -38.333 -15 -63 -15h-100v80z" />
    <glyph glyph-name="egrave" unicode="&#xe8;" 
d="M37 220l0.00488281 90.001c0 51.333 10.333 95 31 131c17.333 30 40.666 53.333 69.999 70c31.333 18 68.666 27 111.999 27s80.666 -9 111.999 -27c29.333 -16.667 52.666 -40 69.999 -70c20.667 -36 31 -79.667 31 -131v-100h-302
c1.33301 -24 6.66602 -44.667 15.999 -62c8.66699 -14.667 19.667 -25.667 33 -33c13.333 -8 29 -12 47 -12c18.667 0 35.334 4 50.001 12c14 8 25 19.333 33 34c4 7.33301 7.33301 15 10 23l114 -42c-4.66699 -13.333 -10.334 -26 -17.001 -38
c-17.333 -30.667 -41 -54.334 -71 -71.001c-33.333 -19.333 -73 -29 -119 -29s-85.333 9.66699 -118 29c-30 17.333 -53.667 41 -71 71c-20.667 35.333 -31 78 -31 128zM161.005 320.001h177.999c-1.33301 25.333 -6.66602 47 -15.999 65c-8 14 -18.667 24.667 -32 32
c-12 6.66699 -25.833 10 -41.5 10s-29.167 -3.33301 -40.5 -10c-12.667 -7.33301 -23.334 -18 -32.001 -32c-9.33301 -18 -14.666 -39.667 -15.999 -65zM108.004 707.001l84 73l145 -166l-69 -60z" />
    <glyph glyph-name="eacute" unicode="&#xe9;" 
d="M37 220l0.00488281 90.001c0 51.333 10.333 95 31 131c17.333 30 40.666 53.333 69.999 70c31.333 18 68.666 27 111.999 27s80.666 -9 111.999 -27c29.333 -16.667 52.666 -40 69.999 -70c20.667 -36 31 -79.667 31 -131v-100h-302
c1.33301 -24 6.66602 -44.667 15.999 -62c8.66699 -14.667 19.667 -25.667 33 -33c13.333 -8 29 -12 47 -12c18.667 0 35.334 4 50.001 12c14 8 25 19.333 33 34c4 7.33301 7.33301 15 10 23l114 -42c-4.66699 -13.333 -10.334 -26 -17.001 -38
c-17.333 -30.667 -41 -54.334 -71 -71.001c-33.333 -19.333 -73 -29 -119 -29s-85.333 9.66699 -118 29c-30 17.333 -53.667 41 -71 71c-20.667 35.333 -31 78 -31 128zM161.005 320.001h177.999c-1.33301 25.333 -6.66602 47 -15.999 65c-8 14 -18.667 24.667 -32 32
c-12 6.66699 -25.833 10 -41.5 10s-29.167 -3.33301 -40.5 -10c-12.667 -7.33301 -23.334 -18 -32.001 -32c-9.33301 -18 -14.666 -39.667 -15.999 -65zM163.004 614.001l145 166l84 -73l-160 -153z" />
    <glyph glyph-name="ecircumflex" unicode="&#xea;" 
d="M37 220l0.00488281 90.001c0 51.333 10.333 95 31 131c17.333 30 40.666 53.333 69.999 70c31.333 18 68.666 27 111.999 27s80.666 -9 111.999 -27c29.333 -16.667 52.666 -40 69.999 -70c20.667 -36 31 -79.667 31 -131v-100h-302
c1.33301 -24 6.66602 -44.667 15.999 -62c8.66699 -14.667 19.667 -25.667 33 -33c13.333 -8 29 -12 47 -12c18.667 0 35.334 4 50.001 12c14 8 25 19.333 33 34c4 7.33301 7.33301 15 10 23l114 -42c-4.66699 -13.333 -10.334 -26 -17.001 -38
c-17.333 -30.667 -41 -54.334 -71 -71.001c-33.333 -19.333 -73 -29 -119 -29s-85.333 9.66699 -118 29c-30 17.333 -53.667 41 -71 71c-20.667 35.333 -31 78 -31 128zM161.005 320.001h177.999c-1.33301 25.333 -6.66602 47 -15.999 65c-8 14 -18.667 24.667 -32 32
c-12 6.66699 -25.833 10 -41.5 10s-29.167 -3.33301 -40.5 -10c-12.667 -7.33301 -23.334 -18 -32.001 -32c-9.33301 -18 -14.666 -39.667 -15.999 -65zM53.0039 628.001l138 146h118l138 -146l-89 -68l-108 139l-108 -139z" />
    <glyph glyph-name="edieresis" unicode="&#xeb;" 
d="M37 220l0.00488281 90.001c0 51.333 10.333 95 31 131c17.333 30 40.666 53.333 69.999 70c31.333 18 68.666 27 111.999 27s80.666 -9 111.999 -27c29.333 -16.667 52.666 -40 69.999 -70c20.667 -36 31 -79.667 31 -131v-100h-302
c1.33301 -24 6.66602 -44.667 15.999 -62c8.66699 -14.667 19.667 -25.667 33 -33c13.333 -8 29 -12 47 -12c18.667 0 35.334 4 50.001 12c14 8 25 19.333 33 34c4 7.33301 7.33301 15 10 23l114 -42c-4.66699 -13.333 -10.334 -26 -17.001 -38
c-17.333 -30.667 -41 -54.334 -71 -71.001c-33.333 -19.333 -73 -29 -119 -29s-85.333 9.66699 -118 29c-30 17.333 -53.667 41 -71 71c-20.667 35.333 -31 78 -31 128zM161.005 320.001h177.999c-1.33301 25.333 -6.66602 47 -15.999 65c-8 14 -18.667 24.667 -32 32
c-12 6.66699 -25.833 10 -41.5 10s-29.167 -3.33301 -40.5 -10c-12.667 -7.33301 -23.334 -18 -32.001 -32c-9.33301 -18 -14.666 -39.667 -15.999 -65zM74.0039 684.501c0 16.333 3.33398 30.5 10.001 42.5c6 10 14 18 24 24c11.333 6.66699 25.166 10 41.499 10
s30.5 -3.33301 42.5 -10c10 -6 18 -14 24 -24c6.66699 -11.333 10 -25.166 10 -41.499s-3.33301 -30.5 -10 -42.5c-6 -10 -14 -18 -24 -24c-12 -6.66699 -26 -10 -42 -10s-30 3.33301 -42 10c-10 6 -18 14 -24 24c-6.66699 11.333 -10 25.166 -10 41.499zM274.005 684.501
c0 16.333 3.33398 30.5 10.001 42.5c6 10 14 18 24 24c11.333 6.66699 25.166 10 41.499 10s30.5 -3.33301 42.5 -10c10 -6 18 -14 24 -24c6.66699 -11.333 10 -25.166 10 -41.499s-3.33301 -30.5 -10 -42.5c-6 -10 -14 -18 -24 -24c-12 -6.66699 -26 -10 -42 -10
s-30 3.33301 -42 10c-10 6 -18 14 -24 24c-6.66699 11.333 -10 25.166 -10 41.499z" />
    <glyph glyph-name="igrave" unicode="&#xec;" 
d="M75 0v111h120v308h-106v111h230v-419h106v-111h-350zM108 707l84 73l145 -166l-69 -60z" />
    <glyph glyph-name="iacute" unicode="&#xed;" 
d="M75 0v111h120v308h-106v111h230v-419h106v-111h-350zM163 614l145 166l84 -73l-160 -153z" />
    <glyph glyph-name="icircumflex" unicode="&#xee;" 
d="M75 0v111h120v308h-106v111h230v-419h106v-111h-350zM53 628l138 146h118l138 -146l-89 -68l-108 139l-108 -139z" />
    <glyph glyph-name="idieresis" unicode="&#xef;" 
d="M75 0v111h120v308h-106v111h230v-419h106v-111h-350zM74 684.5c0 16.333 3.33398 30.5 10.001 42.5c6 10 14 18 24 24c11.333 6.66699 25.166 10 41.499 10s30.5 -3.33301 42.5 -10c10 -6 18 -14 24 -24c6.66699 -11.333 10 -25.166 10 -41.499s-3.33301 -30.5 -10 -42.5
c-6 -10 -14 -18 -24 -24c-12 -6.66699 -26 -10 -42 -10s-30 3.33301 -42 10c-10 6 -18 14 -24 24c-6.66699 11.333 -10 25.166 -10 41.499zM274.001 684.5c0 16.333 3.33398 30.5 10.001 42.5c6 10 14 18 24 24c11.333 6.66699 25.166 10 41.499 10s30.5 -3.33301 42.5 -10
c10 -6 18 -14 24 -24c6.66699 -11.333 10 -25.166 10 -41.499s-3.33301 -30.5 -10 -42.5c-6 -10 -14 -18 -24 -24c-12 -6.66699 -26 -10 -42 -10s-30 3.33301 -42 10c-10 6 -18 14 -24 24c-6.66699 11.333 -10 25.166 -10 41.499z" />
    <glyph glyph-name="eth" unicode="&#xf0;" 
d="M37 220l-0.00195312 1.00098c0 51.333 10.333 95 31 131c17.333 30 40.666 53.333 69.999 70c31.333 18 68.666 27 111.999 27c20 0 38.667 -2 56 -6c-8.66699 24 -19.334 46 -32.001 66l-177 -41l-22 83l135 32c-24 19.333 -50.667 34.666 -80 45.999l37 106
c26.667 -8.66699 52.334 -20 77.001 -34c39.333 -22.667 73.333 -51.334 102 -86.001l78 18l21 -83l-47 -12c43.333 -83.333 65 -188.666 65 -315.999v-2c0 -51.333 -10.333 -95 -31 -131c-17.333 -30 -40.666 -53.333 -69.999 -70c-31.333 -18 -68.666 -27 -111.999 -27
s-80.666 9 -111.999 27c-29.333 16.667 -52.666 40 -69.999 70c-20.667 36 -31 79.667 -31 131zM159.998 220.001c0 -30 5.66699 -55 17 -75c8 -14 18.667 -24.667 32 -32c12 -6.66699 25.833 -10 41.5 -10s29.167 3.33301 40.5 10c12.667 7.33301 23.334 18 32.001 32
c11.333 20 17 45 17 75v1c0 30 -5.66699 55 -17 75c-8 14 -18.667 24.667 -32 32c-12 6.66699 -25.833 10 -41.5 10s-29.167 -3.33301 -40.5 -10c-12.667 -7.33301 -23.334 -18 -32.001 -32c-11.333 -20 -17 -45 -17 -75v-1z" />
    <glyph glyph-name="ntilde" unicode="&#xf1;" 
d="M45 0v529.999h123v-65c14.667 24.667 33 43 55 55c20 12 43.5 18 70.5 18s50.5 -6 70.5 -18c22.667 -13.333 41.667 -32.666 57 -57.999c22.667 -39.333 34 -90 34 -152v-310h-123v310c0 32 -6 58 -18 78c-8 13.333 -17.667 23.333 -29 30c-10 6 -21.667 9 -35 9
s-25 -3 -35 -9c-11.333 -6.66699 -21 -16.667 -29 -30c-12 -20 -18 -46 -18 -78v-310h-123zM56 623.999c9.33301 20.667 18.666 38.668 27.999 54.001c21.333 36.667 43 61.334 65 74.001c14 8 28.667 12 44 12s30 -4 44 -12c14.667 -8.66699 32.334 -26.334 53.001 -53.001
l17 -22c14 15.333 30.333 43.666 49 84.999l88 -36c-9.33301 -20.667 -18.666 -38.667 -27.999 -54c-21.333 -36.667 -43 -61.334 -65 -74.001c-14 -8 -28.667 -12.333 -44 -13c-15.333 0 -30 4 -44 12c-14.667 8.66699 -32.334 26.667 -53.001 54l-17 22
c-14 -15.333 -30.333 -43.666 -49 -84.999z" />
    <glyph glyph-name="ograve" unicode="&#xf2;" 
d="M37 220v90c0 51.333 10.333 95 31 131c17.333 30 40.666 53.333 69.999 70c31.333 18 68.666 27 111.999 27s80.666 -9 111.999 -27c29.333 -16.667 52.666 -40 69.999 -70c20.667 -36 31 -79.667 31 -131v-90c0 -51.333 -10.333 -95 -31 -131
c-17.333 -30 -40.666 -53.333 -69.999 -70c-31.333 -18 -68.666 -27 -111.999 -27s-80.666 9 -111.999 27c-29.333 16.667 -52.666 40 -69.999 70c-20.667 36 -31 79.667 -31 131zM160 220c0 -30 5.66699 -55 17 -75c8 -14 18.667 -24.667 32 -32
c12 -6.66699 25.833 -10 41.5 -10s29.167 3.33301 40.5 10c12.667 7.33301 23.334 18 32.001 32c11.333 20 17 45 17 75v90c0 30 -5.66699 55 -17 75c-8 14 -18.667 24.667 -32 32c-11.333 6.66699 -25 10 -41 10s-29.667 -3.33301 -41 -10
c-12.667 -7.33301 -23.334 -18 -32.001 -32c-11.333 -20 -17 -45 -17 -75v-90zM108 707l84 73l145 -166l-69 -60z" />
    <glyph glyph-name="oacute" unicode="&#xf3;" 
d="M37 220v90c0 51.333 10.333 95 31 131c17.333 30 40.666 53.333 69.999 70c31.333 18 68.666 27 111.999 27s80.666 -9 111.999 -27c29.333 -16.667 52.666 -40 69.999 -70c20.667 -36 31 -79.667 31 -131v-90c0 -51.333 -10.333 -95 -31 -131
c-17.333 -30 -40.666 -53.333 -69.999 -70c-31.333 -18 -68.666 -27 -111.999 -27s-80.666 9 -111.999 27c-29.333 16.667 -52.666 40 -69.999 70c-20.667 36 -31 79.667 -31 131zM160 220c0 -30 5.66699 -55 17 -75c8 -14 18.667 -24.667 32 -32
c12 -6.66699 25.833 -10 41.5 -10s29.167 3.33301 40.5 10c12.667 7.33301 23.334 18 32.001 32c11.333 20 17 45 17 75v90c0 30 -5.66699 55 -17 75c-8 14 -18.667 24.667 -32 32c-11.333 6.66699 -25 10 -41 10s-29.667 -3.33301 -41 -10
c-12.667 -7.33301 -23.334 -18 -32.001 -32c-11.333 -20 -17 -45 -17 -75v-90zM163 614l145 166l84 -73l-160 -153z" />
    <glyph glyph-name="ocircumflex" unicode="&#xf4;" 
d="M37 220v90c0 51.333 10.333 95 31 131c17.333 30 40.666 53.333 69.999 70c31.333 18 68.666 27 111.999 27s80.666 -9 111.999 -27c29.333 -16.667 52.666 -40 69.999 -70c20.667 -36 31 -79.667 31 -131v-90c0 -51.333 -10.333 -95 -31 -131
c-17.333 -30 -40.666 -53.333 -69.999 -70c-31.333 -18 -68.666 -27 -111.999 -27s-80.666 9 -111.999 27c-29.333 16.667 -52.666 40 -69.999 70c-20.667 36 -31 79.667 -31 131zM160 220c0 -30 5.66699 -55 17 -75c8 -14 18.667 -24.667 32 -32
c12 -6.66699 25.833 -10 41.5 -10s29.167 3.33301 40.5 10c12.667 7.33301 23.334 18 32.001 32c11.333 20 17 45 17 75v90c0 30 -5.66699 55 -17 75c-8 14 -18.667 24.667 -32 32c-11.333 6.66699 -25 10 -41 10s-29.667 -3.33301 -41 -10
c-12.667 -7.33301 -23.334 -18 -32.001 -32c-11.333 -20 -17 -45 -17 -75v-90zM53 628l138 146h118l138 -146l-89 -68l-108 139l-108 -139z" />
    <glyph glyph-name="otilde" unicode="&#xf5;" 
d="M37 220v90c0 51.333 10.333 95 31 131c17.333 30 40.666 53.333 69.999 70c31.333 18 68.666 27 111.999 27s80.666 -9 111.999 -27c29.333 -16.667 52.666 -40 69.999 -70c20.667 -36 31 -79.667 31 -131v-90c0 -51.333 -10.333 -95 -31 -131
c-17.333 -30 -40.666 -53.333 -69.999 -70c-31.333 -18 -68.666 -27 -111.999 -27s-80.666 9 -111.999 27c-29.333 16.667 -52.666 40 -69.999 70c-20.667 36 -31 79.667 -31 131zM160 220c0 -30 5.66699 -55 17 -75c8 -14 18.667 -24.667 32 -32
c12 -6.66699 25.833 -10 41.5 -10s29.167 3.33301 40.5 10c12.667 7.33301 23.334 18 32.001 32c11.333 20 17 45 17 75v90c0 30 -5.66699 55 -17 75c-8 14 -18.667 24.667 -32 32c-11.333 6.66699 -25 10 -41 10s-29.667 -3.33301 -41 -10
c-12.667 -7.33301 -23.334 -18 -32.001 -32c-11.333 -20 -17 -45 -17 -75v-90zM56 624c9.33301 20.667 18.666 38.668 27.999 54.001c21.333 36.667 43 61.334 65 74.001c14 8 28.667 12 44 12s30 -4 44 -12c14.667 -8.66699 32.334 -26.334 53.001 -53.001l17 -22
c14 15.333 30.333 43.666 49 84.999l88 -36c-9.33301 -20.667 -18.666 -38.667 -27.999 -54c-21.333 -36.667 -43 -61.334 -65 -74.001c-14 -8 -28.667 -12.333 -44 -13c-15.333 0 -30 4 -44 12c-14.667 8.66699 -32.334 26.667 -53.001 54l-17 22
c-14 -15.333 -30.333 -43.666 -49 -84.999z" />
    <glyph glyph-name="odieresis" unicode="&#xf6;" 
d="M37 220v90c0 51.333 10.333 95 31 131c17.333 30 40.666 53.333 69.999 70c31.333 18 68.666 27 111.999 27s80.666 -9 111.999 -27c29.333 -16.667 52.666 -40 69.999 -70c20.667 -36 31 -79.667 31 -131v-90c0 -51.333 -10.333 -95 -31 -131
c-17.333 -30 -40.666 -53.333 -69.999 -70c-31.333 -18 -68.666 -27 -111.999 -27s-80.666 9 -111.999 27c-29.333 16.667 -52.666 40 -69.999 70c-20.667 36 -31 79.667 -31 131zM160 220c0 -30 5.66699 -55 17 -75c8 -14 18.667 -24.667 32 -32
c12 -6.66699 25.833 -10 41.5 -10s29.167 3.33301 40.5 10c12.667 7.33301 23.334 18 32.001 32c11.333 20 17 45 17 75v90c0 30 -5.66699 55 -17 75c-8 14 -18.667 24.667 -32 32c-11.333 6.66699 -25 10 -41 10s-29.667 -3.33301 -41 -10
c-12.667 -7.33301 -23.334 -18 -32.001 -32c-11.333 -20 -17 -45 -17 -75v-90zM74 684.5c0 16.333 3.33398 30.5 10.001 42.5c6 10 14 18 24 24c11.333 6.66699 25.166 10 41.499 10s30.5 -3.33301 42.5 -10c10 -6 18 -14 24 -24c6.66699 -11.333 10 -25.166 10 -41.499
s-3.33301 -30.5 -10 -42.5c-6 -10 -14 -18 -24 -24c-12 -6.66699 -26 -10 -42 -10s-30 3.33301 -42 10c-10 6 -18 14 -24 24c-6.66699 11.333 -10 25.166 -10 41.499zM274.001 684.5c0 16.333 3.33398 30.5 10.001 42.5c6 10 14 18 24 24
c11.333 6.66699 25.166 10 41.499 10s30.5 -3.33301 42.5 -10c10 -6 18 -14 24 -24c6.66699 -11.333 10 -25.166 10 -41.499s-3.33301 -30.5 -10 -42.5c-6 -10 -14 -18 -24 -24c-12 -6.66699 -26 -10 -42 -10s-30 3.33301 -42 10c-10 6 -18 14 -24 24
c-6.66699 11.333 -10 25.166 -10 41.499z" />
    <glyph glyph-name="divide" unicode="&#xf7;" 
d="M45 281v101h410v-101h-410zM162 126c0 31.333 12.333 54 37 68c14 8 31 12 51 12s37 -4 51 -12c24.667 -14 37 -36.5 37 -67.5s-12.333 -53.833 -37 -68.5c-14 -8 -31 -12 -51 -12s-37 4 -51 12c-24.667 14 -37 36.667 -37 68zM162 536c0 31.333 12.333 54 37 68
c14 8 31 12 51 12s37 -4 51 -12c24.667 -14 37 -36.5 37 -67.5s-12.333 -53.833 -37 -68.5c-14 -8 -31 -12 -51 -12s-37 4 -51 12c-24.667 14 -37 36.667 -37 68z" />
    <glyph glyph-name="oslash" unicode="&#xf8;" 
d="M37 220v90c0 51.333 10.333 95 31 131c17.333 30 40.666 53.333 69.999 70c31.333 18 68.666 27 111.999 27c35.333 0 66.666 -6 93.999 -18l35 58l82 -43l-43 -74l14 -20c20.667 -36 31 -79.667 31 -131v-90c0 -51.333 -10.333 -95 -31 -131
c-17.333 -30 -40.666 -53.333 -69.999 -70c-31.333 -18 -68.666 -27 -111.999 -27c-35.333 0 -66.666 6 -93.999 18l-35 -58l-82 43l43 74l-14 20c-20.667 36 -31 79.667 -31 131zM160 220c0 -5.33301 0.333984 -10.333 1.00098 -15l125 215
c-10.667 4.66699 -22.667 7 -36 7c-16 0 -29.667 -3.33301 -41 -10c-12.667 -7.33301 -23.334 -18 -32.001 -32c-11.333 -20 -17 -45 -17 -75v-90zM214.001 110c10.667 -4.66699 22.666 -7 35.999 -7c16 0 29.667 3.33301 41 10c12.667 7.33301 23.334 18 32.001 32
c11.333 20 17 45 17 75v90c0 5.33301 -0.333008 10.333 -1 15z" />
    <glyph glyph-name="ugrave" unicode="&#xf9;" 
d="M45 220v310.001h123v-310c0 -32 6 -58 18 -78c8 -13.333 17.667 -23.333 29 -30c10 -6 21.667 -9 35 -9s25 3 35 9c11.333 6.66699 21 16.667 29 30c12 20 18 46 18 78v310h123v-530h-123v65c-14.667 -24.667 -33 -43 -55 -55c-20 -12 -43.5 -18 -70.5 -18
s-50.5 6 -70.5 18c-22.667 13.333 -41.667 32.666 -57 57.999c-22.667 39.333 -34 90 -34 152zM108 707.001l84 73l145 -166l-69 -60z" />
    <glyph glyph-name="uacute" unicode="&#xfa;" 
d="M45 220v310.001h123v-310c0 -32 6 -58 18 -78c8 -13.333 17.667 -23.333 29 -30c10 -6 21.667 -9 35 -9s25 3 35 9c11.333 6.66699 21 16.667 29 30c12 20 18 46 18 78v310h123v-530h-123v65c-14.667 -24.667 -33 -43 -55 -55c-20 -12 -43.5 -18 -70.5 -18
s-50.5 6 -70.5 18c-22.667 13.333 -41.667 32.666 -57 57.999c-22.667 39.333 -34 90 -34 152zM163 614.001l145 166l84 -73l-160 -153z" />
    <glyph glyph-name="ucircumflex" unicode="&#xfb;" 
d="M45 220v310.001h123v-310c0 -32 6 -58 18 -78c8 -13.333 17.667 -23.333 29 -30c10 -6 21.667 -9 35 -9s25 3 35 9c11.333 6.66699 21 16.667 29 30c12 20 18 46 18 78v310h123v-530h-123v65c-14.667 -24.667 -33 -43 -55 -55c-20 -12 -43.5 -18 -70.5 -18
s-50.5 6 -70.5 18c-22.667 13.333 -41.667 32.666 -57 57.999c-22.667 39.333 -34 90 -34 152zM53 628.001l138 146h118l138 -146l-89 -68l-108 139l-108 -139z" />
    <glyph glyph-name="udieresis" unicode="&#xfc;" 
d="M45 220v310.001h123v-310c0 -32 6 -58 18 -78c8 -13.333 17.667 -23.333 29 -30c10 -6 21.667 -9 35 -9s25 3 35 9c11.333 6.66699 21 16.667 29 30c12 20 18 46 18 78v310h123v-530h-123v65c-14.667 -24.667 -33 -43 -55 -55c-20 -12 -43.5 -18 -70.5 -18
s-50.5 6 -70.5 18c-22.667 13.333 -41.667 32.666 -57 57.999c-22.667 39.333 -34 90 -34 152zM74 684.501c0 16.333 3.33398 30.5 10.001 42.5c6 10 14 18 24 24c11.333 6.66699 25.166 10 41.499 10s30.5 -3.33301 42.5 -10c10 -6 18 -14 24 -24
c6.66699 -11.333 10 -25.166 10 -41.499s-3.33301 -30.5 -10 -42.5c-6 -10 -14 -18 -24 -24c-12 -6.66699 -26 -10 -42 -10s-30 3.33301 -42 10c-10 6 -18 14 -24 24c-6.66699 11.333 -10 25.166 -10 41.499zM274.001 684.501c0 16.333 3.33398 30.5 10.001 42.5
c6 10 14 18 24 24c11.333 6.66699 25.166 10 41.499 10s30.5 -3.33301 42.5 -10c10 -6 18 -14 24 -24c6.66699 -11.333 10 -25.166 10 -41.499s-3.33301 -30.5 -10 -42.5c-6 -10 -14 -18 -24 -24c-12 -6.66699 -26 -10 -42 -10s-30 3.33301 -42 10c-10 6 -18 14 -24 24
c-6.66699 11.333 -10 25.166 -10 41.499z" />
    <glyph glyph-name="yacute" unicode="&#xfd;" 
d="M45 493v37.001h123v-37c0 -38 9.33301 -86 28 -144l52 -164l56 164c18.667 54 28 102 28 144v37h123v-37c0 -53.333 -11.333 -113.333 -34 -180l-153 -446c-4 -12.667 -6 -34.334 -6 -65.001v-7h-124v7c0 42 4.33301 75.667 13 101l38 111l-110 299
c-22.667 62 -34 122 -34 180zM163 614.001l145 166l84 -73l-160 -153z" />
    <glyph glyph-name="thorn" unicode="&#xfe;" 
d="M45 -205v940h123v-270c14.667 24.667 33 43 55 55c20 12 43.667 18 71 18c28.667 0 54 -6.33301 76 -19c24 -14 43.667 -34.333 59 -61c22.667 -38.667 34 -88 34 -148v-90c0 -60 -11.333 -109.333 -34 -148c-15.333 -26.667 -35 -47 -59 -61
c-22 -12.667 -47.333 -19 -76 -19c-27.333 0 -51 6 -71 18c-22 12 -40.333 30.333 -55 55v-270h-123zM168 220c0 -32 6 -58 18 -78c8 -13.333 17.667 -23.333 29 -30c10 -6 22 -9 36 -9c15.333 0 28.666 3.33301 39.999 10c12.667 7.33301 23.334 18 32.001 32
c11.333 20 17 45 17 75v90c0 30 -5.66699 55 -17 75c-8 14 -18.667 24.667 -32 32c-12 6.66699 -25.333 10 -40 10c-14 0 -26 -3 -36 -9c-11.333 -6.66699 -21 -16.667 -29 -30c-12 -20 -18 -46 -18 -78v-90z" />
    <glyph glyph-name="ydieresis" unicode="&#xff;" 
d="M45 493v37.001h123v-37c0 -38 9.33301 -86 28 -144l52 -164l56 164c18.667 54 28 102 28 144v37h123v-37c0 -53.333 -11.333 -113.333 -34 -180l-153 -446c-4 -12.667 -6 -34.334 -6 -65.001v-7h-124v7c0 42 4.33301 75.667 13 101l38 111l-110 299
c-22.667 62 -34 122 -34 180zM74 684.501c0 16.333 3.33398 30.5 10.001 42.5c6 10 14 18 24 24c11.333 6.66699 25.166 10 41.499 10s30.5 -3.33301 42.5 -10c10 -6 18 -14 24 -24c6.66699 -11.333 10 -25.166 10 -41.499s-3.33301 -30.5 -10 -42.5c-6 -10 -14 -18 -24 -24
c-12 -6.66699 -26 -10 -42 -10s-30 3.33301 -42 10c-10 6 -18 14 -24 24c-6.66699 11.333 -10 25.166 -10 41.499zM274.001 684.501c0 16.333 3.33398 30.5 10.001 42.5c6 10 14 18 24 24c11.333 6.66699 25.166 10 41.499 10s30.5 -3.33301 42.5 -10c10 -6 18 -14 24 -24
c6.66699 -11.333 10 -25.166 10 -41.499s-3.33301 -30.5 -10 -42.5c-6 -10 -14 -18 -24 -24c-12 -6.66699 -26 -10 -42 -10s-30 3.33301 -42 10c-10 6 -18 14 -24 24c-6.66699 11.333 -10 25.166 -10 41.499z" />
    <glyph glyph-name="Amacron" unicode="&#x100;" 
d="M45 0v74c0 133.333 47.667 353.666 143 660.999h124c95.333 -307.333 143 -527.666 143 -660.999v-74h-123v74c0 24 -1.33301 50.667 -4 80h-156c-2.66699 -29.333 -4 -56 -4 -80v-74h-123zM186 265h127.998c-13.333 87.333 -34.666 191.666 -63.999 312.999
c-29.333 -121.333 -50.666 -225.666 -63.999 -312.999zM99.998 842v96h300v-96h-300z" />
    <glyph glyph-name="amacron" unicode="&#x101;" 
d="M37 158c0 32.667 6.66895 60.3311 20.002 82.998c14.667 24.667 35.667 45 63 61c38.667 22.667 88.667 34.334 150 35.001h62v20c0 12.667 -3 24 -9 34s-14 18 -24 24c-14 8 -31.333 12 -52 12s-38 -4 -52 -12c-11.333 -6.66699 -20.333 -15.667 -27 -27
c-4 -6.66699 -6.66699 -13.667 -8 -21l-118 33c3.33301 16 9.66602 31.333 18.999 46c15.333 26.667 36.333 47.667 63 63c32.667 19.333 73.667 29 123 29s90.666 -9.66699 123.999 -29c26.667 -15.333 47.334 -35.666 62.001 -60.999s22 -55.666 22 -90.999v-357h-123v63
c-14 -20.667 -31.667 -37.334 -53 -50.001c-24.667 -14 -53 -21 -85 -21c-32.667 0 -60.334 6.66699 -83.001 20c-21.333 12.667 -38.333 30 -51 52c-15.333 26.667 -23 58 -23 94zM160.002 158.997c0 -14 4.66602 -25.667 13.999 -35c14 -14 35 -21 63 -21
c20 0 37.333 4.33301 52 13c12.667 7.33301 22.667 17.333 30 30c8.66699 14.667 13 32 13 52v28h-62c-32.667 0 -58.667 -5.66699 -78 -17c-11.333 -6.66699 -19.666 -14.667 -24.999 -24c-4.66699 -7.33301 -7 -16 -7 -26zM100.001 636.997v96h300v-96h-300z" />
    <glyph glyph-name="Abreve" unicode="&#x102;" 
d="M45 0v74c0 133.333 47.667 353.666 143 660.999h124c95.333 -307.333 143 -527.666 143 -660.999v-74h-123v74c0 24 -1.33301 50.667 -4 80h-156c-2.66699 -29.333 -4 -56 -4 -80v-74h-123zM186 265h127.998c-13.333 87.333 -34.666 191.666 -63.999 312.999
c-29.333 -121.333 -50.666 -225.666 -63.999 -312.999zM76.998 949h105.998c0 -13.333 2.66699 -24.666 8 -33.999c5.33301 -8.66699 12.333 -15.667 21 -21c10.667 -6 23.334 -9 38.001 -9s27.334 3 38.001 9c19.333 11.333 29 29.666 29 54.999h106
c0 -32 -6.66699 -59.667 -20 -83c-12.667 -22 -30.334 -39.667 -53.001 -53c-27.333 -16 -60.666 -24 -99.999 -24s-72.666 8 -99.999 24c-22.667 13.333 -40.334 31 -53.001 53c-13.333 23.333 -20 51 -20 83z" />
    <glyph glyph-name="abreve" unicode="&#x103;" 
d="M37 158c0 32.667 6.66895 60.3311 20.002 82.998c14.667 24.667 35.667 45 63 61c38.667 22.667 88.667 34.334 150 35.001h62v20c0 12.667 -3 24 -9 34s-14 18 -24 24c-14 8 -31.333 12 -52 12s-38 -4 -52 -12c-11.333 -6.66699 -20.333 -15.667 -27 -27
c-4 -6.66699 -6.66699 -13.667 -8 -21l-118 33c3.33301 16 9.66602 31.333 18.999 46c15.333 26.667 36.333 47.667 63 63c32.667 19.333 73.667 29 123 29s90.666 -9.66699 123.999 -29c26.667 -15.333 47.334 -35.666 62.001 -60.999s22 -55.666 22 -90.999v-357h-123v63
c-14 -20.667 -31.667 -37.334 -53 -50.001c-24.667 -14 -53 -21 -85 -21c-32.667 0 -60.334 6.66699 -83.001 20c-21.333 12.667 -38.333 30 -51 52c-15.333 26.667 -23 58 -23 94zM160.002 158.997c0 -14 4.66602 -25.667 13.999 -35c14 -14 35 -21 63 -21
c20 0 37.333 4.33301 52 13c12.667 7.33301 22.667 17.333 30 30c8.66699 14.667 13 32 13 52v28h-62c-32.667 0 -58.667 -5.66699 -78 -17c-11.333 -6.66699 -19.666 -14.667 -24.999 -24c-4.66699 -7.33301 -7 -16 -7 -26zM77.001 743.997h105.998
c0 -13.333 2.66699 -24.666 8 -33.999c5.33301 -8.66699 12.333 -15.667 21 -21c10.667 -6 23.334 -9 38.001 -9s27.334 3 38.001 9c19.333 11.333 29 29.666 29 54.999h106c0 -32 -6.66699 -59.667 -20 -83c-12.667 -22 -30.334 -39.667 -53.001 -53
c-27.333 -16 -60.666 -24 -99.999 -24s-72.666 8 -99.999 24c-22.667 13.333 -40.334 31 -53.001 53c-13.333 23.333 -20 51 -20 83z" />
    <glyph glyph-name="Aogonek" unicode="&#x104;" 
d="M45 0v74c0 133.333 47.667 353.666 143 660.999h124c95.333 -307.333 143 -527.666 143 -660.999v-74h-123v74c0 24 -1.33301 50.667 -4 80h-156c-2.66699 -29.333 -4 -56 -4 -80v-74h-123zM186 265h127.998c-13.333 87.333 -34.666 191.666 -63.999 312.999
c-29.333 -121.333 -50.666 -225.666 -63.999 -312.999zM268.998 -81c0 14 3.33398 26.998 10.001 38.998c7.33301 13.333 19 24 35 32c22.667 13.333 53.667 20 93 20v-18c-10.667 0 -19.334 -3.33301 -26.001 -10c-5.33301 -5.33301 -8 -11.666 -8 -18.999
s2.66699 -13.666 8 -18.999c8 -8 22.667 -12.333 44 -13h67v-105h-64c-52.667 0 -90.667 6.66699 -114 20c-15.333 8.66699 -26.666 20 -33.999 34c-6.66699 12 -10.334 25 -11.001 39z" />
    <glyph glyph-name="aogonek" unicode="&#x105;" 
d="M37 158c0 32.667 6.66895 60.3311 20.002 82.998c14.667 24.667 35.667 45 63 61c38.667 22.667 88.667 34.334 150 35.001h62v20c0 12.667 -3 24 -9 34s-14 18 -24 24c-14 8 -31.333 12 -52 12s-38 -4 -52 -12c-11.333 -6.66699 -20.333 -15.667 -27 -27
c-4 -6.66699 -6.66699 -13.667 -8 -21l-118 33c3.33301 16 9.66602 31.333 18.999 46c15.333 26.667 36.333 47.667 63 63c32.667 19.333 73.667 29 123 29s90.666 -9.66699 123.999 -29c26.667 -15.333 47.334 -35.666 62.001 -60.999s22 -55.666 22 -90.999v-357h-123v63
c-14 -20.667 -31.667 -37.334 -53 -50.001c-24.667 -14 -53 -21 -85 -21c-32.667 0 -60.334 6.66699 -83.001 20c-21.333 12.667 -38.333 30 -51 52c-15.333 26.667 -23 58 -23 94zM160.002 158.997c0 -14 4.66602 -25.667 13.999 -35c14 -14 35 -21 63 -21
c20 0 37.333 4.33301 52 13c12.667 7.33301 22.667 17.333 30 30c8.66699 14.667 13 32 13 52v28h-62c-32.667 0 -58.667 -5.66699 -78 -17c-11.333 -6.66699 -19.666 -14.667 -24.999 -24c-4.66699 -7.33301 -7 -16 -7 -26zM269.001 -81.0029
c0 14 3.33398 26.998 10.001 38.998c7.33301 13.333 19 24 35 32c22.667 13.333 53.667 20 93 20v-18c-10.667 0 -19.334 -3.33301 -26.001 -10c-5.33301 -5.33301 -8 -11.666 -8 -18.999s2.66699 -13.666 8 -18.999c8 -8 22.667 -12.333 44 -13h67v-105h-64
c-52.667 0 -90.667 6.66699 -114 20c-15.333 8.66699 -26.666 20 -33.999 34c-6.66699 12 -10.334 25 -11.001 39z" />
    <glyph glyph-name="Cacute" unicode="&#x106;" 
d="M37 210l0.00195312 314.998c0 47.333 9.66699 88 29 122c16.667 28.667 39.667 51.334 69 68.001c32 18.667 70.667 28 116 28s84 -9.33301 116 -28c28.667 -16.667 51.667 -39.667 69 -69c12 -20.667 20 -42.667 24 -66l-119 -28c-2 13.333 -6.33301 25.666 -13 36.999
c-8 13.333 -18.333 24 -31 32c-12.667 7.33301 -28 11 -46 11c-17.333 0 -32.333 -3.66699 -45 -11s-22.667 -17.666 -30 -30.999c-10 -17.333 -15.333 -39 -16 -65v-315c0 -26 5.33301 -47.667 16 -65c8 -13.333 18.167 -23.666 30.5 -30.999s27.166 -11 44.499 -11
s32.666 3.66699 45.999 11c12.667 7.33301 23 18 31 32c6.66699 11.333 11 23.666 13 36.999l119 -28c-4.66699 -24 -12.667 -46 -24 -66c-16.667 -29.333 -39.667 -52.333 -69 -69c-32 -18.667 -70.667 -28 -116 -28s-84 9.33301 -116 28
c-28.667 16.667 -51.667 39.334 -69 68.001c-19.333 34 -29 74.667 -29 122zM163.002 818.998l145 166l84 -73l-160 -153z" />
    <glyph glyph-name="cacute" unicode="&#x107;" 
d="M37 220l0.00195312 90c0 50.667 10.333 94 31 130c17.333 30 40.666 53.333 69.999 70c32 18.667 70 28 114 28s81.667 -9.33301 113 -28c29.333 -16.667 52.666 -40 69.999 -70c11.333 -20 19.666 -41.667 24.999 -65l-118 -32c-2.66699 14.667 -7.33398 28 -14.001 40
c-8 14.667 -18.667 25.667 -32 33c-12.667 7.33301 -27.334 11 -44.001 11c-16 0 -30.333 -3.66699 -43 -11s-23.334 -18 -32.001 -32c-11.333 -20 -17 -44.667 -17 -74v-90c0 -30 5.66699 -54.667 17 -74c8 -14 18.667 -24.667 32 -32c12 -7.33301 26.333 -11 43 -11
s31.334 3.66699 44.001 11c13.333 7.33301 24 18.333 32 33c6.66699 12 11.334 25.333 14.001 40l118 -32c-4.66699 -23.333 -13 -45 -25 -65c-17.333 -30 -40.666 -53.333 -69.999 -70c-32 -18.667 -69.833 -28 -113.5 -28s-81.5 9.33301 -113.5 28
c-29.333 16.667 -52.666 40 -69.999 70c-20.667 36 -31 79.333 -31 130zM163.002 614l145 166l84 -73l-160 -153z" />
    <glyph glyph-name="Ccircumflex" unicode="&#x108;" 
d="M37 210l0.00195312 314.998c0 47.333 9.66699 88 29 122c16.667 28.667 39.667 51.334 69 68.001c32 18.667 70.667 28 116 28s84 -9.33301 116 -28c28.667 -16.667 51.667 -39.667 69 -69c12 -20.667 20 -42.667 24 -66l-119 -28c-2 13.333 -6.33301 25.666 -13 36.999
c-8 13.333 -18.333 24 -31 32c-12.667 7.33301 -28 11 -46 11c-17.333 0 -32.333 -3.66699 -45 -11s-22.667 -17.666 -30 -30.999c-10 -17.333 -15.333 -39 -16 -65v-315c0 -26 5.33301 -47.667 16 -65c8 -13.333 18.167 -23.666 30.5 -30.999s27.166 -11 44.499 -11
s32.666 3.66699 45.999 11c12.667 7.33301 23 18 31 32c6.66699 11.333 11 23.666 13 36.999l119 -28c-4.66699 -24 -12.667 -46 -24 -66c-16.667 -29.333 -39.667 -52.333 -69 -69c-32 -18.667 -70.667 -28 -116 -28s-84 9.33301 -116 28
c-28.667 16.667 -51.667 39.334 -69 68.001c-19.333 34 -29 74.667 -29 122zM53.002 832.998l138 146h118l138 -146l-89 -68l-108 139l-108 -139z" />
    <glyph glyph-name="ccircumflex" unicode="&#x109;" 
d="M37 220l0.00195312 90c0 50.667 10.333 94 31 130c17.333 30 40.666 53.333 69.999 70c32 18.667 70 28 114 28s81.667 -9.33301 113 -28c29.333 -16.667 52.666 -40 69.999 -70c11.333 -20 19.666 -41.667 24.999 -65l-118 -32c-2.66699 14.667 -7.33398 28 -14.001 40
c-8 14.667 -18.667 25.667 -32 33c-12.667 7.33301 -27.334 11 -44.001 11c-16 0 -30.333 -3.66699 -43 -11s-23.334 -18 -32.001 -32c-11.333 -20 -17 -44.667 -17 -74v-90c0 -30 5.66699 -54.667 17 -74c8 -14 18.667 -24.667 32 -32c12 -7.33301 26.333 -11 43 -11
s31.334 3.66699 44.001 11c13.333 7.33301 24 18.333 32 33c6.66699 12 11.334 25.333 14.001 40l118 -32c-4.66699 -23.333 -13 -45 -25 -65c-17.333 -30 -40.666 -53.333 -69.999 -70c-32 -18.667 -69.833 -28 -113.5 -28s-81.5 9.33301 -113.5 28
c-29.333 16.667 -52.666 40 -69.999 70c-20.667 36 -31 79.333 -31 130zM53.002 628l138 146h118l138 -146l-89 -68l-108 139l-108 -139z" />
    <glyph glyph-name="Cdotaccent" unicode="&#x10a;" 
d="M37 210l0.00195312 314.998c0 47.333 9.66699 88 29 122c16.667 28.667 39.667 51.334 69 68.001c32 18.667 70.667 28 116 28s84 -9.33301 116 -28c28.667 -16.667 51.667 -39.667 69 -69c12 -20.667 20 -42.667 24 -66l-119 -28c-2 13.333 -6.33301 25.666 -13 36.999
c-8 13.333 -18.333 24 -31 32c-12.667 7.33301 -28 11 -46 11c-17.333 0 -32.333 -3.66699 -45 -11s-22.667 -17.666 -30 -30.999c-10 -17.333 -15.333 -39 -16 -65v-315c0 -26 5.33301 -47.667 16 -65c8 -13.333 18.167 -23.666 30.5 -30.999s27.166 -11 44.499 -11
s32.666 3.66699 45.999 11c12.667 7.33301 23 18 31 32c6.66699 11.333 11 23.666 13 36.999l119 -28c-4.66699 -24 -12.667 -46 -24 -66c-16.667 -29.333 -39.667 -52.333 -69 -69c-32 -18.667 -70.667 -28 -116 -28s-84 9.33301 -116 28
c-28.667 16.667 -51.667 39.334 -69 68.001c-19.333 34 -29 74.667 -29 122zM170.002 889.998c0 17.333 3.66699 32 11 44c6 10.667 14.333 19 25 25c12 7.33301 26.667 11 44 11s32 -3.66699 44 -11c10.667 -6 19 -14.333 25 -25c7.33301 -12 11 -26.667 11 -44
s-3.66699 -32 -11 -44c-6 -10.667 -14.333 -19 -25 -25c-12 -7.33301 -26.667 -11 -44 -11s-32 3.66699 -44 11c-10.667 6 -19 14.333 -25 25c-7.33301 12 -11 26.667 -11 44z" />
    <glyph glyph-name="cdotaccent" unicode="&#x10b;" 
d="M37 220l0.00195312 90c0 50.667 10.333 94 31 130c17.333 30 40.666 53.333 69.999 70c32 18.667 70 28 114 28s81.667 -9.33301 113 -28c29.333 -16.667 52.666 -40 69.999 -70c11.333 -20 19.666 -41.667 24.999 -65l-118 -32c-2.66699 14.667 -7.33398 28 -14.001 40
c-8 14.667 -18.667 25.667 -32 33c-12.667 7.33301 -27.334 11 -44.001 11c-16 0 -30.333 -3.66699 -43 -11s-23.334 -18 -32.001 -32c-11.333 -20 -17 -44.667 -17 -74v-90c0 -30 5.66699 -54.667 17 -74c8 -14 18.667 -24.667 32 -32c12 -7.33301 26.333 -11 43 -11
s31.334 3.66699 44.001 11c13.333 7.33301 24 18.333 32 33c6.66699 12 11.334 25.333 14.001 40l118 -32c-4.66699 -23.333 -13 -45 -25 -65c-17.333 -30 -40.666 -53.333 -69.999 -70c-32 -18.667 -69.833 -28 -113.5 -28s-81.5 9.33301 -113.5 28
c-29.333 16.667 -52.666 40 -69.999 70c-20.667 36 -31 79.333 -31 130zM170.002 685c0 17.333 3.66699 32 11 44c6 10.667 14.333 19 25 25c12 7.33301 26.667 11 44 11s32 -3.66699 44 -11c10.667 -6 19 -14.333 25 -25c7.33301 -12 11 -26.667 11 -44
s-3.66699 -32 -11 -44c-6 -10.667 -14.333 -19 -25 -25c-12 -7.33301 -26.667 -11 -44 -11s-32 3.66699 -44 11c-10.667 6 -19 14.333 -25 25c-7.33301 12 -11 26.667 -11 44z" />
    <glyph glyph-name="Ccaron" unicode="&#x10c;" 
d="M37 210l0.00195312 314.998c0 47.333 9.66699 88 29 122c16.667 28.667 39.667 51.334 69 68.001c32 18.667 70.667 28 116 28s84 -9.33301 116 -28c28.667 -16.667 51.667 -39.667 69 -69c12 -20.667 20 -42.667 24 -66l-119 -28c-2 13.333 -6.33301 25.666 -13 36.999
c-8 13.333 -18.333 24 -31 32c-12.667 7.33301 -28 11 -46 11c-17.333 0 -32.333 -3.66699 -45 -11s-22.667 -17.666 -30 -30.999c-10 -17.333 -15.333 -39 -16 -65v-315c0 -26 5.33301 -47.667 16 -65c8 -13.333 18.167 -23.666 30.5 -30.999s27.166 -11 44.499 -11
s32.666 3.66699 45.999 11c12.667 7.33301 23 18 31 32c6.66699 11.333 11 23.666 13 36.999l119 -28c-4.66699 -24 -12.667 -46 -24 -66c-16.667 -29.333 -39.667 -52.333 -69 -69c-32 -18.667 -70.667 -28 -116 -28s-84 9.33301 -116 28
c-28.667 16.667 -51.667 39.334 -69 68.001c-19.333 34 -29 74.667 -29 122zM53.002 914.998l89 68l108 -139l108 139l89 -68l-138 -146h-118z" />
    <glyph glyph-name="ccaron" unicode="&#x10d;" 
d="M37 220l0.00195312 90c0 50.667 10.333 94 31 130c17.333 30 40.666 53.333 69.999 70c32 18.667 70 28 114 28s81.667 -9.33301 113 -28c29.333 -16.667 52.666 -40 69.999 -70c11.333 -20 19.666 -41.667 24.999 -65l-118 -32c-2.66699 14.667 -7.33398 28 -14.001 40
c-8 14.667 -18.667 25.667 -32 33c-12.667 7.33301 -27.334 11 -44.001 11c-16 0 -30.333 -3.66699 -43 -11s-23.334 -18 -32.001 -32c-11.333 -20 -17 -44.667 -17 -74v-90c0 -30 5.66699 -54.667 17 -74c8 -14 18.667 -24.667 32 -32c12 -7.33301 26.333 -11 43 -11
s31.334 3.66699 44.001 11c13.333 7.33301 24 18.333 32 33c6.66699 12 11.334 25.333 14.001 40l118 -32c-4.66699 -23.333 -13 -45 -25 -65c-17.333 -30 -40.666 -53.333 -69.999 -70c-32 -18.667 -69.833 -28 -113.5 -28s-81.5 9.33301 -113.5 28
c-29.333 16.667 -52.666 40 -69.999 70c-20.667 36 -31 79.333 -31 130zM53.002 710l89 68l108 -139l108 139l89 -68l-138 -146h-118z" />
    <glyph glyph-name="Dcaron" unicode="&#x10e;" 
d="M45 0v735h179c45.333 0 85 -10 119 -30c32.667 -18.667 59.334 -46 80.001 -82c26.667 -46 40 -103 40 -171v-168c0 -68 -13.333 -125.333 -40 -172c-20.667 -36 -47.334 -63.333 -80.001 -82c-34 -20 -73.667 -30 -119 -30h-179zM168 111l56 0.000976562
c18 0 34.333 4 49 12c16 9.33301 29.333 23.666 40 42.999c17.333 30.667 26.333 70 27 118v168c0 48 -9 87 -27 117c-10.667 18.667 -24 33 -40 43c-14.667 8 -31 12 -49 12h-56v-513zM53 915.001l89 68l108 -139l108 139l89 -68l-138 -146h-118z" />
    <glyph glyph-name="dcaron" unicode="&#x10f;" 
d="M37 220v90.001c0 63.333 11.333 114.666 34 153.999c14.667 25.333 33 44.333 55 57c19.333 11.333 41.333 17 66 17c23.333 0 43.666 -5 60.999 -15c21.333 -12 39.333 -31 54 -57v269h123v-735h-123v64c-14.667 -25.333 -32.667 -44.333 -54 -57
c-17.333 -10 -37.666 -15 -60.999 -15c-24.667 0 -46.667 5.66699 -66 17c-22 12.667 -40.333 31.667 -55 57c-22.667 40 -34 91.333 -34 154zM160 220.001c0 -33.333 6.00098 -59.998 18.001 -79.998c7.33301 -12.667 16.333 -22.334 27 -29.001
c9.33301 -5.33301 20 -8 32 -8c10.667 0 19.667 2.33301 27 7c9.33301 5.33301 17.666 14 24.999 26c12 20.667 18 48.667 18 84v90c0 35.333 -6 63.333 -18 84c-6.66699 12 -15 20.667 -25 26c-8 4.66699 -17 7 -27 7c-11.333 0 -22 -2.66699 -32 -8
c-10.667 -6 -19.667 -15.667 -27 -29c-12 -20.667 -18 -47.334 -18 -80.001v-90zM446.001 718.003c0 18 5.33398 32.333 16.001 43s25 16 43 16s32.333 -5.33301 43 -16s16 -25 16 -43c0 -48 -11 -91.333 -33 -130c-10 -18 -22.667 -34 -38 -48l-45 42
c21.333 22 35.666 48 42.999 78c-12 2 -21.667 7 -29 15c-10.667 10.667 -16 25 -16 43z" />
    <glyph glyph-name="Dcroat" unicode="&#x110;" 
d="M14 339v86h31v310h179c45.333 0 85 -10 119 -30c32.667 -18.667 59.334 -46 80.001 -82c26.667 -46 40 -103 40 -171v-168c0 -68 -13.333 -125.333 -40 -172c-20.667 -36 -47.334 -63.333 -80.001 -82c-34 -20 -73.667 -30 -119 -30h-179v339h-31zM168 111
l56 0.000976562c18 0 34.333 4 49 12c16 9.33301 29.333 23.666 40 42.999c17.333 30.667 26.333 70 27 118v168c0 48 -9 87 -27 117c-10.667 18.667 -24 33 -40 43c-14.667 8 -31 12 -49 12h-56v-199h91v-86h-91v-228z" />
    <glyph glyph-name="dcroat" unicode="&#x111;" 
d="M37 220v90c0 60 11.333 109.333 34 148c15.333 26.667 35 47 59 61c22 12.667 47.333 19 76 19c27.333 0 51 -6 71 -18c22 -12.667 40.333 -31 55 -55v114h-82v86h82v70h123v-70h31v-86h-31v-579h-123v65c-14.667 -24.667 -33 -43 -55 -55c-20 -12 -43.667 -18 -71 -18
c-28.667 0 -54 6.33301 -76 19c-24 14 -43.667 34.333 -59 61c-22.667 38.667 -34 88 -34 148zM160 220c0 -30 5.66699 -55 17 -75c8 -14 18.667 -24.667 32 -32c12 -6.66699 25.333 -10 40 -10c14 0 26 3 36 9c11.333 6.66699 21 16.667 29 30c12 20 18 46 18 78v90
c0 32 -6 58 -18 78c-8 13.333 -17.667 23.333 -29 30c-10 6 -22 9 -36 9c-15.333 0 -28.666 -3.33301 -39.999 -10c-12.667 -7.33301 -23.334 -18 -32.001 -32c-11.333 -20 -17 -45 -17 -75v-90z" />
    <glyph glyph-name="Emacron" unicode="&#x112;" 
d="M68 0v735h387v-111h-264v-172h203v-111h-203v-230h264v-111h-387zM100 842v96h300v-96h-300z" />
    <glyph glyph-name="emacron" unicode="&#x113;" 
d="M37 220l0.00488281 90.001c0 51.333 10.333 95 31 131c17.333 30 40.666 53.333 69.999 70c31.333 18 68.666 27 111.999 27s80.666 -9 111.999 -27c29.333 -16.667 52.666 -40 69.999 -70c20.667 -36 31 -79.667 31 -131v-100h-302
c1.33301 -24 6.66602 -44.667 15.999 -62c8.66699 -14.667 19.667 -25.667 33 -33c13.333 -8 29 -12 47 -12c18.667 0 35.334 4 50.001 12c14 8 25 19.333 33 34c4 7.33301 7.33301 15 10 23l114 -42c-4.66699 -13.333 -10.334 -26 -17.001 -38
c-17.333 -30.667 -41 -54.334 -71 -71.001c-33.333 -19.333 -73 -29 -119 -29s-85.333 9.66699 -118 29c-30 17.333 -53.667 41 -71 71c-20.667 35.333 -31 78 -31 128zM161.005 320.001h177.999c-1.33301 25.333 -6.66602 47 -15.999 65c-8 14 -18.667 24.667 -32 32
c-12 6.66699 -25.833 10 -41.5 10s-29.167 -3.33301 -40.5 -10c-12.667 -7.33301 -23.334 -18 -32.001 -32c-9.33301 -18 -14.666 -39.667 -15.999 -65zM100.004 637.001v96h300v-96h-300z" />
    <glyph glyph-name="Ebreve" unicode="&#x114;" 
d="M68 0v735h387v-111h-264v-172h203v-111h-203v-230h264v-111h-387zM77 949h105.998c0 -13.333 2.66699 -24.666 8 -33.999c5.33301 -8.66699 12.333 -15.667 21 -21c10.667 -6 23.334 -9 38.001 -9s27.334 3 38.001 9c19.333 11.333 29 29.666 29 54.999h106
c0 -32 -6.66699 -59.667 -20 -83c-12.667 -22 -30.334 -39.667 -53.001 -53c-27.333 -16 -60.666 -24 -99.999 -24s-72.666 8 -99.999 24c-22.667 13.333 -40.334 31 -53.001 53c-13.333 23.333 -20 51 -20 83z" />
    <glyph glyph-name="ebreve" unicode="&#x115;" 
d="M37 220l0.00488281 90.001c0 51.333 10.333 95 31 131c17.333 30 40.666 53.333 69.999 70c31.333 18 68.666 27 111.999 27s80.666 -9 111.999 -27c29.333 -16.667 52.666 -40 69.999 -70c20.667 -36 31 -79.667 31 -131v-100h-302
c1.33301 -24 6.66602 -44.667 15.999 -62c8.66699 -14.667 19.667 -25.667 33 -33c13.333 -8 29 -12 47 -12c18.667 0 35.334 4 50.001 12c14 8 25 19.333 33 34c4 7.33301 7.33301 15 10 23l114 -42c-4.66699 -13.333 -10.334 -26 -17.001 -38
c-17.333 -30.667 -41 -54.334 -71 -71.001c-33.333 -19.333 -73 -29 -119 -29s-85.333 9.66699 -118 29c-30 17.333 -53.667 41 -71 71c-20.667 35.333 -31 78 -31 128zM161.005 320.001h177.999c-1.33301 25.333 -6.66602 47 -15.999 65c-8 14 -18.667 24.667 -32 32
c-12 6.66699 -25.833 10 -41.5 10s-29.167 -3.33301 -40.5 -10c-12.667 -7.33301 -23.334 -18 -32.001 -32c-9.33301 -18 -14.666 -39.667 -15.999 -65zM77.0039 744.001h105.998c0 -13.333 2.66699 -24.666 8 -33.999c5.33301 -8.66699 12.333 -15.667 21 -21
c10.667 -6 23.334 -9 38.001 -9s27.334 3 38.001 9c19.333 11.333 29 29.666 29 54.999h106c0 -32 -6.66699 -59.667 -20 -83c-12.667 -22 -30.334 -39.667 -53.001 -53c-27.333 -16 -60.666 -24 -99.999 -24s-72.666 8 -99.999 24c-22.667 13.333 -40.334 31 -53.001 53
c-13.333 23.333 -20 51 -20 83z" />
    <glyph glyph-name="Edotaccent" unicode="&#x116;" 
d="M68 0v735h387v-111h-264v-172h203v-111h-203v-230h264v-111h-387zM170 890c0 17.333 3.66699 32 11 44c6 10.667 14.333 19 25 25c12 7.33301 26.667 11 44 11s32 -3.66699 44 -11c10.667 -6 19 -14.333 25 -25c7.33301 -12 11 -26.667 11 -44s-3.66699 -32 -11 -44
c-6 -10.667 -14.333 -19 -25 -25c-12 -7.33301 -26.667 -11 -44 -11s-32 3.66699 -44 11c-10.667 6 -19 14.333 -25 25c-7.33301 12 -11 26.667 -11 44z" />
    <glyph glyph-name="edotaccent" unicode="&#x117;" 
d="M37 220l0.00488281 90.001c0 51.333 10.333 95 31 131c17.333 30 40.666 53.333 69.999 70c31.333 18 68.666 27 111.999 27s80.666 -9 111.999 -27c29.333 -16.667 52.666 -40 69.999 -70c20.667 -36 31 -79.667 31 -131v-100h-302
c1.33301 -24 6.66602 -44.667 15.999 -62c8.66699 -14.667 19.667 -25.667 33 -33c13.333 -8 29 -12 47 -12c18.667 0 35.334 4 50.001 12c14 8 25 19.333 33 34c4 7.33301 7.33301 15 10 23l114 -42c-4.66699 -13.333 -10.334 -26 -17.001 -38
c-17.333 -30.667 -41 -54.334 -71 -71.001c-33.333 -19.333 -73 -29 -119 -29s-85.333 9.66699 -118 29c-30 17.333 -53.667 41 -71 71c-20.667 35.333 -31 78 -31 128zM161.005 320.001h177.999c-1.33301 25.333 -6.66602 47 -15.999 65c-8 14 -18.667 24.667 -32 32
c-12 6.66699 -25.833 10 -41.5 10s-29.167 -3.33301 -40.5 -10c-12.667 -7.33301 -23.334 -18 -32.001 -32c-9.33301 -18 -14.666 -39.667 -15.999 -65zM170.004 685.001c0 17.333 3.66699 32 11 44c6 10.667 14.333 19 25 25c12 7.33301 26.667 11 44 11
s32 -3.66699 44 -11c10.667 -6 19 -14.333 25 -25c7.33301 -12 11 -26.667 11 -44s-3.66699 -32 -11 -44c-6 -10.667 -14.333 -19 -25 -25c-12 -7.33301 -26.667 -11 -44 -11s-32 3.66699 -44 11c-10.667 6 -19 14.333 -25 25c-7.33301 12 -11 26.667 -11 44z" />
    <glyph glyph-name="Eogonek" unicode="&#x118;" 
d="M68 0v735h387v-111h-264v-172h203v-111h-203v-230h264v-111h-387zM112 -81c0 14 3.33398 26.998 10.001 38.998c7.33301 13.333 19 24 35 32c22.667 13.333 53.667 20 93 20v-18c-10.667 0 -19.334 -3.33301 -26.001 -10c-5.33301 -5.33301 -8 -11.666 -8 -18.999
s2.66699 -13.666 8 -18.999c8 -8 22.667 -12.333 44 -13h67v-105h-64c-52.667 0 -90.667 6.66699 -114 20c-15.333 8.66699 -26.666 20 -33.999 34c-6.66699 12 -10.334 25 -11.001 39z" />
    <glyph glyph-name="eogonek" unicode="&#x119;" 
d="M37 220l0.00488281 90.001c0 51.333 10.333 95 31 131c17.333 30 40.666 53.333 69.999 70c31.333 18 68.666 27 111.999 27s80.666 -9 111.999 -27c29.333 -16.667 52.666 -40 69.999 -70c20.667 -36 31 -79.667 31 -131v-100h-302
c1.33301 -24 6.66602 -44.667 15.999 -62c8.66699 -14.667 19.667 -25.667 33 -33c13.333 -8 29 -12 47 -12c18.667 0 35.334 4 50.001 12c14 8 25 19.333 33 34c4 7.33301 7.33301 15 10 23l114 -42c-4.66699 -13.333 -10.334 -26 -17.001 -38
c-17.333 -30.667 -41 -54.334 -71 -71.001c-33.333 -19.333 -73 -29 -119 -29s-85.333 9.66699 -118 29c-30 17.333 -53.667 41 -71 71c-20.667 35.333 -31 78 -31 128zM161.005 320.001h177.999c-1.33301 25.333 -6.66602 47 -15.999 65c-8 14 -18.667 24.667 -32 32
c-12 6.66699 -25.833 10 -41.5 10s-29.167 -3.33301 -40.5 -10c-12.667 -7.33301 -23.334 -18 -32.001 -32c-9.33301 -18 -14.666 -39.667 -15.999 -65zM112.004 -80.999c0 14 3.33398 26.998 10.001 38.998c7.33301 13.333 19 24 35 32c22.667 13.333 53.667 20 93 20v-18
c-10.667 0 -19.334 -3.33301 -26.001 -10c-5.33301 -5.33301 -8 -11.666 -8 -18.999s2.66699 -13.666 8 -18.999c8 -8 22.667 -12.333 44 -13h67v-105h-64c-52.667 0 -90.667 6.66699 -114 20c-15.333 8.66699 -26.666 20 -33.999 34c-6.66699 12 -10.334 25 -11.001 39z
" />
    <glyph glyph-name="Ecaron" unicode="&#x11a;" 
d="M68 0v735h387v-111h-264v-172h203v-111h-203v-230h264v-111h-387zM53 915l89 68l108 -139l108 139l89 -68l-138 -146h-118z" />
    <glyph glyph-name="ecaron" unicode="&#x11b;" 
d="M37 220l0.00488281 90.001c0 51.333 10.333 95 31 131c17.333 30 40.666 53.333 69.999 70c31.333 18 68.666 27 111.999 27s80.666 -9 111.999 -27c29.333 -16.667 52.666 -40 69.999 -70c20.667 -36 31 -79.667 31 -131v-100h-302
c1.33301 -24 6.66602 -44.667 15.999 -62c8.66699 -14.667 19.667 -25.667 33 -33c13.333 -8 29 -12 47 -12c18.667 0 35.334 4 50.001 12c14 8 25 19.333 33 34c4 7.33301 7.33301 15 10 23l114 -42c-4.66699 -13.333 -10.334 -26 -17.001 -38
c-17.333 -30.667 -41 -54.334 -71 -71.001c-33.333 -19.333 -73 -29 -119 -29s-85.333 9.66699 -118 29c-30 17.333 -53.667 41 -71 71c-20.667 35.333 -31 78 -31 128zM161.005 320.001h177.999c-1.33301 25.333 -6.66602 47 -15.999 65c-8 14 -18.667 24.667 -32 32
c-12 6.66699 -25.833 10 -41.5 10s-29.167 -3.33301 -40.5 -10c-12.667 -7.33301 -23.334 -18 -32.001 -32c-9.33301 -18 -14.666 -39.667 -15.999 -65zM53.0039 710.001l89 68l108 -139l108 139l89 -68l-138 -146h-118z" />
    <glyph glyph-name="Gcircumflex" unicode="&#x11c;" 
d="M37 210l0.000976562 314.998c0 47.333 9.66699 88 29 122c16.667 28.667 39.667 51.334 69 68.001c32 18.667 70.667 28 116 28s84 -9.33301 116 -28c28.667 -16.667 51.667 -39.667 69 -69c12 -20.667 20 -42.667 24 -66l-119 -28c-2 13.333 -6.33301 25.666 -13 36.999
c-8 13.333 -18.333 24 -31 32c-12.667 7.33301 -28 11 -46 11c-17.333 0 -32.333 -3.66699 -45 -11s-22.667 -17.666 -30 -30.999c-10 -17.333 -15.333 -39 -16 -65v-315c0 -26 5.33301 -47.667 16 -65c8 -13.333 18.167 -23.666 30.5 -30.999s26.5 -11 42.5 -11
c14.667 0 27.667 3 39 9c11.333 6.66699 20.666 16.667 27.999 30c10.667 18 16 40.667 16 68v89h-82v111h205v-200c0 -48.667 -10 -90 -30 -124c-16.667 -28.667 -39 -51.334 -67 -68.001c-30 -17.333 -66.333 -26 -109 -26c-44.667 0 -82.667 9.33301 -114 28
c-29.333 16.667 -52.333 39.334 -69 68.001c-19.333 34 -29 74.667 -29 122zM53.001 832.998l138 146h118l138 -146l-89 -68l-108 139l-108 -139z" />
    <glyph glyph-name="gcircumflex" unicode="&#x11d;" 
d="M30 -35c0 30 6.33496 55.668 19.002 77.001c6.66699 11.333 14.667 21.333 24 30c-1.33301 2 -2.66602 4.33301 -3.99902 7c-10.667 18 -16 37.667 -16 59c0 22.667 6 44.334 18 65.001c4.66699 7.33301 9.66699 14.333 15 21c-10 10 -18.667 21 -26 33
c-15.333 26.667 -23 58.5 -23 95.5s7.66699 68.833 23 95.5c14.667 26 35.667 46.667 63 62c32.667 18.667 72.667 28 120 28c25.333 0 48.666 -2.66699 69.999 -8h161v-111l-35 1c7.33301 -20 11 -42.333 11 -67c0 -36.667 -8 -68.667 -24 -96
c-14.667 -26 -35.334 -46.333 -62.001 -61c-32.667 -18.667 -73 -28.334 -121 -29.001c-27.333 0 -52.333 3.33301 -75 10c-3.33301 -5.33301 -5 -11 -5 -17c0 -8.66699 3 -16.334 9 -23.001c8.66699 -8.66699 24 -13 46 -13h59c47.333 0 87.333 -9.33301 120 -28
c24 -14 42.333 -32 55 -54s19 -48 19 -78c0 -31.333 -7 -59.333 -21 -84c-14.667 -24.667 -35.667 -45 -63 -61c-36.667 -21.333 -82.334 -32 -137.001 -32c-54 0 -99.333 10.667 -136 32c-27.333 16 -48.333 36.333 -63 61c-14 24.667 -21 53 -21 85zM154.002 -34.999
c0 -10.667 2.33203 -20.333 6.99902 -29c5.33301 -9.33301 13.333 -17 24 -23c16.667 -10 38.334 -15 65.001 -15s48.667 5 66 15c10.667 6 18.667 13.667 24 23c4.66699 8 7.33398 17 8.00098 27c0 12.667 -4 23 -12 31c-12.667 12.667 -32.334 19 -59.001 19h-57
c-24 0 -42.333 -6.33301 -55 -19c-8 -8 -11.667 -17.667 -11 -29zM160.501 352.502c-0.333008 -29 11.167 -49.834 34.5 -62.501c13.333 -7.33301 29.5 -11.166 48.5 -11.499s35.167 3.5 48.5 11.5c22.667 13.333 34 34.333 34 63s-11.333 49.667 -34 63
c-10.667 6 -23.667 9.66699 -39 11h-10c-19.333 0 -35.333 -3.66699 -48 -11c-22.667 -13.333 -34.167 -34.5 -34.5 -63.5zM53.001 628.001l138 146h118l138 -146l-89 -68l-108 139l-108 -139z" />
    <glyph glyph-name="Gbreve" unicode="&#x11e;" 
d="M37 210l0.000976562 314.998c0 47.333 9.66699 88 29 122c16.667 28.667 39.667 51.334 69 68.001c32 18.667 70.667 28 116 28s84 -9.33301 116 -28c28.667 -16.667 51.667 -39.667 69 -69c12 -20.667 20 -42.667 24 -66l-119 -28c-2 13.333 -6.33301 25.666 -13 36.999
c-8 13.333 -18.333 24 -31 32c-12.667 7.33301 -28 11 -46 11c-17.333 0 -32.333 -3.66699 -45 -11s-22.667 -17.666 -30 -30.999c-10 -17.333 -15.333 -39 -16 -65v-315c0 -26 5.33301 -47.667 16 -65c8 -13.333 18.167 -23.666 30.5 -30.999s26.5 -11 42.5 -11
c14.667 0 27.667 3 39 9c11.333 6.66699 20.666 16.667 27.999 30c10.667 18 16 40.667 16 68v89h-82v111h205v-200c0 -48.667 -10 -90 -30 -124c-16.667 -28.667 -39 -51.334 -67 -68.001c-30 -17.333 -66.333 -26 -109 -26c-44.667 0 -82.667 9.33301 -114 28
c-29.333 16.667 -52.333 39.334 -69 68.001c-19.333 34 -29 74.667 -29 122zM77.001 948.998h105.998c0 -13.333 2.66699 -24.666 8 -33.999c5.33301 -8.66699 12.333 -15.667 21 -21c10.667 -6 23.334 -9 38.001 -9s27.334 3 38.001 9c19.333 11.333 29 29.666 29 54.999
h106c0 -32 -6.66699 -59.667 -20 -83c-12.667 -22 -30.334 -39.667 -53.001 -53c-27.333 -16 -60.666 -24 -99.999 -24s-72.666 8 -99.999 24c-22.667 13.333 -40.334 31 -53.001 53c-13.333 23.333 -20 51 -20 83z" />
    <glyph glyph-name="gbreve" unicode="&#x11f;" 
d="M30 -35c0 30 6.33496 55.668 19.002 77.001c6.66699 11.333 14.667 21.333 24 30c-1.33301 2 -2.66602 4.33301 -3.99902 7c-10.667 18 -16 37.667 -16 59c0 22.667 6 44.334 18 65.001c4.66699 7.33301 9.66699 14.333 15 21c-10 10 -18.667 21 -26 33
c-15.333 26.667 -23 58.5 -23 95.5s7.66699 68.833 23 95.5c14.667 26 35.667 46.667 63 62c32.667 18.667 72.667 28 120 28c25.333 0 48.666 -2.66699 69.999 -8h161v-111l-35 1c7.33301 -20 11 -42.333 11 -67c0 -36.667 -8 -68.667 -24 -96
c-14.667 -26 -35.334 -46.333 -62.001 -61c-32.667 -18.667 -73 -28.334 -121 -29.001c-27.333 0 -52.333 3.33301 -75 10c-3.33301 -5.33301 -5 -11 -5 -17c0 -8.66699 3 -16.334 9 -23.001c8.66699 -8.66699 24 -13 46 -13h59c47.333 0 87.333 -9.33301 120 -28
c24 -14 42.333 -32 55 -54s19 -48 19 -78c0 -31.333 -7 -59.333 -21 -84c-14.667 -24.667 -35.667 -45 -63 -61c-36.667 -21.333 -82.334 -32 -137.001 -32c-54 0 -99.333 10.667 -136 32c-27.333 16 -48.333 36.333 -63 61c-14 24.667 -21 53 -21 85zM154.002 -34.999
c0 -10.667 2.33203 -20.333 6.99902 -29c5.33301 -9.33301 13.333 -17 24 -23c16.667 -10 38.334 -15 65.001 -15s48.667 5 66 15c10.667 6 18.667 13.667 24 23c4.66699 8 7.33398 17 8.00098 27c0 12.667 -4 23 -12 31c-12.667 12.667 -32.334 19 -59.001 19h-57
c-24 0 -42.333 -6.33301 -55 -19c-8 -8 -11.667 -17.667 -11 -29zM160.501 352.502c-0.333008 -29 11.167 -49.834 34.5 -62.501c13.333 -7.33301 29.5 -11.166 48.5 -11.499s35.167 3.5 48.5 11.5c22.667 13.333 34 34.333 34 63s-11.333 49.667 -34 63
c-10.667 6 -23.667 9.66699 -39 11h-10c-19.333 0 -35.333 -3.66699 -48 -11c-22.667 -13.333 -34.167 -34.5 -34.5 -63.5zM77.001 744.001h105.998c0 -13.333 2.66699 -24.666 8 -33.999c5.33301 -8.66699 12.333 -15.667 21 -21c10.667 -6 23.334 -9 38.001 -9
s27.334 3 38.001 9c19.333 11.333 29 29.666 29 54.999h106c0 -32 -6.66699 -59.667 -20 -83c-12.667 -22 -30.334 -39.667 -53.001 -53c-27.333 -16 -60.666 -24 -99.999 -24s-72.666 8 -99.999 24c-22.667 13.333 -40.334 31 -53.001 53c-13.333 23.333 -20 51 -20 83z
" />
    <glyph glyph-name="Gdotaccent" unicode="&#x120;" 
d="M37 210l0.000976562 314.998c0 47.333 9.66699 88 29 122c16.667 28.667 39.667 51.334 69 68.001c32 18.667 70.667 28 116 28s84 -9.33301 116 -28c28.667 -16.667 51.667 -39.667 69 -69c12 -20.667 20 -42.667 24 -66l-119 -28c-2 13.333 -6.33301 25.666 -13 36.999
c-8 13.333 -18.333 24 -31 32c-12.667 7.33301 -28 11 -46 11c-17.333 0 -32.333 -3.66699 -45 -11s-22.667 -17.666 -30 -30.999c-10 -17.333 -15.333 -39 -16 -65v-315c0 -26 5.33301 -47.667 16 -65c8 -13.333 18.167 -23.666 30.5 -30.999s26.5 -11 42.5 -11
c14.667 0 27.667 3 39 9c11.333 6.66699 20.666 16.667 27.999 30c10.667 18 16 40.667 16 68v89h-82v111h205v-200c0 -48.667 -10 -90 -30 -124c-16.667 -28.667 -39 -51.334 -67 -68.001c-30 -17.333 -66.333 -26 -109 -26c-44.667 0 -82.667 9.33301 -114 28
c-29.333 16.667 -52.333 39.334 -69 68.001c-19.333 34 -29 74.667 -29 122zM170.001 889.998c0 17.333 3.66699 32 11 44c6 10.667 14.333 19 25 25c12 7.33301 26.667 11 44 11s32 -3.66699 44 -11c10.667 -6 19 -14.333 25 -25c7.33301 -12 11 -26.667 11 -44
s-3.66699 -32 -11 -44c-6 -10.667 -14.333 -19 -25 -25c-12 -7.33301 -26.667 -11 -44 -11s-32 3.66699 -44 11c-10.667 6 -19 14.333 -25 25c-7.33301 12 -11 26.667 -11 44z" />
    <glyph glyph-name="gdotaccent" unicode="&#x121;" 
d="M30 -35c0 30 6.33496 55.668 19.002 77.001c6.66699 11.333 14.667 21.333 24 30c-1.33301 2 -2.66602 4.33301 -3.99902 7c-10.667 18 -16 37.667 -16 59c0 22.667 6 44.334 18 65.001c4.66699 7.33301 9.66699 14.333 15 21c-10 10 -18.667 21 -26 33
c-15.333 26.667 -23 58.5 -23 95.5s7.66699 68.833 23 95.5c14.667 26 35.667 46.667 63 62c32.667 18.667 72.667 28 120 28c25.333 0 48.666 -2.66699 69.999 -8h161v-111l-35 1c7.33301 -20 11 -42.333 11 -67c0 -36.667 -8 -68.667 -24 -96
c-14.667 -26 -35.334 -46.333 -62.001 -61c-32.667 -18.667 -73 -28.334 -121 -29.001c-27.333 0 -52.333 3.33301 -75 10c-3.33301 -5.33301 -5 -11 -5 -17c0 -8.66699 3 -16.334 9 -23.001c8.66699 -8.66699 24 -13 46 -13h59c47.333 0 87.333 -9.33301 120 -28
c24 -14 42.333 -32 55 -54s19 -48 19 -78c0 -31.333 -7 -59.333 -21 -84c-14.667 -24.667 -35.667 -45 -63 -61c-36.667 -21.333 -82.334 -32 -137.001 -32c-54 0 -99.333 10.667 -136 32c-27.333 16 -48.333 36.333 -63 61c-14 24.667 -21 53 -21 85zM154.002 -34.999
c0 -10.667 2.33203 -20.333 6.99902 -29c5.33301 -9.33301 13.333 -17 24 -23c16.667 -10 38.334 -15 65.001 -15s48.667 5 66 15c10.667 6 18.667 13.667 24 23c4.66699 8 7.33398 17 8.00098 27c0 12.667 -4 23 -12 31c-12.667 12.667 -32.334 19 -59.001 19h-57
c-24 0 -42.333 -6.33301 -55 -19c-8 -8 -11.667 -17.667 -11 -29zM160.501 352.502c-0.333008 -29 11.167 -49.834 34.5 -62.501c13.333 -7.33301 29.5 -11.166 48.5 -11.499s35.167 3.5 48.5 11.5c22.667 13.333 34 34.333 34 63s-11.333 49.667 -34 63
c-10.667 6 -23.667 9.66699 -39 11h-10c-19.333 0 -35.333 -3.66699 -48 -11c-22.667 -13.333 -34.167 -34.5 -34.5 -63.5zM170.001 685.001c0 17.333 3.66699 32 11 44c6 10.667 14.333 19 25 25c12 7.33301 26.667 11 44 11s32 -3.66699 44 -11
c10.667 -6 19 -14.333 25 -25c7.33301 -12 11 -26.667 11 -44s-3.66699 -32 -11 -44c-6 -10.667 -14.333 -19 -25 -25c-12 -7.33301 -26.667 -11 -44 -11s-32 3.66699 -44 11c-10.667 6 -19 14.333 -25 25c-7.33301 12 -11 26.667 -11 44z" />
    <glyph glyph-name="Gcommaaccent" unicode="&#x122;" 
d="M37 210l0.000976562 314.998c0 47.333 9.66699 88 29 122c16.667 28.667 39.667 51.334 69 68.001c32 18.667 70.667 28 116 28s84 -9.33301 116 -28c28.667 -16.667 51.667 -39.667 69 -69c12 -20.667 20 -42.667 24 -66l-119 -28c-2 13.333 -6.33301 25.666 -13 36.999
c-8 13.333 -18.333 24 -31 32c-12.667 7.33301 -28 11 -46 11c-17.333 0 -32.333 -3.66699 -45 -11s-22.667 -17.666 -30 -30.999c-10 -17.333 -15.333 -39 -16 -65v-315c0 -26 5.33301 -47.667 16 -65c8 -13.333 18.167 -23.666 30.5 -30.999s26.5 -11 42.5 -11
c14.667 0 27.667 3 39 9c11.333 6.66699 20.666 16.667 27.999 30c10.667 18 16 40.667 16 68v89h-82v111h205v-200c0 -48.667 -10 -90 -30 -124c-16.667 -28.667 -39 -51.334 -67 -68.001c-30 -17.333 -66.333 -26 -109 -26c-44.667 0 -82.667 9.33301 -114 28
c-29.333 16.667 -52.333 39.334 -69 68.001c-19.333 34 -29 74.667 -29 122zM191.001 -78.002c0 18 5.33398 32.333 16.001 43s25 16 43 16s32.333 -5.33301 43 -16s16 -25 16 -43c0 -48 -11 -91.333 -33 -130c-10 -18 -22.667 -34 -38 -48l-45 42
c21.333 22 35.666 48 42.999 78c-12 2 -21.667 7 -29 15c-10.667 10.667 -16 25 -16 43z" />
    <glyph glyph-name="gcommaaccent" unicode="&#x123;" 
d="M30 -35c0 30 6.33496 55.668 19.002 77.001c6.66699 11.333 14.667 21.333 24 30c-1.33301 2 -2.66602 4.33301 -3.99902 7c-10.667 18 -16 37.667 -16 59c0 22.667 6 44.334 18 65.001c4.66699 7.33301 9.66699 14.333 15 21c-10 10 -18.667 21 -26 33
c-15.333 26.667 -23 58.5 -23 95.5s7.66699 68.833 23 95.5c14.667 26 35.667 46.667 63 62c32.667 18.667 72.667 28 120 28c25.333 0 48.666 -2.66699 69.999 -8h161v-111l-35 1c7.33301 -20 11 -42.333 11 -67c0 -36.667 -8 -68.667 -24 -96
c-14.667 -26 -35.334 -46.333 -62.001 -61c-32.667 -18.667 -73 -28.334 -121 -29.001c-27.333 0 -52.333 3.33301 -75 10c-3.33301 -5.33301 -5 -11 -5 -17c0 -8.66699 3 -16.334 9 -23.001c8.66699 -8.66699 24 -13 46 -13h59c47.333 0 87.333 -9.33301 120 -28
c24 -14 42.333 -32 55 -54s19 -48 19 -78c0 -31.333 -7 -59.333 -21 -84c-14.667 -24.667 -35.667 -45 -63 -61c-36.667 -21.333 -82.334 -32 -137.001 -32c-54 0 -99.333 10.667 -136 32c-27.333 16 -48.333 36.333 -63 61c-14 24.667 -21 53 -21 85zM154.002 -34.999
c0 -10.667 2.33203 -20.333 6.99902 -29c5.33301 -9.33301 13.333 -17 24 -23c16.667 -10 38.334 -15 65.001 -15s48.667 5 66 15c10.667 6 18.667 13.667 24 23c4.66699 8 7.33398 17 8.00098 27c0 12.667 -4 23 -12 31c-12.667 12.667 -32.334 19 -59.001 19h-57
c-24 0 -42.333 -6.33301 -55 -19c-8 -8 -11.667 -17.667 -11 -29zM160.501 352.502c-0.333008 -29 11.167 -49.834 34.5 -62.501c13.333 -7.33301 29.5 -11.166 48.5 -11.499s35.167 3.5 48.5 11.5c22.667 13.333 34 34.333 34 63s-11.333 49.667 -34 63
c-10.667 6 -23.667 9.66699 -39 11h-10c-19.333 0 -35.333 -3.66699 -48 -11c-22.667 -13.333 -34.167 -34.5 -34.5 -63.5zM191.001 608.001c0 48 10.999 91.333 32.999 130c10 18 22.667 34 38 48l45 -42c-21.333 -22 -35.666 -48 -42.999 -78c12 -2 21.667 -7 29 -15
c10.667 -10.667 16 -25 16 -43s-5.33301 -32.167 -16 -42.5s-25 -15.5 -43 -15.5s-32.333 5.16699 -43 15.5s-16 24.5 -16 42.5z" />
    <glyph glyph-name="Hcircumflex" unicode="&#x124;" 
d="M45 0v735h123v-305h164v305h123v-735h-123v319h-164v-319h-123zM53 833l138 146h118l138 -146l-89 -68l-108 139l-108 -139z" />
    <glyph glyph-name="hcircumflex" unicode="&#x125;" 
d="M45 0v734.999h123v-270c14.667 24.667 33 43 55 55c20 12 43.5 18 70.5 18s50.5 -6 70.5 -18c22.667 -13.333 41.667 -32.666 57 -57.999c22.667 -39.333 34 -90 34 -152v-310h-123v310c0 32 -6 58 -18 78c-8 13.333 -17.667 23.333 -29 30c-10 6 -21.667 9 -35 9
s-25 -3 -35 -9c-11.333 -6.66699 -21 -16.667 -29 -30c-12 -20 -18 -46 -18 -78v-310h-123zM53 832.999l138 146h118l138 -146l-89 -68l-108 139l-108 -139z" />
    <glyph glyph-name="Hbar" unicode="&#x126;" 
d="M14 490v86h31v159h123v-159h164v159h123v-159h31v-86h-31v-490h-123v319h-164v-319h-123v490h-31zM168 430h164v60h-164v-60z" />
    <glyph glyph-name="hbar" unicode="&#x127;" 
d="M14 579v85.999h31v70h123v-70h82v-86h-82v-114c14.667 24.667 33 43 55 55c20 12 43.5 18 70.5 18s50.5 -6 70.5 -18c22.667 -13.333 41.667 -32.666 57 -57.999c22.667 -39.333 34 -90 34 -152v-310h-123v310c0 32 -6 58 -18 78c-8 13.333 -17.667 23.333 -29 30
c-10 6 -21.667 9 -35 9s-25 -3 -35 -9c-11.333 -6.66699 -21 -16.667 -29 -30c-12 -20 -18 -46 -18 -78v-310h-123v579h-31z" />
    <glyph glyph-name="Itilde" unicode="&#x128;" 
d="M110 0v111h78v513h-78v111h280v-111h-78v-513h78v-111h-280zM56 829c9.33301 20.667 18.666 38.668 27.999 54.001c21.333 36.667 43 61.334 65 74.001c14 8 28.667 12 44 12s30 -4 44 -12c14.667 -8.66699 32.334 -26.334 53.001 -53.001l17 -22
c14 15.333 30.333 43.666 49 84.999l88 -36c-9.33301 -20.667 -18.666 -38.667 -27.999 -54c-21.333 -36.667 -43 -61.334 -65 -74.001c-14 -8 -28.667 -12.333 -44 -13c-15.333 0 -30 4 -44 12c-14.667 8.66699 -32.334 26.667 -53.001 54l-17 22
c-14 -15.333 -30.333 -43.666 -49 -84.999z" />
    <glyph glyph-name="itilde" unicode="&#x129;" 
d="M75 0v111h120v308h-106v111h230v-419h106v-111h-350zM56 624c9.33301 20.667 18.666 38.668 27.999 54.001c21.333 36.667 43 61.334 65 74.001c14 8 28.667 12 44 12s30 -4 44 -12c14.667 -8.66699 32.334 -26.334 53.001 -53.001l17 -22
c14 15.333 30.333 43.666 49 84.999l88 -36c-9.33301 -20.667 -18.666 -38.667 -27.999 -54c-21.333 -36.667 -43 -61.334 -65 -74.001c-14 -8 -28.667 -12.333 -44 -13c-15.333 0 -30 4 -44 12c-14.667 8.66699 -32.334 26.667 -53.001 54l-17 22
c-14 -15.333 -30.333 -43.666 -49 -84.999z" />
    <glyph glyph-name="Imacron" unicode="&#x12a;" 
d="M110 0v111h78v513h-78v111h280v-111h-78v-513h78v-111h-280zM100 842v96h300v-96h-300z" />
    <glyph glyph-name="imacron" unicode="&#x12b;" 
d="M75 0v111h120v308h-106v111h230v-419h106v-111h-350zM100 637v96h300v-96h-300z" />
    <glyph glyph-name="Ibreve" unicode="&#x12c;" 
d="M110 0v111h78v513h-78v111h280v-111h-78v-513h78v-111h-280zM77 949h105.998c0 -13.333 2.66699 -24.666 8 -33.999c5.33301 -8.66699 12.333 -15.667 21 -21c10.667 -6 23.334 -9 38.001 -9s27.334 3 38.001 9c19.333 11.333 29 29.666 29 54.999h106
c0 -32 -6.66699 -59.667 -20 -83c-12.667 -22 -30.334 -39.667 -53.001 -53c-27.333 -16 -60.666 -24 -99.999 -24s-72.666 8 -99.999 24c-22.667 13.333 -40.334 31 -53.001 53c-13.333 23.333 -20 51 -20 83z" />
    <glyph glyph-name="ibreve" unicode="&#x12d;" 
d="M75 0v111h120v308h-106v111h230v-419h106v-111h-350zM77 744h105.998c0 -13.333 2.66699 -24.666 8 -33.999c5.33301 -8.66699 12.333 -15.667 21 -21c10.667 -6 23.334 -9 38.001 -9s27.334 3 38.001 9c19.333 11.333 29 29.666 29 54.999h106
c0 -32 -6.66699 -59.667 -20 -83c-12.667 -22 -30.334 -39.667 -53.001 -53c-27.333 -16 -60.666 -24 -99.999 -24s-72.666 8 -99.999 24c-22.667 13.333 -40.334 31 -53.001 53c-13.333 23.333 -20 51 -20 83z" />
    <glyph glyph-name="Iogonek" unicode="&#x12e;" 
d="M110 0v111h78v513h-78v111h280v-111h-78v-513h78v-111h-280zM112 -81c0 14 3.33398 26.998 10.001 38.998c7.33301 13.333 19 24 35 32c22.667 13.333 53.667 20 93 20v-18c-10.667 0 -19.334 -3.33301 -26.001 -10c-5.33301 -5.33301 -8 -11.666 -8 -18.999
s2.66699 -13.666 8 -18.999c8 -8 22.667 -12.333 44 -13h67v-105h-64c-52.667 0 -90.667 6.66699 -114 20c-15.333 8.66699 -26.666 20 -33.999 34c-6.66699 12 -10.334 25 -11.001 39z" />
    <glyph glyph-name="iogonek" unicode="&#x12f;" 
d="M75 0v111h120v308h-106v111h230v-419h106v-111h-350zM112 -81c0 14 3.33398 26.998 10.001 38.998c7.33301 13.333 19 24 35 32c22.667 13.333 53.667 20 93 20v-18c-10.667 0 -19.334 -3.33301 -26.001 -10c-5.33301 -5.33301 -8 -11.666 -8 -18.999
s2.66699 -13.666 8 -18.999c8 -8 22.667 -12.333 44 -13h67v-105h-64c-52.667 0 -90.667 6.66699 -114 20c-15.333 8.66699 -26.666 20 -33.999 34c-6.66699 12 -10.334 25 -11.001 39zM170.001 684.998c0 17.333 3.66699 32 11 44c6 10.667 14.333 19 25 25
c12 7.33301 26.667 11 44 11s32 -3.66699 44 -11c10.667 -6 19 -14.333 25 -25c7.33301 -12 11 -26.667 11 -44s-3.66699 -32 -11 -44c-6 -10.667 -14.333 -19 -25 -25c-12 -7.33301 -26.667 -11 -44 -11s-32 3.66699 -44 11c-10.667 6 -19 14.333 -25 25
c-7.33301 12 -11 26.667 -11 44z" />
    <glyph glyph-name="Idotaccent" unicode="&#x130;" 
d="M110 0v111h78v513h-78v111h280v-111h-78v-513h78v-111h-280zM170 890c0 17.333 3.66699 32 11 44c6 10.667 14.333 19 25 25c12 7.33301 26.667 11 44 11s32 -3.66699 44 -11c10.667 -6 19 -14.333 25 -25c7.33301 -12 11 -26.667 11 -44s-3.66699 -32 -11 -44
c-6 -10.667 -14.333 -19 -25 -25c-12 -7.33301 -26.667 -11 -44 -11s-32 3.66699 -44 11c-10.667 6 -19 14.333 -25 25c-7.33301 12 -11 26.667 -11 44z" />
    <glyph glyph-name="dotlessi" unicode="&#x131;" 
d="M75 0v111h120v308h-106v111h230v-419h106v-111h-350z" />
    <glyph glyph-name="IJ" unicode="&#x132;" 
d="M45 0v735h123v-735h-123zM203 -8v110.999c34.667 0 60.667 5 78 15c14.667 8.66699 26 20 34 34c10.667 18.667 16.334 47.334 17.001 86.001v497h123v-497c0 -66.667 -9.66699 -117 -29 -151c-16 -27.333 -37.667 -49 -65 -65c-34.667 -20 -87.334 -30 -158.001 -30z
" />
    <glyph glyph-name="ij" unicode="&#x133;" 
d="M49 -70l115 40c2.66699 -13.333 7 -25.333 13 -36c7.33301 -12 16.333 -21.333 27 -28c9.33301 -5.33301 20 -8 32 -8s22.333 2.66699 31 8c10 6 18.667 14.667 26 26c10.667 18.667 16 43 16 73v525h123v-525c0 -50 -10 -92.667 -30 -128
c-16 -28 -37.667 -49.667 -65 -65c-28.667 -16.667 -62.334 -25 -101.001 -25s-72 8.33301 -100 25c-27.333 15.333 -49 37 -65 65c-9.33301 16 -16.666 33.667 -21.999 53zM49 685c0 17.333 3.66602 32 10.999 44c6 10.667 14.333 19 25 25c12 7.33301 26.667 11 44 11
s32 -3.66699 44 -11c10.667 -6 19.334 -14.333 26.001 -25c7.33301 -12 10.833 -26.667 10.5 -44s-3.83301 -32 -10.5 -44c-6 -10.667 -14.667 -19 -26 -25c-12 -7.33301 -26.5 -11 -43.5 -11s-31.833 3.66699 -44.5 11c-10.667 6 -19 14.333 -25 25
c-7.33301 12 -11 26.667 -11 44zM67.999 0v530h123v-530h-123zM290.499 685c0.333008 17.333 3.83398 32 10.501 44c6 10.667 14.667 19 26 25c12 7.33301 26.5 11 43.5 11s31.833 -3.66699 44.5 -11c10.667 -6 19 -14.333 25 -25c7.33301 -12 11 -26.667 11 -44
s-3.66699 -32 -11 -44c-6 -10.667 -14.333 -19 -25 -25c-12.667 -7.33301 -27.5 -11 -44.5 -11s-31.5 3.66699 -43.5 11c-10.667 6 -19.334 14.333 -26.001 25c-7.33301 12 -10.833 26.667 -10.5 44z" />
    <glyph glyph-name="Jcircumflex" unicode="&#x134;" 
d="M29 155l119.001 29.999c2 -17.333 6.66699 -32.666 14 -45.999c7.33301 -12.667 16.333 -22 27 -28c9.33301 -5.33301 20.333 -8 33 -8c12 0 23 2.66699 33 8c10.667 6 19.334 15 26.001 27c10.667 18.667 16 42.667 16 72v414h-113v111h236v-525
c0 -50 -10 -92.333 -30 -127c-16 -28 -37.667 -50 -65 -66c-28.667 -16.667 -62.834 -25 -102.501 -25s-73.834 8.33301 -102.501 25c-27.333 16 -49.333 38 -66 66c-12.667 22 -21 46 -25 72zM131.001 832.999l138 146h118l138 -146l-89 -68l-108 139l-108 -139z" />
    <glyph glyph-name="jcircumflex" unicode="&#x135;" 
d="M-9 -70l116 40c2.66699 -13.333 7 -25.333 13 -36c7.33301 -12 16 -21.333 26 -28c9.33301 -5.33301 20.333 -8 33 -8c12 0 22.333 2.66699 31 8c10 6 18.333 14.667 25 26c10.667 18.667 16 43 16 73v414h-113v111h237v-525c0 -50 -10.333 -92.667 -31 -128
c-16 -28 -37.667 -49.667 -65 -65c-28.667 -16.667 -62.334 -25 -101.001 -25s-72 8.33301 -100 25c-27.333 15.333 -49 37 -65 65c-9.33301 16 -16.666 33.667 -21.999 53zM96 628l138 146h118l138 -146l-89 -68l-108 139l-108 -139z" />
    <glyph glyph-name="Kcommaaccent" unicode="&#x136;" 
d="M45 0v735.001h123v-291c41.333 54 76.333 105.667 105 155c35.333 60 53 105.333 53 136h129c0 -32 -17.333 -78 -52 -138c-27.333 -46.667 -60 -95.334 -98 -146.001c105.333 -224 158 -374.333 158 -451h-123c0 64 -36 184.333 -108 361l-64 -72v-289h-123z
M191 -77.999c0 18 5.33398 32.333 16.001 43s25 16 43 16s32.333 -5.33301 43 -16s16 -25 16 -43c0 -48 -11 -91.333 -33 -130c-10 -18 -22.667 -34 -38 -48l-45 42c21.333 22 35.666 48 42.999 78c-12 2 -21.667 7 -29 15c-10.667 10.667 -16 25 -16 43z" />
    <glyph glyph-name="kcommaaccent" unicode="&#x137;" 
d="M45 0v735.001h123v-402c70 60.667 118 113 144 157c9.33301 16 14 29.333 14 40h129c0 -13.333 -6 -30.333 -18 -51c-26 -44.667 -69.333 -95.334 -130 -152.001l67 -109c59.333 -103.333 89 -176 89 -218h-123c0 45.333 -36.667 131.333 -110 258l-62 -50v-208h-123z
M191 -77.999c0 18 5.33398 32.333 16.001 43s25 16 43 16s32.333 -5.33301 43 -16s16 -25 16 -43c0 -48 -11 -91.333 -33 -130c-10 -18 -22.667 -34 -38 -48l-45 42c21.333 22 35.666 48 42.999 78c-12 2 -21.667 7 -29 15c-10.667 10.667 -16 25 -16 43z" />
    <glyph glyph-name="kgreenlandic" unicode="&#x138;" 
d="M45 0v530.001h123v-197c70 60.667 118 113 144 157c9.33301 16 14 29.333 14 40h129c0 -13.333 -6 -30.333 -18 -51c-26 -44.667 -69.333 -95.334 -130 -152.001l67 -109c59.333 -103.333 89 -176 89 -218h-123c0 45.333 -36.667 131.333 -110 258l-62 -50v-208h-123z
" />
    <glyph glyph-name="Lacute" unicode="&#x139;" 
d="M68 0v735h123v-624h272v-111h-395zM163 819l145 166l84 -73l-160 -153z" />
    <glyph glyph-name="lacute" unicode="&#x13a;" 
d="M75 0v111h120v513h-106v111h230v-624h106v-111h-350zM163 819l145 166l84 -73l-160 -153z" />
    <glyph glyph-name="Lcommaaccent" unicode="&#x13b;" 
d="M68 0v735h123v-624h272v-111h-395zM191 -78c0 18 5.33398 32.333 16.001 43s25 16 43 16s32.333 -5.33301 43 -16s16 -25 16 -43c0 -48 -11 -91.333 -33 -130c-10 -18 -22.667 -34 -38 -48l-45 42c21.333 22 35.666 48 42.999 78c-12 2 -21.667 7 -29 15
c-10.667 10.667 -16 25 -16 43z" />
    <glyph glyph-name="lcommaaccent" unicode="&#x13c;" 
d="M75 0v111h120v513h-106v111h230v-624h106v-111h-350zM191 -78c0 18 5.33398 32.333 16.001 43s25 16 43 16s32.333 -5.33301 43 -16s16 -25 16 -43c0 -48 -11 -91.333 -33 -130c-10 -18 -22.667 -34 -38 -48l-45 42c21.333 22 35.666 48 42.999 78
c-12 2 -21.667 7 -29 15c-10.667 10.667 -16 25 -16 43z" />
    <glyph glyph-name="Lcaron" unicode="&#x13d;" 
d="M68 0v735h123v-624h272v-111h-395zM345 718c0 18 5.33398 32.333 16.001 43s25 16 43 16s32.333 -5.33301 43 -16s16 -25 16 -43c0 -48 -11 -91.333 -33 -130c-10 -18 -22.667 -34 -38 -48l-45 42c21.333 22 35.666 48 42.999 78c-12 2 -21.667 7 -29 15
c-10.667 10.667 -16 25 -16 43z" />
    <glyph glyph-name="lcaron" unicode="&#x13e;" 
d="M75 0v111h120v513h-106v111h230v-624h106v-111h-350zM359 700c0 18 5.33398 32.333 16.001 43s25 16 43 16s32.333 -5.33301 43 -16s16 -25 16 -43c0 -48 -11 -91.333 -33 -130c-10 -18 -22.667 -34 -38 -48l-45 42c21.333 22 35.666 48 42.999 78
c-12 2 -21.667 7 -29 15c-10.667 10.667 -16 25 -16 43z" />
    <glyph glyph-name="Ldot" unicode="&#x13f;" 
d="M68 0v735h123v-624h272v-111h-395zM232 423c0 17.333 3.66699 32 11 44c6 10.667 14.333 19 25 25c12 7.33301 26.667 11 44 11s32 -3.66699 44 -11c10.667 -6 19 -14.333 25 -25c7.33301 -12 11 -26.667 11 -44s-3.66699 -32 -11 -44c-6 -10.667 -14.333 -19 -25 -25
c-12 -7.33301 -26.667 -11 -44 -11s-32 3.66699 -44 11c-10.667 6 -19 14.333 -25 25c-7.33301 12 -11 26.667 -11 44z" />
    <glyph glyph-name="ldot" unicode="&#x140;" 
d="M35 0v111h120v513h-106v111h230v-624h106v-111h-350zM295 423c0 17.333 3.66699 32 11 44c6 10.667 14.333 19 25 25c12 7.33301 26.667 11 44 11s32 -3.66699 44 -11c10.667 -6 19 -14.333 25 -25c7.33301 -12 11 -26.667 11 -44s-3.66699 -32 -11 -44
c-6 -10.667 -14.333 -19 -25 -25c-12 -7.33301 -26.667 -11 -44 -11s-32 3.66699 -44 11c-10.667 6 -19 14.333 -25 25c-7.33301 12 -11 26.667 -11 44z" />
    <glyph glyph-name="Lslash" unicode="&#x141;" 
d="M68 0v735h123v-624h272v-111h-395zM1 392l280 140l42 -78l-280 -140z" />
    <glyph glyph-name="lslash" unicode="&#x142;" 
d="M75 0v111h120v513h-106v111h230v-624h106v-111h-350zM93 351l280 140l42 -78l-280 -140z" />
    <glyph glyph-name="Nacute" unicode="&#x143;" 
d="M45 0v735h130l177 -544l-4 30c-11.333 78 -16.666 151.333 -15.999 220v294h123v-735h-130l-177 544l4 -30c11.333 -78 16.666 -151.333 15.999 -220v-294h-123zM163 819l145 166l84 -73l-160 -153z" />
    <glyph glyph-name="nacute" unicode="&#x144;" 
d="M45 0v529.999h123v-65c14.667 24.667 33 43 55 55c20 12 43.5 18 70.5 18s50.5 -6 70.5 -18c22.667 -13.333 41.667 -32.666 57 -57.999c22.667 -39.333 34 -90 34 -152v-310h-123v310c0 32 -6 58 -18 78c-8 13.333 -17.667 23.333 -29 30c-10 6 -21.667 9 -35 9
s-25 -3 -35 -9c-11.333 -6.66699 -21 -16.667 -29 -30c-12 -20 -18 -46 -18 -78v-310h-123zM163 613.999l145 166l84 -73l-160 -153z" />
    <glyph glyph-name="Ncommaaccent" unicode="&#x145;" 
d="M45 0v735h130l177 -544l-4 30c-11.333 78 -16.666 151.333 -15.999 220v294h123v-735h-130l-177 544l4 -30c11.333 -78 16.666 -151.333 15.999 -220v-294h-123zM191 -78c0 18 5.33398 32.333 16.001 43s25 16 43 16s32.333 -5.33301 43 -16s16 -25 16 -43
c0 -48 -11 -91.333 -33 -130c-10 -18 -22.667 -34 -38 -48l-45 42c21.333 22 35.666 48 42.999 78c-12 2 -21.667 7 -29 15c-10.667 10.667 -16 25 -16 43z" />
    <glyph glyph-name="ncommaaccent" unicode="&#x146;" 
d="M45 0v529.999h123v-65c14.667 24.667 33 43 55 55c20 12 43.5 18 70.5 18s50.5 -6 70.5 -18c22.667 -13.333 41.667 -32.666 57 -57.999c22.667 -39.333 34 -90 34 -152v-310h-123v310c0 32 -6 58 -18 78c-8 13.333 -17.667 23.333 -29 30c-10 6 -21.667 9 -35 9
s-25 -3 -35 -9c-11.333 -6.66699 -21 -16.667 -29 -30c-12 -20 -18 -46 -18 -78v-310h-123zM191 -78.001c0 18 5.33398 32.333 16.001 43s25 16 43 16s32.333 -5.33301 43 -16s16 -25 16 -43c0 -48 -11 -91.333 -33 -130c-10 -18 -22.667 -34 -38 -48l-45 42
c21.333 22 35.666 48 42.999 78c-12 2 -21.667 7 -29 15c-10.667 10.667 -16 25 -16 43z" />
    <glyph glyph-name="Ncaron" unicode="&#x147;" 
d="M45 0v735h130l177 -544l-4 30c-11.333 78 -16.666 151.333 -15.999 220v294h123v-735h-130l-177 544l4 -30c11.333 -78 16.666 -151.333 15.999 -220v-294h-123zM53 915l89 68l108 -139l108 139l89 -68l-138 -146h-118z" />
    <glyph glyph-name="ncaron" unicode="&#x148;" 
d="M45 0v529.999h123v-65c14.667 24.667 33 43 55 55c20 12 43.5 18 70.5 18s50.5 -6 70.5 -18c22.667 -13.333 41.667 -32.666 57 -57.999c22.667 -39.333 34 -90 34 -152v-310h-123v310c0 32 -6 58 -18 78c-8 13.333 -17.667 23.333 -29 30c-10 6 -21.667 9 -35 9
s-25 -3 -35 -9c-11.333 -6.66699 -21 -16.667 -29 -30c-12 -20 -18 -46 -18 -78v-310h-123zM53 709.999l89 68l108 -139l108 139l89 -68l-138 -146h-118z" />
    <glyph glyph-name="napostrophe" unicode="&#x149;" 
d="M45 0v529.999h123v-65c14.667 24.667 33 43 55 55c20 12 43.5 18 70.5 18s50.5 -6 70.5 -18c22.667 -13.333 41.667 -32.666 57 -57.999c22.667 -39.333 34 -90 34 -152v-310h-123v310c0 32 -6 58 -18 78c-8 13.333 -17.667 23.333 -29 30c-10 6 -21.667 9 -35 9
s-25 -3 -35 -9c-11.333 -6.66699 -21 -16.667 -29 -30c-12 -20 -18 -46 -18 -78v-310h-123zM-14 717.999c0 18 5.33398 32.333 16.001 43s25 16 43 16s32.333 -5.33301 43 -16s16 -25 16 -43c0 -48 -11 -91.333 -33 -130c-10 -18 -22.667 -34 -38 -48l-45 42
c21.333 22 35.666 48 42.999 78c-12 2 -21.667 7 -29 15c-10.667 10.667 -16 25 -16 43z" />
    <glyph glyph-name="Eng" unicode="&#x14a;" 
d="M45 0l0.00195312 735.001h123v-47c12 14.667 26 26.667 42 36c22 12.667 47.833 19 77.5 19s55.5 -6.33301 77.5 -19c23.333 -13.333 42.666 -33.333 57.999 -60c21.333 -36.667 32 -83 32 -139v-323c0 -44.667 -9.33301 -83 -28 -115c-16 -28 -38.333 -50.333 -67 -67
c-32.667 -18.667 -71.334 -28 -116.001 -28v111c34 0 58.667 13.667 74 41c9.33301 16 14 35.333 14 58v323c0 26 -5.33301 48 -16 66c-8 13.333 -18 23.666 -30 30.999c-12 6.66699 -26.167 10 -42.5 10s-30.5 -3.33301 -42.5 -10c-14 -8 -25 -20.333 -33 -37v-585h-123z
" />
    <glyph glyph-name="eng" unicode="&#x14b;" 
d="M45 0v530h123v-65c14.667 24.667 33 43 55 55c20 12 43.5 18 70.5 18s50.5 -6 70.5 -18c22.667 -13.333 41.667 -32.666 57 -57.999c22.667 -39.333 34 -90 34 -152v-310c0 -42 -9 -78.667 -27 -110c-16.667 -28.667 -40 -51.667 -70 -69
c-36.667 -20.667 -81.667 -31 -135 -31v110c24.667 0 45.667 5 63 15c30.667 17.333 46 45.666 46 84.999v310c0 32 -6 58 -18 78c-8 13.333 -17.667 23.333 -29 30c-10 6 -21.667 9 -35 9s-25 -3 -35 -9c-11.333 -6.66699 -21 -16.667 -29 -30c-12 -20 -18 -46 -18 -78
v-310h-123z" />
    <glyph glyph-name="Omacron" unicode="&#x14c;" 
d="M37 210v315c0 47.333 9.66699 88 29 122c16.667 28.667 39.667 51.334 69 68.001c32 18.667 70.333 28 115 28s83 -9.33301 115 -28c29.333 -16.667 52.333 -39.334 69 -68.001c19.333 -34 29 -74.667 29 -122v-315c0 -47.333 -9.66699 -88 -29 -122
c-16.667 -28.667 -39.667 -51.334 -69 -68.001c-32 -18.667 -70.333 -28 -115 -28s-83 9.33301 -115 28c-29.333 16.667 -52.333 39.334 -69 68.001c-19.333 34 -29 74.667 -29 122zM160 210c0 -26 5.33301 -47.667 16 -65c8 -13.333 18.167 -23.666 30.5 -30.999
s26.833 -11 43.5 -11s31.334 3.66699 44.001 11s22.667 17.666 30 30.999c10 17.333 15.333 39 16 65v315c0 26 -5.33301 47.667 -16 65c-8 13.333 -18.167 23.666 -30.5 30.999s-26.833 11 -43.5 11s-31.334 -3.66699 -44.001 -11s-22.667 -17.666 -30 -30.999
c-10 -17.333 -15.333 -39 -16 -65v-315zM100 842v96h300v-96h-300z" />
    <glyph glyph-name="omacron" unicode="&#x14d;" 
d="M37 220v90c0 51.333 10.333 95 31 131c17.333 30 40.666 53.333 69.999 70c31.333 18 68.666 27 111.999 27s80.666 -9 111.999 -27c29.333 -16.667 52.666 -40 69.999 -70c20.667 -36 31 -79.667 31 -131v-90c0 -51.333 -10.333 -95 -31 -131
c-17.333 -30 -40.666 -53.333 -69.999 -70c-31.333 -18 -68.666 -27 -111.999 -27s-80.666 9 -111.999 27c-29.333 16.667 -52.666 40 -69.999 70c-20.667 36 -31 79.667 -31 131zM160 220c0 -30 5.66699 -55 17 -75c8 -14 18.667 -24.667 32 -32
c12 -6.66699 25.833 -10 41.5 -10s29.167 3.33301 40.5 10c12.667 7.33301 23.334 18 32.001 32c11.333 20 17 45 17 75v90c0 30 -5.66699 55 -17 75c-8 14 -18.667 24.667 -32 32c-11.333 6.66699 -25 10 -41 10s-29.667 -3.33301 -41 -10
c-12.667 -7.33301 -23.334 -18 -32.001 -32c-11.333 -20 -17 -45 -17 -75v-90zM100 637v96h300v-96h-300z" />
    <glyph glyph-name="Obreve" unicode="&#x14e;" 
d="M37 210v315c0 47.333 9.66699 88 29 122c16.667 28.667 39.667 51.334 69 68.001c32 18.667 70.333 28 115 28s83 -9.33301 115 -28c29.333 -16.667 52.333 -39.334 69 -68.001c19.333 -34 29 -74.667 29 -122v-315c0 -47.333 -9.66699 -88 -29 -122
c-16.667 -28.667 -39.667 -51.334 -69 -68.001c-32 -18.667 -70.333 -28 -115 -28s-83 9.33301 -115 28c-29.333 16.667 -52.333 39.334 -69 68.001c-19.333 34 -29 74.667 -29 122zM160 210c0 -26 5.33301 -47.667 16 -65c8 -13.333 18.167 -23.666 30.5 -30.999
s26.833 -11 43.5 -11s31.334 3.66699 44.001 11s22.667 17.666 30 30.999c10 17.333 15.333 39 16 65v315c0 26 -5.33301 47.667 -16 65c-8 13.333 -18.167 23.666 -30.5 30.999s-26.833 11 -43.5 11s-31.334 -3.66699 -44.001 -11s-22.667 -17.666 -30 -30.999
c-10 -17.333 -15.333 -39 -16 -65v-315zM77 949h105.998c0 -13.333 2.66699 -24.666 8 -33.999c5.33301 -8.66699 12.333 -15.667 21 -21c10.667 -6 23.334 -9 38.001 -9s27.334 3 38.001 9c19.333 11.333 29 29.666 29 54.999h106c0 -32 -6.66699 -59.667 -20 -83
c-12.667 -22 -30.334 -39.667 -53.001 -53c-27.333 -16 -60.666 -24 -99.999 -24s-72.666 8 -99.999 24c-22.667 13.333 -40.334 31 -53.001 53c-13.333 23.333 -20 51 -20 83z" />
    <glyph glyph-name="obreve" unicode="&#x14f;" 
d="M37 220v90c0 51.333 10.333 95 31 131c17.333 30 40.666 53.333 69.999 70c31.333 18 68.666 27 111.999 27s80.666 -9 111.999 -27c29.333 -16.667 52.666 -40 69.999 -70c20.667 -36 31 -79.667 31 -131v-90c0 -51.333 -10.333 -95 -31 -131
c-17.333 -30 -40.666 -53.333 -69.999 -70c-31.333 -18 -68.666 -27 -111.999 -27s-80.666 9 -111.999 27c-29.333 16.667 -52.666 40 -69.999 70c-20.667 36 -31 79.667 -31 131zM160 220c0 -30 5.66699 -55 17 -75c8 -14 18.667 -24.667 32 -32
c12 -6.66699 25.833 -10 41.5 -10s29.167 3.33301 40.5 10c12.667 7.33301 23.334 18 32.001 32c11.333 20 17 45 17 75v90c0 30 -5.66699 55 -17 75c-8 14 -18.667 24.667 -32 32c-11.333 6.66699 -25 10 -41 10s-29.667 -3.33301 -41 -10
c-12.667 -7.33301 -23.334 -18 -32.001 -32c-11.333 -20 -17 -45 -17 -75v-90zM77 744h105.998c0 -13.333 2.66699 -24.666 8 -33.999c5.33301 -8.66699 12.333 -15.667 21 -21c10.667 -6 23.334 -9 38.001 -9s27.334 3 38.001 9c19.333 11.333 29 29.666 29 54.999h106
c0 -32 -6.66699 -59.667 -20 -83c-12.667 -22 -30.334 -39.667 -53.001 -53c-27.333 -16 -60.666 -24 -99.999 -24s-72.666 8 -99.999 24c-22.667 13.333 -40.334 31 -53.001 53c-13.333 23.333 -20 51 -20 83z" />
    <glyph glyph-name="Ohungarumlaut" unicode="&#x150;" 
d="M37 210v315c0 47.333 9.66699 88 29 122c16.667 28.667 39.667 51.334 69 68.001c32 18.667 70.333 28 115 28s83 -9.33301 115 -28c29.333 -16.667 52.333 -39.334 69 -68.001c19.333 -34 29 -74.667 29 -122v-315c0 -47.333 -9.66699 -88 -29 -122
c-16.667 -28.667 -39.667 -51.334 -69 -68.001c-32 -18.667 -70.333 -28 -115 -28s-83 9.33301 -115 28c-29.333 16.667 -52.333 39.334 -69 68.001c-19.333 34 -29 74.667 -29 122zM160 210c0 -26 5.33301 -47.667 16 -65c8 -13.333 18.167 -23.666 30.5 -30.999
s26.833 -11 43.5 -11s31.334 3.66699 44.001 11s22.667 17.666 30 30.999c10 17.333 15.333 39 16 65v315c0 26 -5.33301 47.667 -16 65c-8 13.333 -18.167 23.666 -30.5 30.999s-26.833 11 -43.5 11s-31.334 -3.66699 -44.001 -11s-22.667 -17.666 -30 -30.999
c-10 -17.333 -15.333 -39 -16 -65v-315zM248 819l145 166l84 -73l-160 -153zM78 819l145 166l84 -73l-160 -153z" />
    <glyph glyph-name="ohungarumlaut" unicode="&#x151;" 
d="M37 220v90c0 51.333 10.333 95 31 131c17.333 30 40.666 53.333 69.999 70c31.333 18 68.666 27 111.999 27s80.666 -9 111.999 -27c29.333 -16.667 52.666 -40 69.999 -70c20.667 -36 31 -79.667 31 -131v-90c0 -51.333 -10.333 -95 -31 -131
c-17.333 -30 -40.666 -53.333 -69.999 -70c-31.333 -18 -68.666 -27 -111.999 -27s-80.666 9 -111.999 27c-29.333 16.667 -52.666 40 -69.999 70c-20.667 36 -31 79.667 -31 131zM160 220c0 -30 5.66699 -55 17 -75c8 -14 18.667 -24.667 32 -32
c12 -6.66699 25.833 -10 41.5 -10s29.167 3.33301 40.5 10c12.667 7.33301 23.334 18 32.001 32c11.333 20 17 45 17 75v90c0 30 -5.66699 55 -17 75c-8 14 -18.667 24.667 -32 32c-11.333 6.66699 -25 10 -41 10s-29.667 -3.33301 -41 -10
c-12.667 -7.33301 -23.334 -18 -32.001 -32c-11.333 -20 -17 -45 -17 -75v-90zM248 614l145 166l84 -73l-160 -153zM78 614l145 166l84 -73l-160 -153z" />
    <glyph glyph-name="OE" unicode="&#x152;" 
d="M45 210v315c0 46 9.33301 85 28 117c16 28 38 50 66 66c31.333 18 68.333 27 111 27h205v-111h-97v-172h73v-111h-73v-230h97v-111h-205c-43.333 0 -80.333 9 -111 27c-27.333 16 -49.333 38 -66 66c-18.667 32.667 -28 71.667 -28 117zM153 210
c0 -26.667 5.33301 -49.332 16 -67.999c17.333 -30 44.333 -45 81 -45v541c-36.667 0 -63.667 -15 -81 -45c-10.667 -18.667 -16 -41.334 -16 -68.001v-315z" />
    <glyph glyph-name="oe" unicode="&#x153;" 
d="M29 132v265.999c0 30 6.33301 56 19 78c10.667 18.667 25.334 33.334 44.001 44.001c20.667 12 45.5 18 74.5 18s53.833 -6 74.5 -18c3.33301 -2 6.33301 -4 9 -6c2.66699 2 5.66699 4 9 6c20.667 12 45.5 18 74.5 18s53.833 -6 74.5 -18
c18.667 -10.667 33.334 -25.334 44.001 -44.001c12.667 -21.333 19 -47.333 19 -78v-188h-167v-78c0 -15.333 4 -27 12 -35c5.33301 -5.33301 12 -8 20 -8s14.667 2.66699 20 8c8.66699 8.66699 12.667 21 12 37v2l108 -6v-4c0 -26 -6.33301 -49.667 -19 -71
c-10.667 -18.667 -25.334 -33.667 -44.001 -45c-21.333 -12 -47 -18 -77 -18s-55.667 6 -77 18c-3.33301 2 -6 4 -8 6l-10 -6c-20.667 -12 -45.5 -18 -74.5 -18s-53.833 6 -74.5 18c-18.667 10.667 -33.334 25.334 -44.001 44.001c-12.667 21.333 -19 47.333 -19 78z
M137 131.999c0 -16 3.66797 -28 11.001 -36c4.66699 -4.66699 10.667 -7 18 -7s13.666 2.33301 18.999 7c8 8 11.667 20 11 36v266c0 16 -3.66699 28 -11 36c-5.33301 4.66699 -11.5 7 -18.5 7s-13.167 -2.33301 -18.5 -7c-8 -8 -11.667 -20 -11 -36v-266zM304.001 305.999
h59v92c0 16 -3.66699 28 -11 36c-4.66699 4.66699 -10.667 7 -18 7s-13.333 -2.33301 -18 -7c-8 -8 -12 -20 -12 -36v-92z" />
    <glyph glyph-name="Racute" unicode="&#x154;" 
d="M45 0l0.00195312 735.002h203c44 0 82 -9.33301 114 -28c29.333 -16.667 52.666 -40.334 69.999 -71.001c20.667 -36 31 -79.667 31 -131s-10.333 -95 -31 -131c-17.333 -30.667 -40.666 -54.334 -69.999 -71.001c-4.66699 -2.66699 -9.33398 -5 -14.001 -7
c13.333 -20 25.666 -40 36.999 -60c52 -90 78 -168.667 78 -236h-123c0 52 -20 112.667 -60 182c-17.333 30 -38 61 -62 93h-50v-275h-123zM168.002 386.002h80.001c16 0 30.333 3.66699 43 11s23 18 31 32c11.333 20 17.166 45.333 17.499 76s-5.5 56 -17.5 76
c-8 14 -18.333 24.667 -31 32s-27 11 -43 11h-80v-238zM163.003 819.002l145 166l84 -73l-160 -153z" />
    <glyph glyph-name="racute" unicode="&#x155;" 
d="M95 0v530h123v-92c4 8.66699 8.33301 17.334 13 26.001c15.333 26.667 34 46 56 58c18 10.667 38.333 16 61 16c24 0 46.333 -6 67 -18c21.333 -12 38.333 -29 51 -51c6 -10.667 10.667 -22 14 -34l-115 -55c-3.33301 11.333 -9 21 -17 29c-12 12 -26.667 18 -44 18
c-12.667 0 -23.667 -2.66699 -33 -8c-12 -6.66699 -22 -17.334 -30 -32.001c-15.333 -26 -23 -61.333 -23 -106v-281h-123zM163 614l145 166l84 -73l-160 -153z" />
    <glyph glyph-name="Rcommaaccent" unicode="&#x156;" 
d="M45 0l0.00195312 735.002h203c44 0 82 -9.33301 114 -28c29.333 -16.667 52.666 -40.334 69.999 -71.001c20.667 -36 31 -79.667 31 -131s-10.333 -95 -31 -131c-17.333 -30.667 -40.666 -54.334 -69.999 -71.001c-4.66699 -2.66699 -9.33398 -5 -14.001 -7
c13.333 -20 25.666 -40 36.999 -60c52 -90 78 -168.667 78 -236h-123c0 52 -20 112.667 -60 182c-17.333 30 -38 61 -62 93h-50v-275h-123zM168.002 386.002h80.001c16 0 30.333 3.66699 43 11s23 18 31 32c11.333 20 17.166 45.333 17.499 76s-5.5 56 -17.5 76
c-8 14 -18.333 24.667 -31 32s-27 11 -43 11h-80v-238zM191.003 -77.998c0 18 5.33398 32.333 16.001 43s25 16 43 16s32.333 -5.33301 43 -16s16 -25 16 -43c0 -48 -11 -91.333 -33 -130c-10 -18 -22.667 -34 -38 -48l-45 42c21.333 22 35.666 48 42.999 78
c-12 2 -21.667 7 -29 15c-10.667 10.667 -16 25 -16 43z" />
    <glyph glyph-name="rcommaaccent" unicode="&#x157;" 
d="M95 0v530h123v-92c4 8.66699 8.33301 17.334 13 26.001c15.333 26.667 34 46 56 58c18 10.667 38.333 16 61 16c24 0 46.333 -6 67 -18c21.333 -12 38.333 -29 51 -51c6 -10.667 10.667 -22 14 -34l-115 -55c-3.33301 11.333 -9 21 -17 29c-12 12 -26.667 18 -44 18
c-12.667 0 -23.667 -2.66699 -33 -8c-12 -6.66699 -22 -17.334 -30 -32.001c-15.333 -26 -23 -61.333 -23 -106v-281h-123zM191 -78c0 18 5.33398 32.333 16.001 43s25 16 43 16s32.333 -5.33301 43 -16s16 -25 16 -43c0 -48 -11 -91.333 -33 -130
c-10 -18 -22.667 -34 -38 -48l-45 42c21.333 22 35.666 48 42.999 78c-12 2 -21.667 7 -29 15c-10.667 10.667 -16 25 -16 43z" />
    <glyph glyph-name="Rcaron" unicode="&#x158;" 
d="M45 0l0.00195312 735.002h203c44 0 82 -9.33301 114 -28c29.333 -16.667 52.666 -40.334 69.999 -71.001c20.667 -36 31 -79.667 31 -131s-10.333 -95 -31 -131c-17.333 -30.667 -40.666 -54.334 -69.999 -71.001c-4.66699 -2.66699 -9.33398 -5 -14.001 -7
c13.333 -20 25.666 -40 36.999 -60c52 -90 78 -168.667 78 -236h-123c0 52 -20 112.667 -60 182c-17.333 30 -38 61 -62 93h-50v-275h-123zM168.002 386.002h80.001c16 0 30.333 3.66699 43 11s23 18 31 32c11.333 20 17.166 45.333 17.499 76s-5.5 56 -17.5 76
c-8 14 -18.333 24.667 -31 32s-27 11 -43 11h-80v-238zM53.0029 915.002l89 68l108 -139l108 139l89 -68l-138 -146h-118z" />
    <glyph glyph-name="rcaron" unicode="&#x159;" 
d="M95 0v530h123v-92c4 8.66699 8.33301 17.334 13 26.001c15.333 26.667 34 46 56 58c18 10.667 38.333 16 61 16c24 0 46.333 -6 67 -18c21.333 -12 38.333 -29 51 -51c6 -10.667 10.667 -22 14 -34l-115 -55c-3.33301 11.333 -9 21 -17 29c-12 12 -26.667 18 -44 18
c-12.667 0 -23.667 -2.66699 -33 -8c-12 -6.66699 -22 -17.334 -30 -32.001c-15.333 -26 -23 -61.333 -23 -106v-281h-123zM53 710l89 68l108 -139l108 139l89 -68l-138 -146h-118z" />
    <glyph glyph-name="Sacute" unicode="&#x15a;" 
d="M40 155l121 23v-3c0 -12 3 -23.333 9 -34s14.667 -19.334 26 -26.001c14 -8 30.667 -12 50 -12c18.667 0 34.667 3.66699 48 11c11.333 6.66699 20.333 15.667 27 27c7.33301 12.667 11 26.667 11 42c0 18 -5 36 -15 54c-14.667 26 -49.667 55 -105 87
c-70 41.333 -116 81.666 -138 120.999c-19.333 33.333 -29 68.166 -29 104.499s8.66699 69.833 26 100.5c16 27.333 37.667 49 65 65c32.667 18.667 72 28 118 28c48 0 88.667 -9.66699 122 -29c26 -15.333 46.667 -36 62 -62c13.333 -22.667 20.666 -46.667 21.999 -72
l-121 -23v3c0 12 -3 23.333 -9 34s-14.667 19.334 -26 26.001c-14 8 -30.667 12 -50 12c-18.667 0 -34.667 -3.66699 -48 -11c-11.333 -6.66699 -20.333 -15.667 -27 -27c-7.33301 -12.667 -11 -26.667 -11 -42c0 -18 5 -36 15 -54c14.667 -26 49.667 -55 105 -87
c70 -41.333 116 -81.666 138 -120.999c19.333 -33.333 29 -68.166 29 -104.499s-8.66699 -69.833 -26 -100.5c-16 -27.333 -37.667 -49 -65 -65c-32.667 -18.667 -72 -28 -118 -28c-48 0 -88.667 9.66699 -122 29c-26 15.333 -46.667 36 -62 62
c-13.333 22.667 -20.666 46.667 -21.999 72zM163 819l145 166l84 -73l-160 -153z" />
    <glyph glyph-name="sacute" unicode="&#x15b;" 
d="M42 110l113 44c4 -9.33301 9.66699 -17.666 17 -24.999c17.333 -17.333 42.333 -26 75 -26c35.333 0 60.333 7.33301 75 22c6.66699 6.66699 10.334 15 11.001 25c0 7.33301 -2 14.666 -6 21.999c-5.33301 8.66699 -13.333 16 -24 22
c-14.667 8.66699 -40.667 14.667 -78 18c-44.667 4 -78.834 12.833 -102.501 26.5s-42.5 32.834 -56.5 57.501c-14.667 25.333 -22 53.333 -22 84c0 27.333 6 51.666 18 72.999c12.667 22 31.667 40 57 54c35.333 20.667 80 31 134 31c51.333 0 93.666 -9.66699 126.999 -29
c28.667 -16.667 51 -39 67 -67c4 -7.33301 7.66699 -14.666 11 -21.999l-113 -44c-4 9.33301 -9.66699 17.666 -17 24.999c-17.333 17.333 -42.333 26 -75 26c-35.333 0 -60.333 -7.33301 -75 -22c-6.66699 -6.66699 -10.334 -15 -11.001 -25
c0 -7.33301 2 -14.666 6 -21.999c5.33301 -8.66699 13.333 -16 24 -22c14.667 -8.66699 40.667 -14.667 78 -18c44.667 -4 78.834 -12.833 102.501 -26.5s42.5 -32.834 56.5 -57.501c14.667 -25.333 22 -53.333 22 -84c0 -27.333 -6 -51.666 -18 -72.999
c-12.667 -22 -31.667 -40 -57 -54c-35.333 -20.667 -80 -31 -134 -31c-51.333 0 -93.666 9.66699 -126.999 29c-28.667 16.667 -51 39 -67 67c-4 7.33301 -7.66699 14.666 -11 21.999zM163 614l145 166l84 -73l-160 -153z" />
    <glyph glyph-name="Scircumflex" unicode="&#x15c;" 
d="M40 155l121 23v-3c0 -12 3 -23.333 9 -34s14.667 -19.334 26 -26.001c14 -8 30.667 -12 50 -12c18.667 0 34.667 3.66699 48 11c11.333 6.66699 20.333 15.667 27 27c7.33301 12.667 11 26.667 11 42c0 18 -5 36 -15 54c-14.667 26 -49.667 55 -105 87
c-70 41.333 -116 81.666 -138 120.999c-19.333 33.333 -29 68.166 -29 104.499s8.66699 69.833 26 100.5c16 27.333 37.667 49 65 65c32.667 18.667 72 28 118 28c48 0 88.667 -9.66699 122 -29c26 -15.333 46.667 -36 62 -62c13.333 -22.667 20.666 -46.667 21.999 -72
l-121 -23v3c0 12 -3 23.333 -9 34s-14.667 19.334 -26 26.001c-14 8 -30.667 12 -50 12c-18.667 0 -34.667 -3.66699 -48 -11c-11.333 -6.66699 -20.333 -15.667 -27 -27c-7.33301 -12.667 -11 -26.667 -11 -42c0 -18 5 -36 15 -54c14.667 -26 49.667 -55 105 -87
c70 -41.333 116 -81.666 138 -120.999c19.333 -33.333 29 -68.166 29 -104.499s-8.66699 -69.833 -26 -100.5c-16 -27.333 -37.667 -49 -65 -65c-32.667 -18.667 -72 -28 -118 -28c-48 0 -88.667 9.66699 -122 29c-26 15.333 -46.667 36 -62 62
c-13.333 22.667 -20.666 46.667 -21.999 72zM53 833l138 146h118l138 -146l-89 -68l-108 139l-108 -139z" />
    <glyph glyph-name="scircumflex" unicode="&#x15d;" 
d="M42 110l113 44c4 -9.33301 9.66699 -17.666 17 -24.999c17.333 -17.333 42.333 -26 75 -26c35.333 0 60.333 7.33301 75 22c6.66699 6.66699 10.334 15 11.001 25c0 7.33301 -2 14.666 -6 21.999c-5.33301 8.66699 -13.333 16 -24 22
c-14.667 8.66699 -40.667 14.667 -78 18c-44.667 4 -78.834 12.833 -102.501 26.5s-42.5 32.834 -56.5 57.501c-14.667 25.333 -22 53.333 -22 84c0 27.333 6 51.666 18 72.999c12.667 22 31.667 40 57 54c35.333 20.667 80 31 134 31c51.333 0 93.666 -9.66699 126.999 -29
c28.667 -16.667 51 -39 67 -67c4 -7.33301 7.66699 -14.666 11 -21.999l-113 -44c-4 9.33301 -9.66699 17.666 -17 24.999c-17.333 17.333 -42.333 26 -75 26c-35.333 0 -60.333 -7.33301 -75 -22c-6.66699 -6.66699 -10.334 -15 -11.001 -25
c0 -7.33301 2 -14.666 6 -21.999c5.33301 -8.66699 13.333 -16 24 -22c14.667 -8.66699 40.667 -14.667 78 -18c44.667 -4 78.834 -12.833 102.501 -26.5s42.5 -32.834 56.5 -57.501c14.667 -25.333 22 -53.333 22 -84c0 -27.333 -6 -51.666 -18 -72.999
c-12.667 -22 -31.667 -40 -57 -54c-35.333 -20.667 -80 -31 -134 -31c-51.333 0 -93.666 9.66699 -126.999 29c-28.667 16.667 -51 39 -67 67c-4 7.33301 -7.66699 14.666 -11 21.999zM53 628l138 146h118l138 -146l-89 -68l-108 139l-108 -139z" />
    <glyph glyph-name="Scedilla" unicode="&#x15e;" 
d="M40 155l121 23v-3c0 -12 3 -23.333 9 -34s14.667 -19.334 26 -26.001c14 -8 30.667 -12 50 -12c18.667 0 34.667 3.66699 48 11c11.333 6.66699 20.333 15.667 27 27c7.33301 12.667 11 26.667 11 42c0 18 -5 36 -15 54c-14.667 26 -49.667 55 -105 87
c-70 41.333 -116 81.666 -138 120.999c-19.333 33.333 -29 68.166 -29 104.499s8.66699 69.833 26 100.5c16 27.333 37.667 49 65 65c32.667 18.667 72 28 118 28c48 0 88.667 -9.66699 122 -29c26 -15.333 46.667 -36 62 -62c13.333 -22.667 20.666 -46.667 21.999 -72
l-121 -23v3c0 12 -3 23.333 -9 34s-14.667 19.334 -26 26.001c-14 8 -30.667 12 -50 12c-18.667 0 -34.667 -3.66699 -48 -11c-11.333 -6.66699 -20.333 -15.667 -27 -27c-7.33301 -12.667 -11 -26.667 -11 -42c0 -18 5 -36 15 -54c14.667 -26 49.667 -55 105 -87
c70 -41.333 116 -81.666 138 -120.999c19.333 -33.333 29 -68.166 29 -104.499s-8.66699 -69.833 -26 -100.5c-16 -27.333 -37.667 -49 -65 -65c-32.667 -18.667 -72 -28 -118 -28c-48 0 -88.667 9.66699 -122 29c-26 15.333 -46.667 36 -62 62
c-13.333 22.667 -20.666 46.667 -21.999 72zM150 -134h100.001c12.667 0 19 5.66699 19 17s-6.33301 17 -19 17h-44v100h88v-27c23.333 -7.33301 40.666 -21 51.999 -41c8 -14 12 -30.5 12 -49.5s-4 -35.5 -12 -49.5c-8 -13.333 -19 -24 -33 -32
c-17.333 -10 -38.333 -15 -63 -15h-100v80z" />
    <glyph glyph-name="scedilla" unicode="&#x15f;" 
d="M42 110l113 44c4 -9.33301 9.66699 -17.666 17 -24.999c17.333 -17.333 42.333 -26 75 -26c35.333 0 60.333 7.33301 75 22c6.66699 6.66699 10.334 15 11.001 25c0 7.33301 -2 14.666 -6 21.999c-5.33301 8.66699 -13.333 16 -24 22
c-14.667 8.66699 -40.667 14.667 -78 18c-44.667 4 -78.834 12.833 -102.501 26.5s-42.5 32.834 -56.5 57.501c-14.667 25.333 -22 53.333 -22 84c0 27.333 6 51.666 18 72.999c12.667 22 31.667 40 57 54c35.333 20.667 80 31 134 31c51.333 0 93.666 -9.66699 126.999 -29
c28.667 -16.667 51 -39 67 -67c4 -7.33301 7.66699 -14.666 11 -21.999l-113 -44c-4 9.33301 -9.66699 17.666 -17 24.999c-17.333 17.333 -42.333 26 -75 26c-35.333 0 -60.333 -7.33301 -75 -22c-6.66699 -6.66699 -10.334 -15 -11.001 -25
c0 -7.33301 2 -14.666 6 -21.999c5.33301 -8.66699 13.333 -16 24 -22c14.667 -8.66699 40.667 -14.667 78 -18c44.667 -4 78.834 -12.833 102.501 -26.5s42.5 -32.834 56.5 -57.501c14.667 -25.333 22 -53.333 22 -84c0 -27.333 -6 -51.666 -18 -72.999
c-12.667 -22 -31.667 -40 -57 -54c-35.333 -20.667 -80 -31 -134 -31c-51.333 0 -93.666 9.66699 -126.999 29c-28.667 16.667 -51 39 -67 67c-4 7.33301 -7.66699 14.666 -11 21.999zM150 -134h100.001c12.667 0 19 5.66699 19 17s-6.33301 17 -19 17h-44v100h88v-27
c23.333 -7.33301 40.666 -21 51.999 -41c8 -14 12 -30.5 12 -49.5s-4 -35.5 -12 -49.5c-8 -13.333 -19 -24 -33 -32c-17.333 -10 -38.333 -15 -63 -15h-100v80z" />
    <glyph glyph-name="Scaron" unicode="&#x160;" 
d="M40 155l121 23v-3c0 -12 3 -23.333 9 -34s14.667 -19.334 26 -26.001c14 -8 30.667 -12 50 -12c18.667 0 34.667 3.66699 48 11c11.333 6.66699 20.333 15.667 27 27c7.33301 12.667 11 26.667 11 42c0 18 -5 36 -15 54c-14.667 26 -49.667 55 -105 87
c-70 41.333 -116 81.666 -138 120.999c-19.333 33.333 -29 68.166 -29 104.499s8.66699 69.833 26 100.5c16 27.333 37.667 49 65 65c32.667 18.667 72 28 118 28c48 0 88.667 -9.66699 122 -29c26 -15.333 46.667 -36 62 -62c13.333 -22.667 20.666 -46.667 21.999 -72
l-121 -23v3c0 12 -3 23.333 -9 34s-14.667 19.334 -26 26.001c-14 8 -30.667 12 -50 12c-18.667 0 -34.667 -3.66699 -48 -11c-11.333 -6.66699 -20.333 -15.667 -27 -27c-7.33301 -12.667 -11 -26.667 -11 -42c0 -18 5 -36 15 -54c14.667 -26 49.667 -55 105 -87
c70 -41.333 116 -81.666 138 -120.999c19.333 -33.333 29 -68.166 29 -104.499s-8.66699 -69.833 -26 -100.5c-16 -27.333 -37.667 -49 -65 -65c-32.667 -18.667 -72 -28 -118 -28c-48 0 -88.667 9.66699 -122 29c-26 15.333 -46.667 36 -62 62
c-13.333 22.667 -20.666 46.667 -21.999 72zM53 915l89 68l108 -139l108 139l89 -68l-138 -146h-118z" />
    <glyph glyph-name="scaron" unicode="&#x161;" 
d="M42 110l113 44c4 -9.33301 9.66699 -17.666 17 -24.999c17.333 -17.333 42.333 -26 75 -26c35.333 0 60.333 7.33301 75 22c6.66699 6.66699 10.334 15 11.001 25c0 7.33301 -2 14.666 -6 21.999c-5.33301 8.66699 -13.333 16 -24 22
c-14.667 8.66699 -40.667 14.667 -78 18c-44.667 4 -78.834 12.833 -102.501 26.5s-42.5 32.834 -56.5 57.501c-14.667 25.333 -22 53.333 -22 84c0 27.333 6 51.666 18 72.999c12.667 22 31.667 40 57 54c35.333 20.667 80 31 134 31c51.333 0 93.666 -9.66699 126.999 -29
c28.667 -16.667 51 -39 67 -67c4 -7.33301 7.66699 -14.666 11 -21.999l-113 -44c-4 9.33301 -9.66699 17.666 -17 24.999c-17.333 17.333 -42.333 26 -75 26c-35.333 0 -60.333 -7.33301 -75 -22c-6.66699 -6.66699 -10.334 -15 -11.001 -25
c0 -7.33301 2 -14.666 6 -21.999c5.33301 -8.66699 13.333 -16 24 -22c14.667 -8.66699 40.667 -14.667 78 -18c44.667 -4 78.834 -12.833 102.501 -26.5s42.5 -32.834 56.5 -57.501c14.667 -25.333 22 -53.333 22 -84c0 -27.333 -6 -51.666 -18 -72.999
c-12.667 -22 -31.667 -40 -57 -54c-35.333 -20.667 -80 -31 -134 -31c-51.333 0 -93.666 9.66699 -126.999 29c-28.667 16.667 -51 39 -67 67c-4 7.33301 -7.66699 14.666 -11 21.999zM53 710l89 68l108 -139l108 139l89 -68l-138 -146h-118z" />
    <glyph glyph-name="Tcommaaccent" unicode="&#x162;" 
d="M45 624v111h410v-111h-143v-624h-124v624h-143zM150 -134h100.001c12.667 0 19 5.66699 19 17s-6.33301 17 -19 17h-44v100h88v-27c23.333 -7.33301 40.666 -21 51.999 -41c8 -14 12 -30.5 12 -49.5s-4 -35.5 -12 -49.5c-8 -13.333 -19 -24 -33 -32
c-17.333 -10 -38.333 -15 -63 -15h-100v80z" />
    <glyph glyph-name="tcommaaccent" unicode="&#x163;" 
d="M49 419l-0.00390625 110.999h89v205h124v-205h137v-111h-137v-204c0 -35.333 5.66699 -63.333 17 -84c6 -10.667 13.333 -18 22 -22c6.66699 -4 14 -6 22 -6c8.66699 0 16.334 2 23.001 6c8.66699 4.66699 16 12.667 22 24c8.66699 15.333 14.334 34.333 17.001 57
l117 -35c-4.66699 -28 -13.667 -53.667 -27 -77c-16 -28 -37 -49.333 -63 -64c-25.333 -14.667 -55.166 -22 -89.499 -22s-64.166 7.33301 -89.499 22c-26 14.667 -47 36 -63 64c-21.333 36.667 -32 82.334 -32 137.001v204h-89zM213.996 -134.001h100.001
c12.667 0 19 5.66699 19 17s-6.33301 17 -19 17h-44v100h88v-27c23.333 -7.33301 40.666 -21 51.999 -41c8 -14 12 -30.5 12 -49.5s-4 -35.5 -12 -49.5c-8 -13.333 -19 -24 -33 -32c-17.333 -10 -38.333 -15 -63 -15h-100v80z" />
    <glyph glyph-name="Tcaron" unicode="&#x164;" 
d="M45 624v111h410v-111h-143v-624h-124v624h-143zM53 915l89 68l108 -139l108 139l89 -68l-138 -146h-118z" />
    <glyph glyph-name="tcaron" unicode="&#x165;" 
d="M49 419l-0.00390625 110.999h89v205h124v-205h137v-111h-137v-204c0 -35.333 5.66699 -63.333 17 -84c6 -10.667 13.333 -18 22 -22c6.66699 -4 14 -6 22 -6c8.66699 0 16.334 2 23.001 6c8.66699 4.66699 16 12.667 22 24c8.66699 15.333 14.334 34.333 17.001 57
l117 -35c-4.66699 -28 -13.667 -53.667 -27 -77c-16 -28 -37 -49.333 -63 -64c-25.333 -14.667 -55.166 -22 -89.499 -22s-64.166 7.33301 -89.499 22c-26 14.667 -47 36 -63 64c-21.333 36.667 -32 82.334 -32 137.001v204h-89zM358.996 699.999
c0 18 5.33398 32.333 16.001 43s25 16 43 16s32.333 -5.33301 43 -16s16 -25 16 -43c0 -48 -11 -91.333 -33 -130c-10 -18 -22.667 -34 -38 -48l-45 42c21.333 22 35.666 48 42.999 78c-12 2 -21.667 7 -29 15c-10.667 10.667 -16 25 -16 43z" />
    <glyph glyph-name="Tbar" unicode="&#x166;" 
d="M45 624v111h410v-111h-143v-250h102v-86h-102v-288h-124v288h-102v86h102v250h-143z" />
    <glyph glyph-name="tbar" unicode="&#x167;" 
d="M49 419l-0.00390625 110.999h89v205h124v-205h137v-111h-137v-58h76v-86h-76v-60c0 -35.333 5.66699 -63.333 17 -84c6 -10.667 13.333 -18 22 -22c6.66699 -4 14 -6 22 -6c8.66699 0 16.334 2 23.001 6c8.66699 4.66699 16 12.667 22 24
c8.66699 15.333 14.334 34.333 17.001 57l117 -35c-4.66699 -28 -13.667 -53.667 -27 -77c-16 -28 -37 -49.333 -63 -64c-25.333 -14.667 -55.166 -22 -89.499 -22s-64.166 7.33301 -89.499 22c-26 14.667 -47 36 -63 64c-21.333 36.667 -32 82.334 -32 137.001v60h-87v86
h87v58h-89z" />
    <glyph glyph-name="Utilde" unicode="&#x168;" 
d="M45 210l0.00292969 525.001h123v-525c0 -27.333 5.33301 -50 16 -68c7.33301 -12.667 16.666 -22.667 27.999 -30c10.667 -6 23.167 -9 37.5 -9s27.166 3 38.499 9c11.333 6.66699 20.666 16.667 27.999 30c10.667 18 16 40.667 16 68v525h123v-525
c0 -48.667 -10 -90 -30 -124c-16.667 -28.667 -39 -51.334 -67 -68.001c-30 -17.333 -66 -26 -108 -26s-78 8.66699 -108 26c-28 16 -50.333 38.667 -67 68c-20 34 -30 75.333 -30 124zM56.0029 829.001c9.33301 20.667 18.666 38.668 27.999 54.001
c21.333 36.667 43 61.334 65 74.001c14 8 28.667 12 44 12s30 -4 44 -12c14.667 -8.66699 32.334 -26.334 53.001 -53.001l17 -22c14 15.333 30.333 43.666 49 84.999l88 -36c-9.33301 -20.667 -18.666 -38.667 -27.999 -54c-21.333 -36.667 -43 -61.334 -65 -74.001
c-14 -8 -28.667 -12.333 -44 -13c-15.333 0 -30 4 -44 12c-14.667 8.66699 -32.334 26.667 -53.001 54l-17 22c-14 -15.333 -30.333 -43.666 -49 -84.999z" />
    <glyph glyph-name="utilde" unicode="&#x169;" 
d="M45 220v310.001h123v-310c0 -32 6 -58 18 -78c8 -13.333 17.667 -23.333 29 -30c10 -6 21.667 -9 35 -9s25 3 35 9c11.333 6.66699 21 16.667 29 30c12 20 18 46 18 78v310h123v-530h-123v65c-14.667 -24.667 -33 -43 -55 -55c-20 -12 -43.5 -18 -70.5 -18
s-50.5 6 -70.5 18c-22.667 13.333 -41.667 32.666 -57 57.999c-22.667 39.333 -34 90 -34 152zM56 624.001c9.33301 20.667 18.666 38.668 27.999 54.001c21.333 36.667 43 61.334 65 74.001c14 8 28.667 12 44 12s30 -4 44 -12
c14.667 -8.66699 32.334 -26.334 53.001 -53.001l17 -22c14 15.333 30.333 43.666 49 84.999l88 -36c-9.33301 -20.667 -18.666 -38.667 -27.999 -54c-21.333 -36.667 -43 -61.334 -65 -74.001c-14 -8 -28.667 -12.333 -44 -13c-15.333 0 -30 4 -44 12
c-14.667 8.66699 -32.334 26.667 -53.001 54l-17 22c-14 -15.333 -30.333 -43.666 -49 -84.999z" />
    <glyph glyph-name="Umacron" unicode="&#x16a;" 
d="M45 210l0.00292969 525.001h123v-525c0 -27.333 5.33301 -50 16 -68c7.33301 -12.667 16.666 -22.667 27.999 -30c10.667 -6 23.167 -9 37.5 -9s27.166 3 38.499 9c11.333 6.66699 20.666 16.667 27.999 30c10.667 18 16 40.667 16 68v525h123v-525
c0 -48.667 -10 -90 -30 -124c-16.667 -28.667 -39 -51.334 -67 -68.001c-30 -17.333 -66 -26 -108 -26s-78 8.66699 -108 26c-28 16 -50.333 38.667 -67 68c-20 34 -30 75.333 -30 124zM100.003 842.001v96h300v-96h-300z" />
    <glyph glyph-name="umacron" unicode="&#x16b;" 
d="M45 220v310.001h123v-310c0 -32 6 -58 18 -78c8 -13.333 17.667 -23.333 29 -30c10 -6 21.667 -9 35 -9s25 3 35 9c11.333 6.66699 21 16.667 29 30c12 20 18 46 18 78v310h123v-530h-123v65c-14.667 -24.667 -33 -43 -55 -55c-20 -12 -43.5 -18 -70.5 -18
s-50.5 6 -70.5 18c-22.667 13.333 -41.667 32.666 -57 57.999c-22.667 39.333 -34 90 -34 152zM100 637.001v96h300v-96h-300z" />
    <glyph glyph-name="Ubreve" unicode="&#x16c;" 
d="M45 210l0.00292969 525.001h123v-525c0 -27.333 5.33301 -50 16 -68c7.33301 -12.667 16.666 -22.667 27.999 -30c10.667 -6 23.167 -9 37.5 -9s27.166 3 38.499 9c11.333 6.66699 20.666 16.667 27.999 30c10.667 18 16 40.667 16 68v525h123v-525
c0 -48.667 -10 -90 -30 -124c-16.667 -28.667 -39 -51.334 -67 -68.001c-30 -17.333 -66 -26 -108 -26s-78 8.66699 -108 26c-28 16 -50.333 38.667 -67 68c-20 34 -30 75.333 -30 124zM77.0029 949.001h105.998c0 -13.333 2.66699 -24.666 8 -33.999
c5.33301 -8.66699 12.333 -15.667 21 -21c10.667 -6 23.334 -9 38.001 -9s27.334 3 38.001 9c19.333 11.333 29 29.666 29 54.999h106c0 -32 -6.66699 -59.667 -20 -83c-12.667 -22 -30.334 -39.667 -53.001 -53c-27.333 -16 -60.666 -24 -99.999 -24s-72.666 8 -99.999 24
c-22.667 13.333 -40.334 31 -53.001 53c-13.333 23.333 -20 51 -20 83z" />
    <glyph glyph-name="ubreve" unicode="&#x16d;" 
d="M45 220v310.001h123v-310c0 -32 6 -58 18 -78c8 -13.333 17.667 -23.333 29 -30c10 -6 21.667 -9 35 -9s25 3 35 9c11.333 6.66699 21 16.667 29 30c12 20 18 46 18 78v310h123v-530h-123v65c-14.667 -24.667 -33 -43 -55 -55c-20 -12 -43.5 -18 -70.5 -18
s-50.5 6 -70.5 18c-22.667 13.333 -41.667 32.666 -57 57.999c-22.667 39.333 -34 90 -34 152zM77 744.001h105.998c0 -13.333 2.66699 -24.666 8 -33.999c5.33301 -8.66699 12.333 -15.667 21 -21c10.667 -6 23.334 -9 38.001 -9s27.334 3 38.001 9
c19.333 11.333 29 29.666 29 54.999h106c0 -32 -6.66699 -59.667 -20 -83c-12.667 -22 -30.334 -39.667 -53.001 -53c-27.333 -16 -60.666 -24 -99.999 -24s-72.666 8 -99.999 24c-22.667 13.333 -40.334 31 -53.001 53c-13.333 23.333 -20 51 -20 83z" />
    <glyph glyph-name="Uring" unicode="&#x16e;" 
d="M45 210l0.00292969 525.001h123v-525c0 -27.333 5.33301 -50 16 -68c7.33301 -12.667 16.666 -22.667 27.999 -30c10.667 -6 23.167 -9 37.5 -9s27.166 3 38.499 9c11.333 6.66699 20.666 16.667 27.999 30c10.667 18 16 40.667 16 68v525h123v-525
c0 -48.667 -10 -90 -30 -124c-16.667 -28.667 -39 -51.334 -67 -68.001c-30 -17.333 -66 -26 -108 -26s-78 8.66699 -108 26c-28 16 -50.333 38.667 -67 68c-20 34 -30 75.333 -30 124zM138.003 857.501c0 24.333 5 44.8311 15 61.498c8.66699 15.333 20.667 27.333 36 36
c16.667 10 37 14.833 61 14.5s44.333 -5.16602 61 -14.499c15.333 -8.66699 27.333 -20.667 36 -36c10 -16.667 15 -37 15 -61s-5 -44.667 -15 -62c-8.66699 -15.333 -20.667 -27 -36 -35c-16.667 -10 -37 -15 -61 -15s-44.333 5 -61 15
c-15.333 8.66699 -27.333 20.334 -36 35.001c-10 16.667 -15 37.167 -15 61.5zM213.003 857.999c0 -11.333 3.33301 -20.5 10 -27.5s15.667 -10.5 27 -10.5s20.333 3.5 27 10.5s10 16.167 10 27.5s-3.33301 20.333 -10 27s-15.667 10 -27 10s-20.333 -3.33301 -27 -10
s-10 -15.667 -10 -27z" />
    <glyph glyph-name="uring" unicode="&#x16f;" 
d="M45 220v310.001h123v-310c0 -32 6 -58 18 -78c8 -13.333 17.667 -23.333 29 -30c10 -6 21.667 -9 35 -9s25 3 35 9c11.333 6.66699 21 16.667 29 30c12 20 18 46 18 78v310h123v-530h-123v65c-14.667 -24.667 -33 -43 -55 -55c-20 -12 -43.5 -18 -70.5 -18
s-50.5 6 -70.5 18c-22.667 13.333 -41.667 32.666 -57 57.999c-22.667 39.333 -34 90 -34 152zM138 652.501c0 24.333 5 44.8311 15 61.498c8.66699 15.333 20.667 27.333 36 36c16.667 10 37 14.833 61 14.5s44.333 -5.16602 61 -14.499
c15.333 -8.66699 27.333 -20.667 36 -36c10 -16.667 15 -37 15 -61s-5 -44.667 -15 -62c-8.66699 -15.333 -20.667 -27 -36 -35c-16.667 -10 -37 -15 -61 -15s-44.333 5 -61 15c-15.333 8.66699 -27.333 20.334 -36 35.001c-10 16.667 -15 37.167 -15 61.5zM213 652.999
c0 -11.333 3.33301 -20.5 10 -27.5s15.667 -10.5 27 -10.5s20.333 3.5 27 10.5s10 16.167 10 27.5s-3.33301 20.333 -10 27s-15.667 10 -27 10s-20.333 -3.33301 -27 -10s-10 -15.667 -10 -27z" />
    <glyph glyph-name="Uhungarumlaut" unicode="&#x170;" 
d="M45 210l0.00292969 525.001h123v-525c0 -27.333 5.33301 -50 16 -68c7.33301 -12.667 16.666 -22.667 27.999 -30c10.667 -6 23.167 -9 37.5 -9s27.166 3 38.499 9c11.333 6.66699 20.666 16.667 27.999 30c10.667 18 16 40.667 16 68v525h123v-525
c0 -48.667 -10 -90 -30 -124c-16.667 -28.667 -39 -51.334 -67 -68.001c-30 -17.333 -66 -26 -108 -26s-78 8.66699 -108 26c-28 16 -50.333 38.667 -67 68c-20 34 -30 75.333 -30 124zM248.003 819.001l145 166l84 -73l-160 -153zM78.0029 819.001l145 166l84 -73
l-160 -153z" />
    <glyph glyph-name="uhungarumlaut" unicode="&#x171;" 
d="M45 220v310.001h123v-310c0 -32 6 -58 18 -78c8 -13.333 17.667 -23.333 29 -30c10 -6 21.667 -9 35 -9s25 3 35 9c11.333 6.66699 21 16.667 29 30c12 20 18 46 18 78v310h123v-530h-123v65c-14.667 -24.667 -33 -43 -55 -55c-20 -12 -43.5 -18 -70.5 -18
s-50.5 6 -70.5 18c-22.667 13.333 -41.667 32.666 -57 57.999c-22.667 39.333 -34 90 -34 152zM248 614.001l145 166l84 -73l-160 -153zM78 614.001l145 166l84 -73l-160 -153z" />
    <glyph glyph-name="Uogonek" unicode="&#x172;" 
d="M45 210l0.00292969 525.001h123v-525c0 -27.333 5.33301 -50 16 -68c7.33301 -12.667 16.666 -22.667 27.999 -30c10.667 -6 23.167 -9 37.5 -9s27.166 3 38.499 9c11.333 6.66699 20.666 16.667 27.999 30c10.667 18 16 40.667 16 68v525h123v-525
c0 -48.667 -10 -90 -30 -124c-16.667 -28.667 -39 -51.334 -67 -68.001c-30 -17.333 -66 -26 -108 -26s-78 8.66699 -108 26c-28 16 -50.333 38.667 -67 68c-20 34 -30 75.333 -30 124zM112.003 -80.999c0 14 3.33398 26.998 10.001 38.998c7.33301 13.333 19 24 35 32
c22.667 13.333 53.667 20 93 20v-18c-10.667 0 -19.334 -3.33301 -26.001 -10c-5.33301 -5.33301 -8 -11.666 -8 -18.999s2.66699 -13.666 8 -18.999c8 -8 22.667 -12.333 44 -13h67v-105h-64c-52.667 0 -90.667 6.66699 -114 20c-15.333 8.66699 -26.666 20 -33.999 34
c-6.66699 12 -10.334 25 -11.001 39z" />
    <glyph glyph-name="uogonek" unicode="&#x173;" 
d="M45 220v310.001h123v-310c0 -32 6 -58 18 -78c8 -13.333 17.667 -23.333 29 -30c10 -6 21.667 -9 35 -9s25 3 35 9c11.333 6.66699 21 16.667 29 30c12 20 18 46 18 78v310h123v-530h-123v65c-14.667 -24.667 -33 -43 -55 -55c-20 -12 -43.5 -18 -70.5 -18
s-50.5 6 -70.5 18c-22.667 13.333 -41.667 32.666 -57 57.999c-22.667 39.333 -34 90 -34 152zM269 -80.999c0 14 3.33398 26.998 10.001 38.998c7.33301 13.333 19 24 35 32c22.667 13.333 53.667 20 93 20v-18c-10.667 0 -19.334 -3.33301 -26.001 -10
c-5.33301 -5.33301 -8 -11.666 -8 -18.999s2.66699 -13.666 8 -18.999c8 -8 22.667 -12.333 44 -13h67v-105h-64c-52.667 0 -90.667 6.66699 -114 20c-15.333 8.66699 -26.666 20 -33.999 34c-6.66699 12 -10.334 25 -11.001 39z" />
    <glyph glyph-name="Wcircumflex" unicode="&#x174;" 
d="M45 551v184.001h123v-184c0 -78 2 -191.333 6 -340l46 230h60l46 -230c4 149.333 6 262.666 6 339.999v184h123v-184c0 -111.333 -29.333 -295 -88 -551h-59l-58 290l-58 -290h-59c-58.667 256 -88 439.667 -88 551zM53 833.001l138 146h118l138 -146l-89 -68l-108 139
l-108 -139z" />
    <glyph glyph-name="wcircumflex" unicode="&#x175;" 
d="M45 398v132.001h123v-132c0 -56 1.66699 -138 5 -246l47 166h60l47 -166c3.33301 108 5 190 5 246v132h123v-132c0 -80.667 -29.333 -213.334 -88 -398.001h-59l-58 209l-58 -209h-59c-58.667 185.333 -88 318 -88 398zM53 628.001l138 146h118l138 -146l-89 -68
l-108 139l-108 -139z" />
    <glyph glyph-name="Ycircumflex" unicode="&#x176;" 
d="M45 691v44h123v-44c0 -66 17 -133 51 -201l31 -61l31 61c34 67.333 51 134.333 51 201v44h123v-44c0 -82 -21.333 -165.333 -64 -250l-79 -159v-282h-124v282l-79 159c-42.667 84.667 -64 168 -64 250zM53 833l138 146h118l138 -146l-89 -68l-108 139l-108 -139z" />
    <glyph glyph-name="ycircumflex" unicode="&#x177;" 
d="M45 493v37.001h123v-37c0 -38 9.33301 -86 28 -144l52 -164l56 164c18.667 54 28 102 28 144v37h123v-37c0 -53.333 -11.333 -113.333 -34 -180l-153 -446c-4 -12.667 -6 -34.334 -6 -65.001v-7h-124v7c0 42 4.33301 75.667 13 101l38 111l-110 299
c-22.667 62 -34 122 -34 180zM53 628.001l138 146h118l138 -146l-89 -68l-108 139l-108 -139z" />
    <glyph glyph-name="Ydieresis" unicode="&#x178;" 
d="M45 691v44h123v-44c0 -66 17 -133 51 -201l31 -61l31 61c34 67.333 51 134.333 51 201v44h123v-44c0 -82 -21.333 -165.333 -64 -250l-79 -159v-282h-124v282l-79 159c-42.667 84.667 -64 168 -64 250zM74 889.5c0 16.333 3.33398 30.5 10.001 42.5c6 10 14 18 24 24
c11.333 6.66699 25.166 10 41.499 10s30.5 -3.33301 42.5 -10c10 -6 18 -14 24 -24c6.66699 -11.333 10 -25.166 10 -41.499s-3.33301 -30.5 -10 -42.5c-6 -10 -14 -18 -24 -24c-12 -6.66699 -26 -10 -42 -10s-30 3.33301 -42 10c-10 6 -18 14 -24 24
c-6.66699 11.333 -10 25.166 -10 41.499zM274.001 889.5c0 16.333 3.33398 30.5 10.001 42.5c6 10 14 18 24 24c11.333 6.66699 25.166 10 41.499 10s30.5 -3.33301 42.5 -10c10 -6 18 -14 24 -24c6.66699 -11.333 10 -25.166 10 -41.499s-3.33301 -30.5 -10 -42.5
c-6 -10 -14 -18 -24 -24c-12 -6.66699 -26 -10 -42 -10s-30 3.33301 -42 10c-10 6 -18 14 -24 24c-6.66699 11.333 -10 25.166 -10 41.499z" />
    </font>
</defs>
</svg>
