<svg width="20" height="20" xmlns="http://www.w3.org/2000/svg" xml:space="preserve" version="1.1">

 <g>
  <title>Layer 1</title>
  <path stroke="null" id="svg_1" d="m18.47252,8.58791l-7.06043,0l0,-7.06043c0,-0.77947 -0.63261,-1.41209 -1.41209,-1.41209s-1.41209,0.63261 -1.41209,1.41209l0,7.06043l-7.06043,0c-0.77947,0 -1.41209,0.63261 -1.41209,1.41209s0.63261,1.41209 1.41209,1.41209l7.06043,0l0,7.06043c0,0.77947 0.63261,1.41209 1.41209,1.41209s1.41209,-0.63261 1.41209,-1.41209l0,-7.06043l7.06043,0c0.77947,0 1.41209,-0.63261 1.41209,-1.41209s-0.63261,-1.41209 -1.41209,-1.41209z"/>
 </g>
</svg>