<svg width="20" height="20" xmlns="http://www.w3.org/2000/svg">

 <g>
  <title>Layer 1</title>
  <path stroke="null" id="svg_1" fill="#6563ff" d="m1.10375,7.03458a0.98847,0.98847 0 0 0 0.98847,-0.98847l0,-2.96542a0.98847,0.98847 0 0 1 0.98847,-0.98847l2.96542,0a0.98847,0.98847 0 0 0 0,-1.97695l-2.96542,0a2.96542,2.96542 0 0 0 -2.96542,2.96542l0,2.96542a0.98847,0.98847 0 0 0 0.98847,0.98847zm4.94236,10.8732l-2.96542,0a0.98847,0.98847 0 0 1 -0.98847,-0.98847l0,-2.96542a0.98847,0.98847 0 0 0 -1.97695,0l0,2.96542a2.96542,2.96542 0 0 0 2.96542,2.96542l2.96542,0a0.98847,0.98847 0 0 0 0,-1.97695zm8.89625,-6.91931a0.98847,0.98847 0 0 0 0,-1.97695l-1.12686,0a3.95389,3.95389 0 0 0 -2.82703,-2.82703l0,-1.12686a0.98847,0.98847 0 0 0 -1.97695,0l0,1.12686a3.95389,3.95389 0 0 0 -2.82703,2.82703l-1.12686,0a0.98847,0.98847 0 0 0 0,1.97695l1.12686,0a3.95389,3.95389 0 0 0 2.82703,2.82703l0,1.12686a0.98847,0.98847 0 0 0 1.97695,0l0,-1.12686a3.95389,3.95389 0 0 0 2.82703,-2.82703l1.12686,0zm-4.94236,0.98847a1.97695,1.97695 0 1 1 1.97695,-1.97695a1.97695,1.97695 0 0 1 -1.97695,1.97695zm8.89625,0.98847a0.98847,0.98847 0 0 0 -0.98847,0.98847l0,2.96542a0.98847,0.98847 0 0 1 -0.98847,0.98847l-2.96542,0a0.98847,0.98847 0 0 0 0,1.97695l2.96542,0a2.96542,2.96542 0 0 0 2.96542,-2.96542l0,-2.96542a0.98847,0.98847 0 0 0 -0.98847,-0.98847zm-1.97695,-12.85014l-2.96542,0a0.98847,0.98847 0 0 0 0,1.97695l2.96542,0a0.98847,0.98847 0 0 1 0.98847,0.98847l0,2.96542a0.98847,0.98847 0 0 0 1.97695,0l0,-2.96542a2.96542,2.96542 0 0 0 -2.96542,-2.96542z"/>
 </g>
</svg>