<svg width="20" height="20" xmlns="http://www.w3.org/2000/svg">

 <g>
  <title>Layer 1</title>
  <g>
   <path fill="#6563ff" d="m17,5.99986l-1,0l0,-3a3,3 0 0 0 -3,-3l-10,0a3,3 0 0 0 -3,3l0,12a1,1 0 0 0 0.62,0.92a0.84,0.84 0 0 0 0.38,0.08a1,1 0 0 0 0.71,-0.29l2.81,-2.82l1.48,0l0,1.44a3,3 0 0 0 3,3l6.92,0l2.37,2.38a1,1 0 0 0 0.71,0.29a0.84,0.84 0 0 0 0.38,-0.08a1,1 0 0 0 0.62,-0.92l0,-10a3,3 0 0 0 -3,-3zm-11,3l0,1.89l-1.89,0a1,1 0 0 0 -0.71,0.29l-1.4,1.41l0,-9.59a1,1 0 0 1 1,-1l10,0a1,1 0 0 1 1,1l0,3l-5,0a3,3 0 0 0 -3,3zm12,7.59l-1,-1a1,1 0 0 0 -0.71,-0.3l-7.29,0a1,1 0 0 1 -1,-1l0,-5.29a1,1 0 0 1 1,-1l8,0a1,1 0 0 1 1,1l0,7.59z"/>
  </g>
 </g>
</svg>