<svg width="20" height="20" xmlns="http://www.w3.org/2000/svg" xml:space="preserve" version="1.1">

 <g>
  <title>Layer 1</title>
  <g stroke="null" id="_icons">
   <g stroke="null" id="svg_1">
    <path stroke="null" id="svg_2" d="m2.8361,16.47765c0.10262,0 0.10262,0 0.20523,0l2.25756,-0.41047c1.02616,-0.20523 1.94971,-0.71831 2.66802,-1.43663l9.33808,-9.23546c0.6157,-0.51308 0.92355,-1.33401 0.92355,-2.15494c0,-0.82093 -0.30785,-1.53924 -0.92355,-2.15494c-1.12878,-1.12878 -3.07849,-1.12878 -4.30988,0l-9.33808,9.13285c-0.71831,0.71831 -1.2314,1.64186 -1.43663,2.66802l-0.41047,2.36017c-0.10262,0.30785 0,0.71831 0.30785,0.92355c0.20523,0.20523 0.41047,0.30785 0.71831,0.30785zm11.59564,-13.85319c0.20523,-0.20523 0.51308,-0.30785 0.71831,-0.30785c0.30785,0 0.51308,0.10262 0.71831,0.30785c0.20523,0.20523 0.30785,0.41047 0.30785,0.6157c0,0.10262 0,0.41047 -0.30785,0.71831l-0.41047,0.41047l-1.43663,-1.33401l0.41047,-0.41047zm-10.15901,10.77471c0.10262,-0.6157 0.41047,-1.12878 0.92355,-1.64186l7.38837,-7.28575l1.43663,1.33401l-7.38837,7.28575c-0.41047,0.41047 -1.02616,0.71831 -1.64186,0.82093l-0.82093,0.20523l0.10262,-0.71831z"/>
    <path stroke="null" id="svg_3" d="m17.20238,17.70905l-14.36628,0c-0.6157,0 -1.02616,0.41047 -1.02616,1.02616s0.41047,1.02616 1.02616,1.02616l14.36628,0c0.6157,0 1.02616,-0.41047 1.02616,-1.02616s-0.41047,-1.02616 -1.02616,-1.02616z"/>
   </g>
  </g>
 </g>
</svg>