<svg width="20" height="20" xmlns="http://www.w3.org/2000/svg">

 <g>
  <title>Layer 1</title>
  <g stroke="null">
   <path stroke="null" fill="#6563ff" d="m10.28476,10.19892a4.44855,4.44855 0 0 0 1.5371,-3.36354a4.52088,4.52088 0 0 0 -9.04176,0a4.44855,4.44855 0 0 0 1.5371,3.36354a7.23341,7.23341 0 0 0 -4.24963,6.5824a0.90418,0.90418 0 0 0 1.80835,0a5.42506,5.42506 0 0 1 10.85011,0a0.90418,0.90418 0 0 0 1.80835,0a7.23341,7.23341 0 0 0 -4.24963,-6.5824zm-2.98378,-0.65101a2.71253,2.71253 0 1 1 2.71253,-2.71253a2.71253,2.71253 0 0 1 -2.71253,2.71253zm8.80668,0.28934a4.52088,4.52088 0 0 0 -3.38162,-7.52275a0.90418,0.90418 0 0 0 0,1.80835a2.71253,2.71253 0 0 1 2.71253,2.71253a2.71253,2.71253 0 0 1 -1.35626,2.34182a0.90418,0.90418 0 0 0 -0.45209,0.75951a0.90418,0.90418 0 0 0 0.40688,0.77759l0.35263,0.23509l0.11754,0.06329a6.32923,6.32923 0 0 1 3.6167,5.76864a0.90418,0.90418 0 0 0 1.80835,0a8.13759,8.13759 0 0 0 -3.82466,-6.94407z"/>
  </g>
 </g>
</svg>