<svg width="20" height="20" xmlns="http://www.w3.org/2000/svg" data-name="Layer 2">

 <g>
  <title>Layer 1</title>
  <g id="svg_5">
   <path stroke="null" id="svg_1" d="m10,12.95017a0.70969,0.70969 0 0 1 -0.70969,-0.70969l0,-10.61462a0.70969,0.70969 0 0 1 1.41937,0l0,10.61349a0.70969,0.70969 0 0 1 -0.70969,0.71082z"/>
   <path stroke="null" id="svg_2" d="m5.38477,6.17296a0.71025,0.71025 0 0 1 -0.50189,-1.21157l3.83287,-3.83287a1.81679,1.81679 0 0 1 2.56849,0l3.83344,3.83287a0.70969,0.70969 0 0 1 -1.00378,1.00548l-3.83003,-3.83457a0.39742,0.39742 0 0 0 -0.56207,0l-3.83571,3.83457a0.70571,0.70571 0 0 1 -0.50132,0.20609z"/>
   <path stroke="null" id="svg_3" d="m17.91214,19.40319l-15.82428,0a1.88322,1.88322 0 0 1 -1.88152,-1.88095l0,-4.96098a0.70969,0.70969 0 0 1 1.41937,0l0,4.96098a0.46271,0.46271 0 0 0 0.46215,0.46158l15.82428,0a0.46271,0.46271 0 0 0 0.46215,-0.46158l0,-4.96098a0.70969,0.70969 0 0 1 1.41937,0l0,4.96098a1.88322,1.88322 0 0 1 -1.88152,1.88095z"/>
  </g>
 </g>
</svg>