<svg width="20" height="20" xmlns="http://www.w3.org/2000/svg">

 <g>
  <title>Layer 1</title>
  <path id="svg_1" fill="#6563ff" d="m18,6.94a1.31,1.31 0 0 0 -0.06,-0.27l0,-0.09a1.07,1.07 0 0 0 -0.19,-0.28l0,0l-6,-6l0,0a1.07,1.07 0 0 0 -0.28,-0.19a0.32,0.32 0 0 0 -0.09,0a0.88,0.88 0 0 0 -0.33,-0.11l-6.05,0a3,3 0 0 0 -3,3l0,14a3,3 0 0 0 3,3l10,0a3,3 0 0 0 3,-3l0,-10s0,0 0,-0.06zm-6,-3.53l2.59,2.59l-1.59,0a1,1 0 0 1 -1,-1l0,-1.59zm4,13.59a1,1 0 0 1 -1,1l-10,0a1,1 0 0 1 -1,-1l0,-14a1,1 0 0 1 1,-1l5,0l0,3a3,3 0 0 0 3,3l3,0l0,9zm-3.71,-6.71l-3.29,3.3l-1.29,-1.3a1,1 0 0 0 -1.42,1.42l2,2a1,1 0 0 0 1.42,0l4,-4a1,1 0 0 0 -1.42,-1.42z"/>
 </g>
</svg>