<svg width="21" height="21" viewBox="0 0 21 21" fill="none" xmlns="http://www.w3.org/2000/svg">
<path d="M4.92188 10.5009C4.92188 9.4605 5.20853 8.48585 5.70654 7.6513V4.11133H2.16657C0.761578 5.93603 0 8.15986 0 10.5009C0 12.842 0.761578 15.0659 2.16657 16.8906H5.70654V13.3506C5.20853 12.516 4.92188 11.5414 4.92188 10.5009Z" fill="#FBBD00"/>
<path d="M10.5 16.0778L8.03906 18.5387L10.5 20.9996C12.8411 20.9996 15.0649 20.2381 16.8896 18.8331V15.2969H13.3534C12.5116 15.7967 11.5328 16.0778 10.5 16.0778Z" fill="#0F9D58"/>
<path d="M5.70795 13.3496L2.16797 16.8896C2.44614 17.2509 2.74904 17.5968 3.07679 17.9246C5.05998 19.9078 7.69675 21 10.5014 21V16.0781C8.46604 16.0781 6.68215 14.9822 5.70795 13.3496Z" fill="#31AA52"/>
<path d="M21 10.5004C21 9.86156 20.9422 9.22156 20.8281 8.5982L20.7357 8.09375H10.5V13.0156H15.4814C14.9977 13.9779 14.2539 14.763 13.3534 15.2977L16.8896 18.8339C17.2508 18.5557 17.5968 18.2528 17.9246 17.925C19.9078 15.9418 21 13.305 21 10.5004Z" fill="#3C79E6"/>
<path d="M14.4443 6.55565L14.8794 6.99066L18.3597 3.5104L17.9246 3.07539C15.9415 1.09221 13.3047 0 10.5 0L8.03906 2.46094L10.5 4.92188C11.9899 4.92188 13.3907 5.50208 14.4443 6.55565Z" fill="#CF2D48"/>
<path d="M10.5014 4.92188V0C7.6968 0 5.06002 1.09221 3.07679 3.07535C2.74904 3.40311 2.44614 3.74907 2.16797 4.11038L5.70795 7.65036C6.68219 6.01781 8.46608 4.92188 10.5014 4.92188Z" fill="#EB4132"/>
</svg>
