<svg width="20" height="20" xmlns="http://www.w3.org/2000/svg">

 <g>
  <title>Layer 1</title>
  <path stroke="null" id="svg_2" d="m9.99504,0.08926c-5.47568,0 -9.90578,4.43506 -9.90578,9.91074s4.4301,9.91074 9.90578,9.91074c5.47568,0 9.91569,-4.43506 9.91569,-9.91074s-4.44001,-9.91074 -9.91569,-9.91074zm6.86319,5.94644l-2.92367,0c-0.3221,-1.23884 -0.77304,-2.42813 -1.36768,-3.52822c1.82358,0.62438 3.33992,1.888 4.29135,3.52822zm-6.85823,-3.92961c0.82755,1.18929 1.47174,2.51237 1.89295,3.92961l-3.7859,0c0.42121,-1.41724 1.0654,-2.74032 1.89295,-3.92961zm-7.67091,9.87605c-0.16353,-0.63429 -0.25768,-1.29831 -0.25768,-1.98215s0.09415,-1.34786 0.25768,-1.98215l3.34487,0c-0.07929,0.64915 -0.13379,1.30822 -0.13379,1.98215c0,0.67393 0.05451,1.33299 0.13875,1.98215l-3.34983,0zm0.80773,1.98215l2.92367,0c0.3221,1.23884 0.77304,2.42813 1.36768,3.53318c-1.82358,-0.62438 -3.33992,-1.89295 -4.29135,-3.53318zm2.92367,-7.92859l-2.92367,0c0.95143,-1.64023 2.46777,-2.9088 4.29135,-3.53318c-0.59464,1.10505 -1.04558,2.29434 -1.36768,3.53318zm3.93952,11.8582c-0.82259,-1.18929 -1.46679,-2.51237 -1.89295,-3.92961l3.7859,0c-0.42616,1.41724 -1.07036,2.74032 -1.89295,3.92961zm2.31911,-5.91176l-4.63823,0c-0.09415,-0.64915 -0.15857,-1.30822 -0.15857,-1.98215c0,-0.67393 0.06442,-1.33299 0.15857,-1.98215l4.63823,0c0.09415,0.64915 0.15857,1.30822 0.15857,1.98215c0,0.67393 -0.06442,1.33299 -0.15857,1.98215zm0.25272,5.51037c0.59464,-1.10505 1.04558,-2.28938 1.36768,-3.52822l2.92367,0c-0.95639,1.64023 -2.47273,2.90385 -4.29135,3.52822zm1.74925,-5.51037c0.07929,-0.64915 0.13875,-1.30822 0.13875,-1.98215c0,-0.67393 -0.05451,-1.33299 -0.13875,-1.98215l3.34487,0c0.16353,0.63429 0.26263,1.29831 0.26263,1.98215s-0.09415,1.34786 -0.26263,1.98215l-3.34487,0z"/>
 </g>
</svg>