<svg width="20.000000000000004" height="20.000000000000004" xmlns="http://www.w3.org/2000/svg" version="1.1">

 <g>
  <title>Layer 1</title>
  <g stroke="null" id="layer1">
   <path stroke="null" stroke-dashoffset="0" stroke-miterlimit="4" stroke-linejoin="round" stroke-linecap="round" stroke-width="2" fill-rule="nonzero" fill="#000000" clip-rule="nonzero" id="path7641" d="m9.27369,0.06962a0.66372,0.66372 0 0 0 -0.50941,0.33312l-5.31056,9.28862a0.66372,0.66372 0 0 0 0.57811,0.99419l2.9735,0l-3.5866,8.36702a0.66372,0.66372 0 0 0 1.08363,0.73106l11.94325,-11.94973a0.66372,0.66372 0 0 0 -0.47052,-1.13159l-2.80629,0l3.37533,-5.62813a0.66372,0.66372 0 0 0 -0.56903,-1.00456l-6.63269,0a0.66372,0.66372 0 0 0 -0.0687,0zm0.45108,1.32213l5.07984,0l-3.38051,5.63462a0.66372,0.66372 0 0 0 0.56773,1.00456l2.38113,0l-8.37738,8.37739l2.62611,-6.12458a0.66372,0.66372 0 0 0 -0.60662,-0.92549l-2.84259,0l4.55228,-7.96649z"/>
  </g>
 </g>
</svg>