<svg width="20" height="20" xmlns="http://www.w3.org/2000/svg" xml:space="preserve" version="1.1" enable-background="new 0 0 32 32">

 <g>
  <title>Layer 1</title>
  <path stroke="null" id="XMLID_273_" d="m18.11,11.43252l-0.37009,-0.21389c-0.44045,-0.254 -0.7036,-0.70993 -0.7036,-1.21863s0.26314,-0.96463 0.7036,-1.21863l0.37009,-0.21389c1.01036,-0.58398 1.35583,-1.87297 0.77255,-2.88334l-0.7036,-1.21863c-0.58187,-1.00825 -1.87579,-1.35442 -2.88334,-0.77255l-0.37009,0.21319c-0.44045,0.2547 -0.96744,0.2547 -1.40719,0c-0.44045,-0.2547 -0.7036,-0.70993 -0.7036,-1.21863l0,-0.42708c0,-1.16375 -0.94704,-2.11079 -2.11079,-2.11079l-1.40719,0c-1.16375,0 -2.11079,0.94704 -2.11079,2.11079l0,0.42779c0,0.5087 -0.26314,0.96393 -0.7036,1.21863c-0.44045,0.254 -0.96674,0.2547 -1.40719,0l-0.37009,-0.21389c-1.00755,-0.58187 -2.30146,-0.2357 -2.88404,0.77255l-0.7036,1.21863c-0.58328,1.01036 -0.23782,2.30006 0.77255,2.88334l0.3708,0.21389c0.44045,0.254 0.7036,0.70993 0.7036,1.21863s-0.26314,0.96463 -0.7036,1.21863l-0.37009,0.21389c-1.01036,0.58328 -1.35583,1.87297 -0.77255,2.88334l0.7036,1.21863c0.58258,1.00825 1.87649,1.35442 2.88334,0.77255l0.37009,-0.21319c0.44045,-0.25541 0.96674,-0.254 1.40719,0c0.44045,0.2547 0.7036,0.70993 0.7036,1.21863l0,0.42708c0,1.16375 0.94704,2.11079 2.11079,2.11079l1.40719,0c1.16375,0 2.11079,-0.94704 2.11079,-2.11079l0,-0.42779c0,-0.5087 0.26314,-0.96393 0.7036,-1.21863c0.43975,-0.254 0.96674,-0.2547 1.40719,0l0.37009,0.21389c1.00755,0.58117 2.30146,0.235 2.88334,-0.77255l0.7036,-1.21863c0.58328,-1.01036 0.23782,-2.30006 -0.77255,-2.88334zm-8.10965,2.08546c-1.93981,0 -3.51798,-1.57817 -3.51798,-3.51798s1.57817,-3.51798 3.51798,-3.51798s3.51798,1.57817 3.51798,3.51798s-1.57817,3.51798 -3.51798,3.51798z"/>
 </g>
</svg>