<svg width="20" height="20" xmlns="http://www.w3.org/2000/svg">

 <g>
  <title>Layer 1</title>
  <g>
   <path fill="#6563ff" d="m19,16.00206l-2,0l0,-3a1,1 0 0 0 -1,-1l-5,0l0,-2.71l1.13,0.59a1,1 0 0 0 1.45,-1.05l-0.4,-2.37l1.72,-1.69a1,1 0 0 0 0.26,-1a1,1 0 0 0 -0.81,-0.68l-2.35,-0.37l-1.1,-2.16a1,1 0 0 0 -1.8,0l-1.1,2.16l-2.39,0.35a1,1 0 0 0 -0.81,0.68a1,1 0 0 0 0.26,1l1.76,1.71l-0.4,2.37a1,1 0 0 0 1.45,1.05l1.13,-0.59l0,2.71l-5,0a1,1 0 0 0 -1,1l0,3l-2,0a1,1 0 0 0 -1,1l0,2a1,1 0 0 0 2,0l0,-1l4,0l0,1a1,1 0 0 0 2,0l0,-2a1,1 0 0 0 -1,-1l-2,0l0,-2l10,0l0,2l-2,0a1,1 0 0 0 -1,1l0,2a1,1 0 0 0 2,0l0,-1l4,0l0,1a1,1 0 0 0 2,0l0,-2a1,1 0 0 0 -1,-1zm-9,-9.37a1,1 0 0 0 -0.47,0.12l-0.8,0.42l0.15,-0.9a1,1 0 0 0 -0.29,-0.88l-0.65,-0.64l0.9,-0.13a1,1 0 0 0 0.76,-0.54l0.4,-0.82l0.4,0.82a1,1 0 0 0 0.76,0.54l0.9,0.13l-0.65,0.64a1,1 0 0 0 -0.29,0.88l0.15,0.9l-0.8,-0.42a1,1 0 0 0 -0.47,-0.12z"/>
  </g>
 </g>
</svg>