<svg width="20.000000000000004" height="20.000000000000004" xmlns="http://www.w3.org/2000/svg">

 <g>
  <title>Layer 1</title>
  <path stroke="null" id="svg_1" fill="#232323" d="m19.1178,3.4749l-5.46223,0l0,-0.86873a2.73111,2.60618 0 0 0 -2.73111,-2.60618l-1.82074,0a2.73111,2.60618 0 0 0 -2.73111,2.60618l0,0.86873l-5.46223,0a0.91037,0.86873 0 0 0 0,1.73745l1.82074,0l0,12.16215a2.73111,2.60618 0 0 0 2.73111,2.60618l9.10371,0a2.73111,2.60618 0 0 0 2.73111,-2.60618l0,-12.16215l1.82074,0a0.91037,0.86873 0 0 0 0,-1.73745zm-10.92446,-0.86873a0.91037,0.86873 0 0 1 0.91037,-0.86873l1.82074,0a0.91037,0.86873 0 0 1 0.91037,0.86873l0,0.86873l-3.64149,0l0,-0.86873zm-0.91037,13.03088a0.91037,0.86873 0 0 1 -1.82074,0l0,-6.9498a0.91037,0.86873 0 0 1 1.82074,0l0,6.9498zm3.64149,0a0.91037,0.86873 0 0 1 -1.82074,0l0,-6.9498a0.91037,0.86873 0 0 1 1.82074,0l0,6.9498zm3.64149,0a0.91037,0.86873 0 0 1 -1.82074,0l0,-6.9498a0.91037,0.86873 0 0 1 1.82074,0l0,6.9498z" class="cls-1"/>
 </g>
</svg>